<?xml version="1.0" encoding="utf-8"?>
<!-- Generator: Adobe Illustrator 17.0.0, SVG Export Plug-In . SVG Version: 6.00 Build 0)  -->
<!DOCTYPE svg PUBLIC "-//W3C//DTD SVG 1.1//EN" "http://www.w3.org/Graphics/SVG/1.1/DTD/svg11.dtd">
<svg version="1.1" id="Layer_1" xmlns="http://www.w3.org/2000/svg" xmlns:xlink="http://www.w3.org/1999/xlink" x="0px" y="0px"
	 width="1024px" height="768px" viewBox="0 0 1024 768" enable-background="new 0 0 1024 768" xml:space="preserve">
<g>
	<defs>
		<rect id="SVGID_1_" x="35.5" y="34" width="953" height="700"/>
	</defs>
	<clipPath id="SVGID_2_">
		<use xlink:href="#SVGID_1_"  overflow="visible"/>
	</clipPath>
	<path clip-path="url(#SVGID_2_)" fill="none" stroke="#000000" stroke-miterlimit="10" d="M150.06,107.045
		c-22.858,0-41.455,18.597-41.455,41.455c0,22.859,18.597,41.455,41.455,41.455s41.455-18.596,41.455-41.455
		C191.515,125.642,172.918,107.045,150.06,107.045z M150.06,262.5c-62.86,0-114-51.14-114-114s51.14-114,114-114s114,51.14,114,114
		S212.92,262.5,150.06,262.5z"/>
	<path clip-path="url(#SVGID_2_)" fill="none" stroke="#000000" stroke-miterlimit="10" d="M150.06,342.17
		c-22.858,0-41.455,18.597-41.455,41.455c0,22.859,18.597,41.455,41.455,41.455s41.455-18.596,41.455-41.455
		C191.515,360.767,172.918,342.17,150.06,342.17z M150.06,497.625c-62.86,0-114-51.14-114-114s51.14-114,114-114s114,51.14,114,114
		S212.92,497.625,150.06,497.625z"/>
	<path clip-path="url(#SVGID_2_)" fill="none" stroke="#000000" stroke-miterlimit="10" d="M150.06,578.045
		c-22.858,0-41.455,18.597-41.455,41.455c0,22.859,18.597,41.455,41.455,41.455s41.455-18.596,41.455-41.455
		C191.515,596.642,172.918,578.045,150.06,578.045z M150.06,733.5c-62.86,0-114-51.14-114-114s51.14-114,114-114s114,51.14,114,114
		S212.92,733.5,150.06,733.5z"/>
	<path clip-path="url(#SVGID_2_)" fill="none" stroke="#000000" stroke-miterlimit="10" d="M391.06,107.045
		c-22.858,0-41.455,18.597-41.455,41.455c0,22.859,18.597,41.455,41.455,41.455c22.858,0,41.455-18.596,41.455-41.455
		C432.515,125.642,413.918,107.045,391.06,107.045z M391.06,262.5c-62.86,0-114-51.14-114-114s51.14-114,114-114s114,51.14,114,114
		S453.92,262.5,391.06,262.5z"/>
	<path clip-path="url(#SVGID_2_)" fill="none" stroke="#000000" stroke-miterlimit="10" d="M391.06,342.17
		c-22.858,0-41.455,18.597-41.455,41.455c0,22.859,18.597,41.455,41.455,41.455c22.858,0,41.455-18.596,41.455-41.455
		C432.515,360.767,413.918,342.17,391.06,342.17z M391.06,497.625c-62.86,0-114-51.14-114-114s51.14-114,114-114s114,51.14,114,114
		S453.92,497.625,391.06,497.625z"/>
	<path clip-path="url(#SVGID_2_)" fill="none" stroke="#000000" stroke-miterlimit="10" d="M391.06,578.045
		c-22.858,0-41.455,18.597-41.455,41.455c0,22.859,18.597,41.455,41.455,41.455c22.858,0,41.455-18.596,41.455-41.455
		C432.515,596.642,413.918,578.045,391.06,578.045z M391.06,733.5c-62.86,0-114-51.14-114-114s51.14-114,114-114s114,51.14,114,114
		S453.92,733.5,391.06,733.5z"/>
	<path clip-path="url(#SVGID_2_)" fill="none" stroke="#000000" stroke-miterlimit="10" d="M632.06,107.045
		c-22.858,0-41.455,18.597-41.455,41.455c0,22.859,18.597,41.455,41.455,41.455c22.858,0,41.455-18.596,41.455-41.455
		C673.515,125.642,654.918,107.045,632.06,107.045z M632.06,262.5c-62.86,0-114-51.14-114-114s51.14-114,114-114s114,51.14,114,114
		S694.92,262.5,632.06,262.5z"/>
	<path clip-path="url(#SVGID_2_)" fill="none" stroke="#000000" stroke-miterlimit="10" d="M632.06,342.17
		c-22.858,0-41.455,18.597-41.455,41.455c0,22.859,18.597,41.455,41.455,41.455c22.858,0,41.455-18.596,41.455-41.455
		C673.515,360.767,654.918,342.17,632.06,342.17z M632.06,497.625c-62.86,0-114-51.14-114-114s51.14-114,114-114s114,51.14,114,114
		S694.92,497.625,632.06,497.625z"/>
	<path clip-path="url(#SVGID_2_)" fill="none" stroke="#000000" stroke-miterlimit="10" d="M632.06,578.045
		c-22.858,0-41.455,18.597-41.455,41.455c0,22.859,18.597,41.455,41.455,41.455c22.858,0,41.455-18.596,41.455-41.455
		C673.515,596.642,654.918,578.045,632.06,578.045z M632.06,733.5c-62.86,0-114-51.14-114-114s51.14-114,114-114s114,51.14,114,114
		S694.92,733.5,632.06,733.5z"/>
	<path clip-path="url(#SVGID_2_)" fill="none" stroke="#000000" stroke-miterlimit="10" d="M873.06,107.045
		c-22.858,0-41.455,18.597-41.455,41.455c0,22.859,18.597,41.455,41.455,41.455c22.858,0,41.455-18.596,41.455-41.455
		C914.515,125.642,895.918,107.045,873.06,107.045z M873.06,262.5c-62.86,0-114-51.14-114-114s51.14-114,114-114s114,51.14,114,114
		S935.92,262.5,873.06,262.5z"/>
	<path clip-path="url(#SVGID_2_)" fill="none" stroke="#000000" stroke-miterlimit="10" d="M873.06,342.17
		c-22.858,0-41.455,18.597-41.455,41.455c0,22.859,18.597,41.455,41.455,41.455c22.858,0,41.455-18.596,41.455-41.455
		C914.515,360.767,895.918,342.17,873.06,342.17z M873.06,497.625c-62.86,0-114-51.14-114-114s51.14-114,114-114s114,51.14,114,114
		S935.92,497.625,873.06,497.625z"/>
	<path clip-path="url(#SVGID_2_)" fill="none" stroke="#000000" stroke-miterlimit="10" d="M873.06,578.045
		c-22.858,0-41.455,18.597-41.455,41.455c0,22.859,18.597,41.455,41.455,41.455c22.858,0,41.455-18.596,41.455-41.455
		C914.515,596.642,895.918,578.045,873.06,578.045z M873.06,733.5c-62.86,0-114-51.14-114-114s51.14-114,114-114s114,51.14,114,114
		S935.92,733.5,873.06,733.5z"/>
	<path clip-path="url(#SVGID_2_)" fill="none" stroke="#000000" stroke-miterlimit="10" d="M150.5,58.136
		c-6.817,0-12.364,5.547-12.364,12.364c0,6.818,5.547,12.364,12.364,12.364c6.817,0,12.364-5.546,12.364-12.364
		C162.864,63.683,157.317,58.136,150.5,58.136z M150.5,104.5c-18.748,0-34-15.252-34-34c0-18.748,15.252-34,34-34s34,15.252,34,34
		C184.5,89.248,169.248,104.5,150.5,104.5z"/>
	<path clip-path="url(#SVGID_2_)" fill="none" stroke="#000000" stroke-miterlimit="10" d="M391,58.136
		c-6.817,0-12.364,5.547-12.364,12.364c0,6.818,5.547,12.364,12.364,12.364c6.817,0,12.364-5.546,12.364-12.364
		C403.364,63.683,397.817,58.136,391,58.136z M391,104.5c-18.748,0-34-15.252-34-34c0-18.748,15.252-34,34-34
		c18.748,0,34,15.252,34,34C425,89.248,409.748,104.5,391,104.5z"/>
	<path clip-path="url(#SVGID_2_)" fill="none" stroke="#000000" stroke-miterlimit="10" d="M632.667,58.136
		c-6.817,0-12.364,5.547-12.364,12.364c0,6.818,5.547,12.364,12.364,12.364c6.817,0,12.364-5.546,12.364-12.364
		C645.031,63.683,639.484,58.136,632.667,58.136z M632.667,104.5c-18.748,0-34-15.252-34-34c0-18.748,15.252-34,34-34
		c18.748,0,34,15.252,34,34C666.667,89.248,651.415,104.5,632.667,104.5z"/>
	<path clip-path="url(#SVGID_2_)" fill="none" stroke="#000000" stroke-miterlimit="10" d="M873.667,58.136
		c-6.817,0-12.364,5.547-12.364,12.364c0,6.818,5.547,12.364,12.364,12.364c6.817,0,12.364-5.546,12.364-12.364
		C886.031,63.683,880.484,58.136,873.667,58.136z M873.667,104.5c-18.748,0-34-15.252-34-34c0-18.748,15.252-34,34-34
		c18.748,0,34,15.252,34,34C907.667,89.248,892.415,104.5,873.667,104.5z"/>
	<path clip-path="url(#SVGID_2_)" fill="none" stroke="#000000" stroke-miterlimit="10" d="M793.333,58.136
		c-6.817,0-12.364,5.547-12.364,12.364c0,6.818,5.547,12.364,12.364,12.364c6.817,0,12.364-5.546,12.364-12.364
		C805.697,63.683,800.15,58.136,793.333,58.136z M793.333,104.5c-18.748,0-34-15.252-34-34c0-18.748,15.252-34,34-34
		c18.748,0,34,15.252,34,34C827.333,89.248,812.081,104.5,793.333,104.5z"/>
	<path clip-path="url(#SVGID_2_)" fill="none" stroke="#000000" stroke-miterlimit="10" d="M713,58.136
		c-6.817,0-12.364,5.547-12.364,12.364c0,6.818,5.547,12.364,12.364,12.364c6.817,0,12.364-5.546,12.364-12.364
		C725.364,63.683,719.817,58.136,713,58.136z M713,104.5c-18.748,0-34-15.252-34-34c0-18.748,15.252-34,34-34
		c18.748,0,34,15.252,34,34C747,89.248,731.748,104.5,713,104.5z"/>
	<path clip-path="url(#SVGID_2_)" fill="none" stroke="#000000" stroke-miterlimit="10" d="M552.333,58.136
		c-6.817,0-12.364,5.547-12.364,12.364c0,6.818,5.547,12.364,12.364,12.364c6.817,0,12.364-5.546,12.364-12.364
		C564.697,63.683,559.15,58.136,552.333,58.136z M552.333,104.5c-18.748,0-34-15.252-34-34c0-18.748,15.252-34,34-34
		c18.748,0,34,15.252,34,34C586.333,89.248,571.081,104.5,552.333,104.5z"/>
	<path clip-path="url(#SVGID_2_)" fill="none" stroke="#000000" stroke-miterlimit="10" d="M471.333,58.136
		c-6.817,0-12.364,5.547-12.364,12.364c0,6.818,5.547,12.364,12.364,12.364c6.817,0,12.364-5.546,12.364-12.364
		C483.697,63.683,478.15,58.136,471.333,58.136z M471.333,104.5c-18.748,0-34-15.252-34-34c0-18.748,15.252-34,34-34
		c18.748,0,34,15.252,34,34C505.333,89.248,490.081,104.5,471.333,104.5z"/>
	<path clip-path="url(#SVGID_2_)" fill="none" stroke="#000000" stroke-miterlimit="10" d="M310.667,58.136
		c-6.817,0-12.364,5.547-12.364,12.364c0,6.818,5.547,12.364,12.364,12.364c6.817,0,12.364-5.546,12.364-12.364
		C323.031,63.683,317.484,58.136,310.667,58.136z M310.667,104.5c-18.748,0-34-15.252-34-34c0-18.748,15.252-34,34-34
		c18.748,0,34,15.252,34,34C344.667,89.248,329.415,104.5,310.667,104.5z"/>
	<path clip-path="url(#SVGID_2_)" fill="none" stroke="#000000" stroke-miterlimit="10" d="M231,58.136
		c-6.817,0-12.364,5.547-12.364,12.364c0,6.818,5.547,12.364,12.364,12.364c6.817,0,12.364-5.546,12.364-12.364
		C243.364,63.683,237.817,58.136,231,58.136z M231,104.5c-18.748,0-34-15.252-34-34c0-18.748,15.252-34,34-34s34,15.252,34,34
		C265,89.248,249.748,104.5,231,104.5z"/>
	<path clip-path="url(#SVGID_2_)" fill="none" stroke="#000000" stroke-miterlimit="10" d="M70,58.136
		c-6.817,0-12.364,5.547-12.364,12.364c0,6.818,5.547,12.364,12.364,12.364S82.364,77.318,82.364,70.5
		C82.364,63.683,76.817,58.136,70,58.136z M70,104.5c-18.748,0-34-15.252-34-34c0-18.748,15.252-34,34-34s34,15.252,34,34
		C104,89.248,88.748,104.5,70,104.5z"/>
	<path clip-path="url(#SVGID_2_)" fill="none" stroke="#000000" stroke-miterlimit="10" d="M954,58.136
		c-6.817,0-12.364,5.547-12.364,12.364c0,6.818,5.547,12.364,12.364,12.364c6.817,0,12.364-5.546,12.364-12.364
		C966.364,63.683,960.817,58.136,954,58.136z M954,104.5c-18.748,0-34-15.252-34-34c0-18.748,15.252-34,34-34
		c18.748,0,34,15.252,34,34C988,89.248,972.748,104.5,954,104.5z"/>
	<path clip-path="url(#SVGID_2_)" fill="none" stroke="#000000" stroke-miterlimit="10" d="M150.5,136.511
		c-6.817,0-12.364,5.547-12.364,12.364c0,6.818,5.547,12.364,12.364,12.364c6.817,0,12.364-5.546,12.364-12.364
		C162.864,142.058,157.317,136.511,150.5,136.511z M150.5,182.875c-18.748,0-34-15.252-34-34c0-18.748,15.252-34,34-34
		s34,15.252,34,34C184.5,167.623,169.248,182.875,150.5,182.875z"/>
	<path clip-path="url(#SVGID_2_)" fill="none" stroke="#000000" stroke-miterlimit="10" d="M391,136.511
		c-6.817,0-12.364,5.547-12.364,12.364c0,6.818,5.547,12.364,12.364,12.364c6.817,0,12.364-5.546,12.364-12.364
		C403.364,142.058,397.817,136.511,391,136.511z M391,182.875c-18.748,0-34-15.252-34-34c0-18.748,15.252-34,34-34
		c18.748,0,34,15.252,34,34C425,167.623,409.748,182.875,391,182.875z"/>
	<path clip-path="url(#SVGID_2_)" fill="none" stroke="#000000" stroke-miterlimit="10" d="M632.667,136.511
		c-6.817,0-12.364,5.547-12.364,12.364c0,6.818,5.547,12.364,12.364,12.364c6.817,0,12.364-5.546,12.364-12.364
		C645.031,142.058,639.484,136.511,632.667,136.511z M632.667,182.875c-18.748,0-34-15.252-34-34c0-18.748,15.252-34,34-34
		c18.748,0,34,15.252,34,34C666.667,167.623,651.415,182.875,632.667,182.875z"/>
	<path clip-path="url(#SVGID_2_)" fill="none" stroke="#000000" stroke-miterlimit="10" d="M873.667,136.511
		c-6.817,0-12.364,5.547-12.364,12.364c0,6.818,5.547,12.364,12.364,12.364c6.817,0,12.364-5.546,12.364-12.364
		C886.031,142.058,880.484,136.511,873.667,136.511z M873.667,182.875c-18.748,0-34-15.252-34-34c0-18.748,15.252-34,34-34
		c18.748,0,34,15.252,34,34C907.667,167.623,892.415,182.875,873.667,182.875z"/>
	<path clip-path="url(#SVGID_2_)" fill="none" stroke="#000000" stroke-miterlimit="10" d="M793.333,136.511
		c-6.817,0-12.364,5.547-12.364,12.364c0,6.818,5.547,12.364,12.364,12.364c6.817,0,12.364-5.546,12.364-12.364
		C805.697,142.058,800.15,136.511,793.333,136.511z M793.333,182.875c-18.748,0-34-15.252-34-34c0-18.748,15.252-34,34-34
		c18.748,0,34,15.252,34,34C827.333,167.623,812.081,182.875,793.333,182.875z"/>
	<path clip-path="url(#SVGID_2_)" fill="none" stroke="#000000" stroke-miterlimit="10" d="M713,136.511
		c-6.817,0-12.364,5.547-12.364,12.364c0,6.818,5.547,12.364,12.364,12.364c6.817,0,12.364-5.546,12.364-12.364
		C725.364,142.058,719.817,136.511,713,136.511z M713,182.875c-18.748,0-34-15.252-34-34c0-18.748,15.252-34,34-34
		c18.748,0,34,15.252,34,34C747,167.623,731.748,182.875,713,182.875z"/>
	<path clip-path="url(#SVGID_2_)" fill="none" stroke="#000000" stroke-miterlimit="10" d="M552.333,136.511
		c-6.817,0-12.364,5.547-12.364,12.364c0,6.818,5.547,12.364,12.364,12.364c6.817,0,12.364-5.546,12.364-12.364
		C564.697,142.058,559.15,136.511,552.333,136.511z M552.333,182.875c-18.748,0-34-15.252-34-34c0-18.748,15.252-34,34-34
		c18.748,0,34,15.252,34,34C586.333,167.623,571.081,182.875,552.333,182.875z"/>
	<path clip-path="url(#SVGID_2_)" fill="none" stroke="#000000" stroke-miterlimit="10" d="M471.333,136.511
		c-6.817,0-12.364,5.547-12.364,12.364c0,6.818,5.547,12.364,12.364,12.364c6.817,0,12.364-5.546,12.364-12.364
		C483.697,142.058,478.15,136.511,471.333,136.511z M471.333,182.875c-18.748,0-34-15.252-34-34c0-18.748,15.252-34,34-34
		c18.748,0,34,15.252,34,34C505.333,167.623,490.081,182.875,471.333,182.875z"/>
	<path clip-path="url(#SVGID_2_)" fill="none" stroke="#000000" stroke-miterlimit="10" d="M310.667,136.511
		c-6.817,0-12.364,5.547-12.364,12.364c0,6.818,5.547,12.364,12.364,12.364c6.817,0,12.364-5.546,12.364-12.364
		C323.031,142.058,317.484,136.511,310.667,136.511z M310.667,182.875c-18.748,0-34-15.252-34-34c0-18.748,15.252-34,34-34
		c18.748,0,34,15.252,34,34C344.667,167.623,329.415,182.875,310.667,182.875z"/>
	<path clip-path="url(#SVGID_2_)" fill="none" stroke="#000000" stroke-miterlimit="10" d="M231,136.511
		c-6.817,0-12.364,5.547-12.364,12.364c0,6.818,5.547,12.364,12.364,12.364c6.817,0,12.364-5.546,12.364-12.364
		C243.364,142.058,237.817,136.511,231,136.511z M231,182.875c-18.748,0-34-15.252-34-34c0-18.748,15.252-34,34-34s34,15.252,34,34
		C265,167.623,249.748,182.875,231,182.875z"/>
	<path clip-path="url(#SVGID_2_)" fill="none" stroke="#000000" stroke-miterlimit="10" d="M70,136.511
		c-6.817,0-12.364,5.547-12.364,12.364c0,6.818,5.547,12.364,12.364,12.364s12.364-5.546,12.364-12.364
		C82.364,142.058,76.817,136.511,70,136.511z M70,182.875c-18.748,0-34-15.252-34-34c0-18.748,15.252-34,34-34s34,15.252,34,34
		C104,167.623,88.748,182.875,70,182.875z"/>
	<path clip-path="url(#SVGID_2_)" fill="none" stroke="#000000" stroke-miterlimit="10" d="M954,136.511
		c-6.817,0-12.364,5.547-12.364,12.364c0,6.818,5.547,12.364,12.364,12.364c6.817,0,12.364-5.546,12.364-12.364
		C966.364,142.058,960.817,136.511,954,136.511z M954,182.875c-18.748,0-34-15.252-34-34c0-18.748,15.252-34,34-34
		c18.748,0,34,15.252,34,34C988,167.623,972.748,182.875,954,182.875z"/>
	<path clip-path="url(#SVGID_2_)" fill="none" stroke="#000000" stroke-miterlimit="10" d="M150.5,214.886
		c-6.817,0-12.364,5.547-12.364,12.364c0,6.818,5.547,12.364,12.364,12.364c6.817,0,12.364-5.546,12.364-12.364
		C162.864,220.433,157.317,214.886,150.5,214.886z M150.5,261.25c-18.748,0-34-15.252-34-34c0-18.748,15.252-34,34-34
		s34,15.252,34,34C184.5,245.998,169.248,261.25,150.5,261.25z"/>
	<path clip-path="url(#SVGID_2_)" fill="none" stroke="#000000" stroke-miterlimit="10" d="M391,214.886
		c-6.817,0-12.364,5.547-12.364,12.364c0,6.818,5.547,12.364,12.364,12.364c6.817,0,12.364-5.546,12.364-12.364
		C403.364,220.433,397.817,214.886,391,214.886z M391,261.25c-18.748,0-34-15.252-34-34c0-18.748,15.252-34,34-34
		c18.748,0,34,15.252,34,34C425,245.998,409.748,261.25,391,261.25z"/>
	<path clip-path="url(#SVGID_2_)" fill="none" stroke="#000000" stroke-miterlimit="10" d="M632.667,214.886
		c-6.817,0-12.364,5.547-12.364,12.364c0,6.818,5.547,12.364,12.364,12.364c6.817,0,12.364-5.546,12.364-12.364
		C645.031,220.433,639.484,214.886,632.667,214.886z M632.667,261.25c-18.748,0-34-15.252-34-34c0-18.748,15.252-34,34-34
		c18.748,0,34,15.252,34,34C666.667,245.998,651.415,261.25,632.667,261.25z"/>
	<path clip-path="url(#SVGID_2_)" fill="none" stroke="#000000" stroke-miterlimit="10" d="M873.667,214.886
		c-6.817,0-12.364,5.547-12.364,12.364c0,6.818,5.547,12.364,12.364,12.364c6.817,0,12.364-5.546,12.364-12.364
		C886.031,220.433,880.484,214.886,873.667,214.886z M873.667,261.25c-18.748,0-34-15.252-34-34c0-18.748,15.252-34,34-34
		c18.748,0,34,15.252,34,34C907.667,245.998,892.415,261.25,873.667,261.25z"/>
	<path clip-path="url(#SVGID_2_)" fill="none" stroke="#000000" stroke-miterlimit="10" d="M793.333,214.886
		c-6.817,0-12.364,5.547-12.364,12.364c0,6.818,5.547,12.364,12.364,12.364c6.817,0,12.364-5.546,12.364-12.364
		C805.697,220.433,800.15,214.886,793.333,214.886z M793.333,261.25c-18.748,0-34-15.252-34-34c0-18.748,15.252-34,34-34
		c18.748,0,34,15.252,34,34C827.333,245.998,812.081,261.25,793.333,261.25z"/>
	<path clip-path="url(#SVGID_2_)" fill="none" stroke="#000000" stroke-miterlimit="10" d="M713,214.886
		c-6.817,0-12.364,5.547-12.364,12.364c0,6.818,5.547,12.364,12.364,12.364c6.817,0,12.364-5.546,12.364-12.364
		C725.364,220.433,719.817,214.886,713,214.886z M713,261.25c-18.748,0-34-15.252-34-34c0-18.748,15.252-34,34-34
		c18.748,0,34,15.252,34,34C747,245.998,731.748,261.25,713,261.25z"/>
	<path clip-path="url(#SVGID_2_)" fill="none" stroke="#000000" stroke-miterlimit="10" d="M552.333,214.886
		c-6.817,0-12.364,5.547-12.364,12.364c0,6.818,5.547,12.364,12.364,12.364c6.817,0,12.364-5.546,12.364-12.364
		C564.697,220.433,559.15,214.886,552.333,214.886z M552.333,261.25c-18.748,0-34-15.252-34-34c0-18.748,15.252-34,34-34
		c18.748,0,34,15.252,34,34C586.333,245.998,571.081,261.25,552.333,261.25z"/>
	<path clip-path="url(#SVGID_2_)" fill="none" stroke="#000000" stroke-miterlimit="10" d="M471.333,214.886
		c-6.817,0-12.364,5.547-12.364,12.364c0,6.818,5.547,12.364,12.364,12.364c6.817,0,12.364-5.546,12.364-12.364
		C483.697,220.433,478.15,214.886,471.333,214.886z M471.333,261.25c-18.748,0-34-15.252-34-34c0-18.748,15.252-34,34-34
		c18.748,0,34,15.252,34,34C505.333,245.998,490.081,261.25,471.333,261.25z"/>
	<path clip-path="url(#SVGID_2_)" fill="none" stroke="#000000" stroke-miterlimit="10" d="M310.667,214.886
		c-6.817,0-12.364,5.547-12.364,12.364c0,6.818,5.547,12.364,12.364,12.364c6.817,0,12.364-5.546,12.364-12.364
		C323.031,220.433,317.484,214.886,310.667,214.886z M310.667,261.25c-18.748,0-34-15.252-34-34c0-18.748,15.252-34,34-34
		c18.748,0,34,15.252,34,34C344.667,245.998,329.415,261.25,310.667,261.25z"/>
	<path clip-path="url(#SVGID_2_)" fill="none" stroke="#000000" stroke-miterlimit="10" d="M231,214.886
		c-6.817,0-12.364,5.547-12.364,12.364c0,6.818,5.547,12.364,12.364,12.364c6.817,0,12.364-5.546,12.364-12.364
		C243.364,220.433,237.817,214.886,231,214.886z M231,261.25c-18.748,0-34-15.252-34-34c0-18.748,15.252-34,34-34s34,15.252,34,34
		C265,245.998,249.748,261.25,231,261.25z"/>
	<path clip-path="url(#SVGID_2_)" fill="none" stroke="#000000" stroke-miterlimit="10" d="M70,214.886
		c-6.817,0-12.364,5.547-12.364,12.364c0,6.818,5.547,12.364,12.364,12.364s12.364-5.546,12.364-12.364
		C82.364,220.433,76.817,214.886,70,214.886z M70,261.25c-18.748,0-34-15.252-34-34c0-18.748,15.252-34,34-34s34,15.252,34,34
		C104,245.998,88.748,261.25,70,261.25z"/>
	<path clip-path="url(#SVGID_2_)" fill="none" stroke="#000000" stroke-miterlimit="10" d="M954,214.886
		c-6.817,0-12.364,5.547-12.364,12.364c0,6.818,5.547,12.364,12.364,12.364c6.817,0,12.364-5.546,12.364-12.364
		C966.364,220.433,960.817,214.886,954,214.886z M954,261.25c-18.748,0-34-15.252-34-34c0-18.748,15.252-34,34-34
		c18.748,0,34,15.252,34,34C988,245.998,972.748,261.25,954,261.25z"/>
	<path clip-path="url(#SVGID_2_)" fill="none" stroke="#000000" stroke-miterlimit="10" d="M150.5,293.261
		c-6.817,0-12.364,5.547-12.364,12.364c0,6.818,5.547,12.364,12.364,12.364c6.817,0,12.364-5.546,12.364-12.364
		C162.864,298.808,157.317,293.261,150.5,293.261z M150.5,339.625c-18.748,0-34-15.252-34-34c0-18.748,15.252-34,34-34
		s34,15.252,34,34C184.5,324.373,169.248,339.625,150.5,339.625z"/>
	<path clip-path="url(#SVGID_2_)" fill="none" stroke="#000000" stroke-miterlimit="10" d="M391,293.261
		c-6.817,0-12.364,5.547-12.364,12.364c0,6.818,5.547,12.364,12.364,12.364c6.817,0,12.364-5.546,12.364-12.364
		C403.364,298.808,397.817,293.261,391,293.261z M391,339.625c-18.748,0-34-15.252-34-34c0-18.748,15.252-34,34-34
		c18.748,0,34,15.252,34,34C425,324.373,409.748,339.625,391,339.625z"/>
	<path clip-path="url(#SVGID_2_)" fill="none" stroke="#000000" stroke-miterlimit="10" d="M632.667,293.261
		c-6.817,0-12.364,5.547-12.364,12.364c0,6.818,5.547,12.364,12.364,12.364c6.817,0,12.364-5.546,12.364-12.364
		C645.031,298.808,639.484,293.261,632.667,293.261z M632.667,339.625c-18.748,0-34-15.252-34-34c0-18.748,15.252-34,34-34
		c18.748,0,34,15.252,34,34C666.667,324.373,651.415,339.625,632.667,339.625z"/>
	<path clip-path="url(#SVGID_2_)" fill="none" stroke="#000000" stroke-miterlimit="10" d="M873.667,293.261
		c-6.817,0-12.364,5.547-12.364,12.364c0,6.818,5.547,12.364,12.364,12.364c6.817,0,12.364-5.546,12.364-12.364
		C886.031,298.808,880.484,293.261,873.667,293.261z M873.667,339.625c-18.748,0-34-15.252-34-34c0-18.748,15.252-34,34-34
		c18.748,0,34,15.252,34,34C907.667,324.373,892.415,339.625,873.667,339.625z"/>
	<path clip-path="url(#SVGID_2_)" fill="none" stroke="#000000" stroke-miterlimit="10" d="M793.333,293.261
		c-6.817,0-12.364,5.547-12.364,12.364c0,6.818,5.547,12.364,12.364,12.364c6.817,0,12.364-5.546,12.364-12.364
		C805.697,298.808,800.15,293.261,793.333,293.261z M793.333,339.625c-18.748,0-34-15.252-34-34c0-18.748,15.252-34,34-34
		c18.748,0,34,15.252,34,34C827.333,324.373,812.081,339.625,793.333,339.625z"/>
	<path clip-path="url(#SVGID_2_)" fill="none" stroke="#000000" stroke-miterlimit="10" d="M713,293.261
		c-6.817,0-12.364,5.547-12.364,12.364c0,6.818,5.547,12.364,12.364,12.364c6.817,0,12.364-5.546,12.364-12.364
		C725.364,298.808,719.817,293.261,713,293.261z M713,339.625c-18.748,0-34-15.252-34-34c0-18.748,15.252-34,34-34
		c18.748,0,34,15.252,34,34C747,324.373,731.748,339.625,713,339.625z"/>
	<path clip-path="url(#SVGID_2_)" fill="none" stroke="#000000" stroke-miterlimit="10" d="M552.333,293.261
		c-6.817,0-12.364,5.547-12.364,12.364c0,6.818,5.547,12.364,12.364,12.364c6.817,0,12.364-5.546,12.364-12.364
		C564.697,298.808,559.15,293.261,552.333,293.261z M552.333,339.625c-18.748,0-34-15.252-34-34c0-18.748,15.252-34,34-34
		c18.748,0,34,15.252,34,34C586.333,324.373,571.081,339.625,552.333,339.625z"/>
	<path clip-path="url(#SVGID_2_)" fill="none" stroke="#000000" stroke-miterlimit="10" d="M471.333,293.261
		c-6.817,0-12.364,5.547-12.364,12.364c0,6.818,5.547,12.364,12.364,12.364c6.817,0,12.364-5.546,12.364-12.364
		C483.697,298.808,478.15,293.261,471.333,293.261z M471.333,339.625c-18.748,0-34-15.252-34-34c0-18.748,15.252-34,34-34
		c18.748,0,34,15.252,34,34C505.333,324.373,490.081,339.625,471.333,339.625z"/>
	<path clip-path="url(#SVGID_2_)" fill="none" stroke="#000000" stroke-miterlimit="10" d="M310.667,293.261
		c-6.817,0-12.364,5.547-12.364,12.364c0,6.818,5.547,12.364,12.364,12.364c6.817,0,12.364-5.546,12.364-12.364
		C323.031,298.808,317.484,293.261,310.667,293.261z M310.667,339.625c-18.748,0-34-15.252-34-34c0-18.748,15.252-34,34-34
		c18.748,0,34,15.252,34,34C344.667,324.373,329.415,339.625,310.667,339.625z"/>
	<path clip-path="url(#SVGID_2_)" fill="none" stroke="#000000" stroke-miterlimit="10" d="M231,293.261
		c-6.817,0-12.364,5.547-12.364,12.364c0,6.818,5.547,12.364,12.364,12.364c6.817,0,12.364-5.546,12.364-12.364
		C243.364,298.808,237.817,293.261,231,293.261z M231,339.625c-18.748,0-34-15.252-34-34c0-18.748,15.252-34,34-34s34,15.252,34,34
		C265,324.373,249.748,339.625,231,339.625z"/>
	<path clip-path="url(#SVGID_2_)" fill="none" stroke="#000000" stroke-miterlimit="10" d="M70,293.261
		c-6.817,0-12.364,5.547-12.364,12.364c0,6.818,5.547,12.364,12.364,12.364s12.364-5.546,12.364-12.364
		C82.364,298.808,76.817,293.261,70,293.261z M70,339.625c-18.748,0-34-15.252-34-34c0-18.748,15.252-34,34-34s34,15.252,34,34
		C104,324.373,88.748,339.625,70,339.625z"/>
	<path clip-path="url(#SVGID_2_)" fill="none" stroke="#000000" stroke-miterlimit="10" d="M954,293.261
		c-6.817,0-12.364,5.547-12.364,12.364c0,6.818,5.547,12.364,12.364,12.364c6.817,0,12.364-5.546,12.364-12.364
		C966.364,298.808,960.817,293.261,954,293.261z M954,339.625c-18.748,0-34-15.252-34-34c0-18.748,15.252-34,34-34
		c18.748,0,34,15.252,34,34C988,324.373,972.748,339.625,954,339.625z"/>
	<path clip-path="url(#SVGID_2_)" fill="none" stroke="#000000" stroke-miterlimit="10" d="M150.5,371.636
		c-6.817,0-12.364,5.547-12.364,12.364c0,6.818,5.547,12.364,12.364,12.364c6.817,0,12.364-5.546,12.364-12.364
		C162.864,377.183,157.317,371.636,150.5,371.636z M150.5,418c-18.748,0-34-15.252-34-34c0-18.748,15.252-34,34-34s34,15.252,34,34
		C184.5,402.748,169.248,418,150.5,418z"/>
	<path clip-path="url(#SVGID_2_)" fill="none" stroke="#000000" stroke-miterlimit="10" d="M391,371.636
		c-6.817,0-12.364,5.547-12.364,12.364c0,6.818,5.547,12.364,12.364,12.364c6.817,0,12.364-5.546,12.364-12.364
		C403.364,377.183,397.817,371.636,391,371.636z M391,418c-18.748,0-34-15.252-34-34c0-18.748,15.252-34,34-34
		c18.748,0,34,15.252,34,34C425,402.748,409.748,418,391,418z"/>
	<path clip-path="url(#SVGID_2_)" fill="none" stroke="#000000" stroke-miterlimit="10" d="M632.667,371.636
		c-6.817,0-12.364,5.547-12.364,12.364c0,6.818,5.547,12.364,12.364,12.364c6.817,0,12.364-5.546,12.364-12.364
		C645.031,377.183,639.484,371.636,632.667,371.636z M632.667,418c-18.748,0-34-15.252-34-34c0-18.748,15.252-34,34-34
		c18.748,0,34,15.252,34,34C666.667,402.748,651.415,418,632.667,418z"/>
	<path clip-path="url(#SVGID_2_)" fill="none" stroke="#000000" stroke-miterlimit="10" d="M873.667,371.636
		c-6.817,0-12.364,5.547-12.364,12.364c0,6.818,5.547,12.364,12.364,12.364c6.817,0,12.364-5.546,12.364-12.364
		C886.031,377.183,880.484,371.636,873.667,371.636z M873.667,418c-18.748,0-34-15.252-34-34c0-18.748,15.252-34,34-34
		c18.748,0,34,15.252,34,34C907.667,402.748,892.415,418,873.667,418z"/>
	<path clip-path="url(#SVGID_2_)" fill="none" stroke="#000000" stroke-miterlimit="10" d="M793.333,371.636
		c-6.817,0-12.364,5.547-12.364,12.364c0,6.818,5.547,12.364,12.364,12.364c6.817,0,12.364-5.546,12.364-12.364
		C805.697,377.183,800.15,371.636,793.333,371.636z M793.333,418c-18.748,0-34-15.252-34-34c0-18.748,15.252-34,34-34
		c18.748,0,34,15.252,34,34C827.333,402.748,812.081,418,793.333,418z"/>
	<path clip-path="url(#SVGID_2_)" fill="none" stroke="#000000" stroke-miterlimit="10" d="M713,371.636
		c-6.817,0-12.364,5.547-12.364,12.364c0,6.818,5.547,12.364,12.364,12.364c6.817,0,12.364-5.546,12.364-12.364
		C725.364,377.183,719.817,371.636,713,371.636z M713,418c-18.748,0-34-15.252-34-34c0-18.748,15.252-34,34-34
		c18.748,0,34,15.252,34,34C747,402.748,731.748,418,713,418z"/>
	<path clip-path="url(#SVGID_2_)" fill="none" stroke="#000000" stroke-miterlimit="10" d="M552.333,371.636
		c-6.817,0-12.364,5.547-12.364,12.364c0,6.818,5.547,12.364,12.364,12.364c6.817,0,12.364-5.546,12.364-12.364
		C564.697,377.183,559.15,371.636,552.333,371.636z M552.333,418c-18.748,0-34-15.252-34-34c0-18.748,15.252-34,34-34
		c18.748,0,34,15.252,34,34C586.333,402.748,571.081,418,552.333,418z"/>
	<path clip-path="url(#SVGID_2_)" fill="none" stroke="#000000" stroke-miterlimit="10" d="M471.333,371.636
		c-6.817,0-12.364,5.547-12.364,12.364c0,6.818,5.547,12.364,12.364,12.364c6.817,0,12.364-5.546,12.364-12.364
		C483.697,377.183,478.15,371.636,471.333,371.636z M471.333,418c-18.748,0-34-15.252-34-34c0-18.748,15.252-34,34-34
		c18.748,0,34,15.252,34,34C505.333,402.748,490.081,418,471.333,418z"/>
	<path clip-path="url(#SVGID_2_)" fill="none" stroke="#000000" stroke-miterlimit="10" d="M310.667,371.636
		c-6.817,0-12.364,5.547-12.364,12.364c0,6.818,5.547,12.364,12.364,12.364c6.817,0,12.364-5.546,12.364-12.364
		C323.031,377.183,317.484,371.636,310.667,371.636z M310.667,418c-18.748,0-34-15.252-34-34c0-18.748,15.252-34,34-34
		c18.748,0,34,15.252,34,34C344.667,402.748,329.415,418,310.667,418z"/>
	<path clip-path="url(#SVGID_2_)" fill="none" stroke="#000000" stroke-miterlimit="10" d="M231,371.636
		c-6.817,0-12.364,5.547-12.364,12.364c0,6.818,5.547,12.364,12.364,12.364c6.817,0,12.364-5.546,12.364-12.364
		C243.364,377.183,237.817,371.636,231,371.636z M231,418c-18.748,0-34-15.252-34-34c0-18.748,15.252-34,34-34s34,15.252,34,34
		C265,402.748,249.748,418,231,418z"/>
	<path clip-path="url(#SVGID_2_)" fill="none" stroke="#000000" stroke-miterlimit="10" d="M70,371.636
		c-6.817,0-12.364,5.547-12.364,12.364c0,6.818,5.547,12.364,12.364,12.364S82.364,390.818,82.364,384
		C82.364,377.183,76.817,371.636,70,371.636z M70,418c-18.748,0-34-15.252-34-34c0-18.748,15.252-34,34-34s34,15.252,34,34
		C104,402.748,88.748,418,70,418z"/>
	<path clip-path="url(#SVGID_2_)" fill="none" stroke="#000000" stroke-miterlimit="10" d="M954,371.636
		c-6.817,0-12.364,5.547-12.364,12.364c0,6.818,5.547,12.364,12.364,12.364c6.817,0,12.364-5.546,12.364-12.364
		C966.364,377.183,960.817,371.636,954,371.636z M954,418c-18.748,0-34-15.252-34-34c0-18.748,15.252-34,34-34
		c18.748,0,34,15.252,34,34C988,402.748,972.748,418,954,418z"/>
	<path clip-path="url(#SVGID_2_)" fill="none" stroke="#000000" stroke-miterlimit="10" d="M150.5,450.011
		c-6.817,0-12.364,5.547-12.364,12.364c0,6.818,5.547,12.364,12.364,12.364c6.817,0,12.364-5.546,12.364-12.364
		C162.864,455.558,157.317,450.011,150.5,450.011z M150.5,496.375c-18.748,0-34-15.252-34-34s15.252-34,34-34s34,15.252,34,34
		S169.248,496.375,150.5,496.375z"/>
	<path clip-path="url(#SVGID_2_)" fill="none" stroke="#000000" stroke-miterlimit="10" d="M391,450.011
		c-6.817,0-12.364,5.547-12.364,12.364c0,6.818,5.547,12.364,12.364,12.364c6.817,0,12.364-5.546,12.364-12.364
		C403.364,455.558,397.817,450.011,391,450.011z M391,496.375c-18.748,0-34-15.252-34-34s15.252-34,34-34c18.748,0,34,15.252,34,34
		S409.748,496.375,391,496.375z"/>
	<path clip-path="url(#SVGID_2_)" fill="none" stroke="#000000" stroke-miterlimit="10" d="M632.667,450.011
		c-6.817,0-12.364,5.547-12.364,12.364c0,6.818,5.547,12.364,12.364,12.364c6.817,0,12.364-5.546,12.364-12.364
		C645.031,455.558,639.484,450.011,632.667,450.011z M632.667,496.375c-18.748,0-34-15.252-34-34s15.252-34,34-34
		c18.748,0,34,15.252,34,34S651.415,496.375,632.667,496.375z"/>
	<path clip-path="url(#SVGID_2_)" fill="none" stroke="#000000" stroke-miterlimit="10" d="M873.667,450.011
		c-6.817,0-12.364,5.547-12.364,12.364c0,6.818,5.547,12.364,12.364,12.364c6.817,0,12.364-5.546,12.364-12.364
		C886.031,455.558,880.484,450.011,873.667,450.011z M873.667,496.375c-18.748,0-34-15.252-34-34s15.252-34,34-34
		c18.748,0,34,15.252,34,34S892.415,496.375,873.667,496.375z"/>
	<path clip-path="url(#SVGID_2_)" fill="none" stroke="#000000" stroke-miterlimit="10" d="M793.333,450.011
		c-6.817,0-12.364,5.547-12.364,12.364c0,6.818,5.547,12.364,12.364,12.364c6.817,0,12.364-5.546,12.364-12.364
		C805.697,455.558,800.15,450.011,793.333,450.011z M793.333,496.375c-18.748,0-34-15.252-34-34s15.252-34,34-34
		c18.748,0,34,15.252,34,34S812.081,496.375,793.333,496.375z"/>
	<path clip-path="url(#SVGID_2_)" fill="none" stroke="#000000" stroke-miterlimit="10" d="M713,450.011
		c-6.817,0-12.364,5.547-12.364,12.364c0,6.818,5.547,12.364,12.364,12.364c6.817,0,12.364-5.546,12.364-12.364
		C725.364,455.558,719.817,450.011,713,450.011z M713,496.375c-18.748,0-34-15.252-34-34s15.252-34,34-34c18.748,0,34,15.252,34,34
		S731.748,496.375,713,496.375z"/>
	<path clip-path="url(#SVGID_2_)" fill="none" stroke="#000000" stroke-miterlimit="10" d="M552.333,450.011
		c-6.817,0-12.364,5.547-12.364,12.364c0,6.818,5.547,12.364,12.364,12.364c6.817,0,12.364-5.546,12.364-12.364
		C564.697,455.558,559.15,450.011,552.333,450.011z M552.333,496.375c-18.748,0-34-15.252-34-34s15.252-34,34-34
		c18.748,0,34,15.252,34,34S571.081,496.375,552.333,496.375z"/>
	<path clip-path="url(#SVGID_2_)" fill="none" stroke="#000000" stroke-miterlimit="10" d="M471.333,450.011
		c-6.817,0-12.364,5.547-12.364,12.364c0,6.818,5.547,12.364,12.364,12.364c6.817,0,12.364-5.546,12.364-12.364
		C483.697,455.558,478.15,450.011,471.333,450.011z M471.333,496.375c-18.748,0-34-15.252-34-34s15.252-34,34-34
		c18.748,0,34,15.252,34,34S490.081,496.375,471.333,496.375z"/>
	<path clip-path="url(#SVGID_2_)" fill="none" stroke="#000000" stroke-miterlimit="10" d="M310.667,450.011
		c-6.817,0-12.364,5.547-12.364,12.364c0,6.818,5.547,12.364,12.364,12.364c6.817,0,12.364-5.546,12.364-12.364
		C323.031,455.558,317.484,450.011,310.667,450.011z M310.667,496.375c-18.748,0-34-15.252-34-34s15.252-34,34-34
		c18.748,0,34,15.252,34,34S329.415,496.375,310.667,496.375z"/>
	<path clip-path="url(#SVGID_2_)" fill="none" stroke="#000000" stroke-miterlimit="10" d="M231,450.011
		c-6.817,0-12.364,5.547-12.364,12.364c0,6.818,5.547,12.364,12.364,12.364c6.817,0,12.364-5.546,12.364-12.364
		C243.364,455.558,237.817,450.011,231,450.011z M231,496.375c-18.748,0-34-15.252-34-34s15.252-34,34-34s34,15.252,34,34
		S249.748,496.375,231,496.375z"/>
	<path clip-path="url(#SVGID_2_)" fill="none" stroke="#000000" stroke-miterlimit="10" d="M70,450.011
		c-6.817,0-12.364,5.547-12.364,12.364c0,6.818,5.547,12.364,12.364,12.364s12.364-5.546,12.364-12.364
		C82.364,455.558,76.817,450.011,70,450.011z M70,496.375c-18.748,0-34-15.252-34-34s15.252-34,34-34s34,15.252,34,34
		S88.748,496.375,70,496.375z"/>
	<path clip-path="url(#SVGID_2_)" fill="none" stroke="#000000" stroke-miterlimit="10" d="M954,450.011
		c-6.817,0-12.364,5.547-12.364,12.364c0,6.818,5.547,12.364,12.364,12.364c6.817,0,12.364-5.546,12.364-12.364
		C966.364,455.558,960.817,450.011,954,450.011z M954,496.375c-18.748,0-34-15.252-34-34s15.252-34,34-34c18.748,0,34,15.252,34,34
		S972.748,496.375,954,496.375z"/>
	<path clip-path="url(#SVGID_2_)" fill="none" stroke="#000000" stroke-miterlimit="10" d="M150.5,528.386
		c-6.817,0-12.364,5.547-12.364,12.364c0,6.818,5.547,12.364,12.364,12.364c6.817,0,12.364-5.546,12.364-12.364
		C162.864,533.933,157.317,528.386,150.5,528.386z M150.5,574.75c-18.748,0-34-15.252-34-34s15.252-34,34-34s34,15.252,34,34
		S169.248,574.75,150.5,574.75z"/>
	<path clip-path="url(#SVGID_2_)" fill="none" stroke="#000000" stroke-miterlimit="10" d="M391,528.386
		c-6.817,0-12.364,5.547-12.364,12.364c0,6.818,5.547,12.364,12.364,12.364c6.817,0,12.364-5.546,12.364-12.364
		C403.364,533.933,397.817,528.386,391,528.386z M391,574.75c-18.748,0-34-15.252-34-34s15.252-34,34-34c18.748,0,34,15.252,34,34
		S409.748,574.75,391,574.75z"/>
	<path clip-path="url(#SVGID_2_)" fill="none" stroke="#000000" stroke-miterlimit="10" d="M632.667,528.386
		c-6.817,0-12.364,5.547-12.364,12.364c0,6.818,5.547,12.364,12.364,12.364c6.817,0,12.364-5.546,12.364-12.364
		C645.031,533.933,639.484,528.386,632.667,528.386z M632.667,574.75c-18.748,0-34-15.252-34-34s15.252-34,34-34
		c18.748,0,34,15.252,34,34S651.415,574.75,632.667,574.75z"/>
	<path clip-path="url(#SVGID_2_)" fill="none" stroke="#000000" stroke-miterlimit="10" d="M873.667,528.386
		c-6.817,0-12.364,5.547-12.364,12.364c0,6.818,5.547,12.364,12.364,12.364c6.817,0,12.364-5.546,12.364-12.364
		C886.031,533.933,880.484,528.386,873.667,528.386z M873.667,574.75c-18.748,0-34-15.252-34-34s15.252-34,34-34
		c18.748,0,34,15.252,34,34S892.415,574.75,873.667,574.75z"/>
	<path clip-path="url(#SVGID_2_)" fill="none" stroke="#000000" stroke-miterlimit="10" d="M793.333,528.386
		c-6.817,0-12.364,5.547-12.364,12.364c0,6.818,5.547,12.364,12.364,12.364c6.817,0,12.364-5.546,12.364-12.364
		C805.697,533.933,800.15,528.386,793.333,528.386z M793.333,574.75c-18.748,0-34-15.252-34-34s15.252-34,34-34
		c18.748,0,34,15.252,34,34S812.081,574.75,793.333,574.75z"/>
	<path clip-path="url(#SVGID_2_)" fill="none" stroke="#000000" stroke-miterlimit="10" d="M713,528.386
		c-6.817,0-12.364,5.547-12.364,12.364c0,6.818,5.547,12.364,12.364,12.364c6.817,0,12.364-5.546,12.364-12.364
		C725.364,533.933,719.817,528.386,713,528.386z M713,574.75c-18.748,0-34-15.252-34-34s15.252-34,34-34c18.748,0,34,15.252,34,34
		S731.748,574.75,713,574.75z"/>
	<path clip-path="url(#SVGID_2_)" fill="none" stroke="#000000" stroke-miterlimit="10" d="M552.333,528.386
		c-6.817,0-12.364,5.547-12.364,12.364c0,6.818,5.547,12.364,12.364,12.364c6.817,0,12.364-5.546,12.364-12.364
		C564.697,533.933,559.15,528.386,552.333,528.386z M552.333,574.75c-18.748,0-34-15.252-34-34s15.252-34,34-34
		c18.748,0,34,15.252,34,34S571.081,574.75,552.333,574.75z"/>
	<path clip-path="url(#SVGID_2_)" fill="none" stroke="#000000" stroke-miterlimit="10" d="M471.333,528.386
		c-6.817,0-12.364,5.547-12.364,12.364c0,6.818,5.547,12.364,12.364,12.364c6.817,0,12.364-5.546,12.364-12.364
		C483.697,533.933,478.15,528.386,471.333,528.386z M471.333,574.75c-18.748,0-34-15.252-34-34s15.252-34,34-34
		c18.748,0,34,15.252,34,34S490.081,574.75,471.333,574.75z"/>
	<path clip-path="url(#SVGID_2_)" fill="none" stroke="#000000" stroke-miterlimit="10" d="M310.667,528.386
		c-6.817,0-12.364,5.547-12.364,12.364c0,6.818,5.547,12.364,12.364,12.364c6.817,0,12.364-5.546,12.364-12.364
		C323.031,533.933,317.484,528.386,310.667,528.386z M310.667,574.75c-18.748,0-34-15.252-34-34s15.252-34,34-34
		c18.748,0,34,15.252,34,34S329.415,574.75,310.667,574.75z"/>
	<path clip-path="url(#SVGID_2_)" fill="none" stroke="#000000" stroke-miterlimit="10" d="M231,528.386
		c-6.817,0-12.364,5.547-12.364,12.364c0,6.818,5.547,12.364,12.364,12.364c6.817,0,12.364-5.546,12.364-12.364
		C243.364,533.933,237.817,528.386,231,528.386z M231,574.75c-18.748,0-34-15.252-34-34s15.252-34,34-34s34,15.252,34,34
		S249.748,574.75,231,574.75z"/>
	<path clip-path="url(#SVGID_2_)" fill="none" stroke="#000000" stroke-miterlimit="10" d="M70,528.386
		c-6.817,0-12.364,5.547-12.364,12.364c0,6.818,5.547,12.364,12.364,12.364s12.364-5.546,12.364-12.364
		C82.364,533.933,76.817,528.386,70,528.386z M70,574.75c-18.748,0-34-15.252-34-34s15.252-34,34-34s34,15.252,34,34
		S88.748,574.75,70,574.75z"/>
	<path clip-path="url(#SVGID_2_)" fill="none" stroke="#000000" stroke-miterlimit="10" d="M954,528.386
		c-6.817,0-12.364,5.547-12.364,12.364c0,6.818,5.547,12.364,12.364,12.364c6.817,0,12.364-5.546,12.364-12.364
		C966.364,533.933,960.817,528.386,954,528.386z M954,574.75c-18.748,0-34-15.252-34-34s15.252-34,34-34c18.748,0,34,15.252,34,34
		S972.748,574.75,954,574.75z"/>
	<path clip-path="url(#SVGID_2_)" fill="none" stroke="#000000" stroke-miterlimit="10" d="M150.5,606.761
		c-6.817,0-12.364,5.547-12.364,12.364c0,6.818,5.547,12.364,12.364,12.364c6.817,0,12.364-5.546,12.364-12.364
		C162.864,612.308,157.317,606.761,150.5,606.761z M150.5,653.125c-18.748,0-34-15.252-34-34s15.252-34,34-34s34,15.252,34,34
		S169.248,653.125,150.5,653.125z"/>
	<path clip-path="url(#SVGID_2_)" fill="none" stroke="#000000" stroke-miterlimit="10" d="M391,606.761
		c-6.817,0-12.364,5.547-12.364,12.364c0,6.818,5.547,12.364,12.364,12.364c6.817,0,12.364-5.546,12.364-12.364
		C403.364,612.308,397.817,606.761,391,606.761z M391,653.125c-18.748,0-34-15.252-34-34s15.252-34,34-34c18.748,0,34,15.252,34,34
		S409.748,653.125,391,653.125z"/>
	<path clip-path="url(#SVGID_2_)" fill="none" stroke="#000000" stroke-miterlimit="10" d="M632.667,606.761
		c-6.817,0-12.364,5.547-12.364,12.364c0,6.818,5.547,12.364,12.364,12.364c6.817,0,12.364-5.546,12.364-12.364
		C645.031,612.308,639.484,606.761,632.667,606.761z M632.667,653.125c-18.748,0-34-15.252-34-34s15.252-34,34-34
		c18.748,0,34,15.252,34,34S651.415,653.125,632.667,653.125z"/>
	<path clip-path="url(#SVGID_2_)" fill="none" stroke="#000000" stroke-miterlimit="10" d="M873.667,606.761
		c-6.817,0-12.364,5.547-12.364,12.364c0,6.818,5.547,12.364,12.364,12.364c6.817,0,12.364-5.546,12.364-12.364
		C886.031,612.308,880.484,606.761,873.667,606.761z M873.667,653.125c-18.748,0-34-15.252-34-34s15.252-34,34-34
		c18.748,0,34,15.252,34,34S892.415,653.125,873.667,653.125z"/>
	<path clip-path="url(#SVGID_2_)" fill="none" stroke="#000000" stroke-miterlimit="10" d="M793.333,606.761
		c-6.817,0-12.364,5.547-12.364,12.364c0,6.818,5.547,12.364,12.364,12.364c6.817,0,12.364-5.546,12.364-12.364
		C805.697,612.308,800.15,606.761,793.333,606.761z M793.333,653.125c-18.748,0-34-15.252-34-34s15.252-34,34-34
		c18.748,0,34,15.252,34,34S812.081,653.125,793.333,653.125z"/>
	<path clip-path="url(#SVGID_2_)" fill="none" stroke="#000000" stroke-miterlimit="10" d="M713,606.761
		c-6.817,0-12.364,5.547-12.364,12.364c0,6.818,5.547,12.364,12.364,12.364c6.817,0,12.364-5.546,12.364-12.364
		C725.364,612.308,719.817,606.761,713,606.761z M713,653.125c-18.748,0-34-15.252-34-34s15.252-34,34-34c18.748,0,34,15.252,34,34
		S731.748,653.125,713,653.125z"/>
	<path clip-path="url(#SVGID_2_)" fill="none" stroke="#000000" stroke-miterlimit="10" d="M552.333,606.761
		c-6.817,0-12.364,5.547-12.364,12.364c0,6.818,5.547,12.364,12.364,12.364c6.817,0,12.364-5.546,12.364-12.364
		C564.697,612.308,559.15,606.761,552.333,606.761z M552.333,653.125c-18.748,0-34-15.252-34-34s15.252-34,34-34
		c18.748,0,34,15.252,34,34S571.081,653.125,552.333,653.125z"/>
	<path clip-path="url(#SVGID_2_)" fill="none" stroke="#000000" stroke-miterlimit="10" d="M471.333,606.761
		c-6.817,0-12.364,5.547-12.364,12.364c0,6.818,5.547,12.364,12.364,12.364c6.817,0,12.364-5.546,12.364-12.364
		C483.697,612.308,478.15,606.761,471.333,606.761z M471.333,653.125c-18.748,0-34-15.252-34-34s15.252-34,34-34
		c18.748,0,34,15.252,34,34S490.081,653.125,471.333,653.125z"/>
	<path clip-path="url(#SVGID_2_)" fill="none" stroke="#000000" stroke-miterlimit="10" d="M310.667,606.761
		c-6.817,0-12.364,5.547-12.364,12.364c0,6.818,5.547,12.364,12.364,12.364c6.817,0,12.364-5.546,12.364-12.364
		C323.031,612.308,317.484,606.761,310.667,606.761z M310.667,653.125c-18.748,0-34-15.252-34-34s15.252-34,34-34
		c18.748,0,34,15.252,34,34S329.415,653.125,310.667,653.125z"/>
	<path clip-path="url(#SVGID_2_)" fill="none" stroke="#000000" stroke-miterlimit="10" d="M231,606.761
		c-6.817,0-12.364,5.547-12.364,12.364c0,6.818,5.547,12.364,12.364,12.364c6.817,0,12.364-5.546,12.364-12.364
		C243.364,612.308,237.817,606.761,231,606.761z M231,653.125c-18.748,0-34-15.252-34-34s15.252-34,34-34s34,15.252,34,34
		S249.748,653.125,231,653.125z"/>
	<path clip-path="url(#SVGID_2_)" fill="none" stroke="#000000" stroke-miterlimit="10" d="M70,606.761
		c-6.817,0-12.364,5.547-12.364,12.364c0,6.818,5.547,12.364,12.364,12.364s12.364-5.546,12.364-12.364
		C82.364,612.308,76.817,606.761,70,606.761z M70,653.125c-18.748,0-34-15.252-34-34s15.252-34,34-34s34,15.252,34,34
		S88.748,653.125,70,653.125z"/>
	<path clip-path="url(#SVGID_2_)" fill="none" stroke="#000000" stroke-miterlimit="10" d="M954,606.761
		c-6.817,0-12.364,5.547-12.364,12.364c0,6.818,5.547,12.364,12.364,12.364c6.817,0,12.364-5.546,12.364-12.364
		C966.364,612.308,960.817,606.761,954,606.761z M954,653.125c-18.748,0-34-15.252-34-34s15.252-34,34-34c18.748,0,34,15.252,34,34
		S972.748,653.125,954,653.125z"/>
	<path clip-path="url(#SVGID_2_)" fill="none" stroke="#000000" stroke-miterlimit="10" d="M150.5,685.136
		c-6.817,0-12.364,5.547-12.364,12.364c0,6.818,5.547,12.364,12.364,12.364c6.817,0,12.364-5.546,12.364-12.364
		C162.864,690.683,157.317,685.136,150.5,685.136z M150.5,731.5c-18.748,0-34-15.252-34-34s15.252-34,34-34s34,15.252,34,34
		S169.248,731.5,150.5,731.5z"/>
	<path clip-path="url(#SVGID_2_)" fill="none" stroke="#000000" stroke-miterlimit="10" d="M391,685.136
		c-6.817,0-12.364,5.547-12.364,12.364c0,6.818,5.547,12.364,12.364,12.364c6.817,0,12.364-5.546,12.364-12.364
		C403.364,690.683,397.817,685.136,391,685.136z M391,731.5c-18.748,0-34-15.252-34-34s15.252-34,34-34c18.748,0,34,15.252,34,34
		S409.748,731.5,391,731.5z"/>
	<path clip-path="url(#SVGID_2_)" fill="none" stroke="#000000" stroke-miterlimit="10" d="M632.667,685.136
		c-6.817,0-12.364,5.547-12.364,12.364c0,6.818,5.547,12.364,12.364,12.364c6.817,0,12.364-5.546,12.364-12.364
		C645.031,690.683,639.484,685.136,632.667,685.136z M632.667,731.5c-18.748,0-34-15.252-34-34s15.252-34,34-34
		c18.748,0,34,15.252,34,34S651.415,731.5,632.667,731.5z"/>
	<path clip-path="url(#SVGID_2_)" fill="none" stroke="#000000" stroke-miterlimit="10" d="M873.667,685.136
		c-6.817,0-12.364,5.547-12.364,12.364c0,6.818,5.547,12.364,12.364,12.364c6.817,0,12.364-5.546,12.364-12.364
		C886.031,690.683,880.484,685.136,873.667,685.136z M873.667,731.5c-18.748,0-34-15.252-34-34s15.252-34,34-34
		c18.748,0,34,15.252,34,34S892.415,731.5,873.667,731.5z"/>
	<path clip-path="url(#SVGID_2_)" fill="none" stroke="#000000" stroke-miterlimit="10" d="M793.333,685.136
		c-6.817,0-12.364,5.547-12.364,12.364c0,6.818,5.547,12.364,12.364,12.364c6.817,0,12.364-5.546,12.364-12.364
		C805.697,690.683,800.15,685.136,793.333,685.136z M793.333,731.5c-18.748,0-34-15.252-34-34s15.252-34,34-34
		c18.748,0,34,15.252,34,34S812.081,731.5,793.333,731.5z"/>
	<path clip-path="url(#SVGID_2_)" fill="none" stroke="#000000" stroke-miterlimit="10" d="M713,685.136
		c-6.817,0-12.364,5.547-12.364,12.364c0,6.818,5.547,12.364,12.364,12.364c6.817,0,12.364-5.546,12.364-12.364
		C725.364,690.683,719.817,685.136,713,685.136z M713,731.5c-18.748,0-34-15.252-34-34s15.252-34,34-34c18.748,0,34,15.252,34,34
		S731.748,731.5,713,731.5z"/>
	<path clip-path="url(#SVGID_2_)" fill="none" stroke="#000000" stroke-miterlimit="10" d="M552.333,685.136
		c-6.817,0-12.364,5.547-12.364,12.364c0,6.818,5.547,12.364,12.364,12.364c6.817,0,12.364-5.546,12.364-12.364
		C564.697,690.683,559.15,685.136,552.333,685.136z M552.333,731.5c-18.748,0-34-15.252-34-34s15.252-34,34-34
		c18.748,0,34,15.252,34,34S571.081,731.5,552.333,731.5z"/>
	<path clip-path="url(#SVGID_2_)" fill="none" stroke="#000000" stroke-miterlimit="10" d="M471.333,685.136
		c-6.817,0-12.364,5.547-12.364,12.364c0,6.818,5.547,12.364,12.364,12.364c6.817,0,12.364-5.546,12.364-12.364
		C483.697,690.683,478.15,685.136,471.333,685.136z M471.333,731.5c-18.748,0-34-15.252-34-34s15.252-34,34-34
		c18.748,0,34,15.252,34,34S490.081,731.5,471.333,731.5z"/>
	<path clip-path="url(#SVGID_2_)" fill="none" stroke="#000000" stroke-miterlimit="10" d="M310.667,685.136
		c-6.817,0-12.364,5.547-12.364,12.364c0,6.818,5.547,12.364,12.364,12.364c6.817,0,12.364-5.546,12.364-12.364
		C323.031,690.683,317.484,685.136,310.667,685.136z M310.667,731.5c-18.748,0-34-15.252-34-34s15.252-34,34-34
		c18.748,0,34,15.252,34,34S329.415,731.5,310.667,731.5z"/>
	<path clip-path="url(#SVGID_2_)" fill="none" stroke="#000000" stroke-miterlimit="10" d="M231,685.136
		c-6.817,0-12.364,5.547-12.364,12.364c0,6.818,5.547,12.364,12.364,12.364c6.817,0,12.364-5.546,12.364-12.364
		C243.364,690.683,237.817,685.136,231,685.136z M231,731.5c-18.748,0-34-15.252-34-34s15.252-34,34-34s34,15.252,34,34
		S249.748,731.5,231,731.5z"/>
	<path clip-path="url(#SVGID_2_)" fill="none" stroke="#000000" stroke-miterlimit="10" d="M70,685.136
		c-6.817,0-12.364,5.547-12.364,12.364c0,6.818,5.547,12.364,12.364,12.364s12.364-5.546,12.364-12.364
		C82.364,690.683,76.817,685.136,70,685.136z M70,731.5c-18.748,0-34-15.252-34-34s15.252-34,34-34s34,15.252,34,34
		S88.748,731.5,70,731.5z"/>
	<path clip-path="url(#SVGID_2_)" fill="none" stroke="#000000" stroke-miterlimit="10" d="M954,685.136
		c-6.817,0-12.364,5.547-12.364,12.364c0,6.818,5.547,12.364,12.364,12.364c6.817,0,12.364-5.546,12.364-12.364
		C966.364,690.683,960.817,685.136,954,685.136z M954,731.5c-18.748,0-34-15.252-34-34s15.252-34,34-34c18.748,0,34,15.252,34,34
		S972.748,731.5,954,731.5z"/>
</g>
</svg>
