<?xml version="1.0" encoding="utf-8"?>
<!-- Generator: Adobe Illustrator 17.0.0, SVG Export Plug-In . SVG Version: 6.00 Build 0)  -->
<!DOCTYPE svg PUBLIC "-//W3C//DTD SVG 1.1//EN" "http://www.w3.org/Graphics/SVG/1.1/DTD/svg11.dtd">
<svg version="1.1" xmlns="http://www.w3.org/2000/svg" xmlns:xlink="http://www.w3.org/1999/xlink" x="0px" y="0px" width="1024px"
	 height="768px" viewBox="0 0 1024 768" enable-background="new 0 0 1024 768" xml:space="preserve">
<g id="Layer_1">
	<rect x="285.827" y="203.538" opacity="0.1" fill="#231F20" width="58.5" height="484.462"/>
	<rect x="364.596" y="203.538" opacity="0.1" fill="#231F20" width="58.5" height="484.462"/>
	<rect x="443.365" y="203.538" opacity="0.1" fill="#231F20" width="58.5" height="484.462"/>
	<rect x="522.135" y="203.538" opacity="0.1" fill="#231F20" width="58.5" height="484.462"/>
	<rect x="600.904" y="203.538" opacity="0.1" fill="#231F20" width="58.5" height="484.462"/>
	<rect x="679.673" y="203.538" opacity="0.1" fill="#231F20" width="58.5" height="484.462"/>
	<rect x="758.442" y="203.538" opacity="0.1" fill="#231F20" width="58.5" height="484.462"/>
	<rect x="837.212" y="203.538" opacity="0.1" fill="#231F20" width="58.5" height="484.462"/>
	<rect x="915.981" y="203.538" opacity="0.1" fill="#231F20" width="58.5" height="484.462"/>
	<rect x="285.827" y="46" opacity="0.1" fill="#231F20" width="738.173" height="131"/>
	<rect opacity="0.1" fill="#231F20" width="267" height="267"/>
	<rect x="285.827" y="713" opacity="0.1" fill="#231F20" width="688.654" height="25.538"/>
	<rect x="49.5" y="290" opacity="0.1" fill="#231F20" width="58.5" height="478"/>
	<rect x="128.288" y="290" opacity="0.1" fill="#231F20" width="58.5" height="478"/>
	<rect x="207.058" y="290" opacity="0.1" fill="#231F20" width="59.942" height="478"/>
	<rect x="49.5" y="290" opacity="0.1" fill="#231F20" width="217.5" height="478"/>
	<rect x="285.827" y="203.538" opacity="0.1" fill="#231F20" width="216.038" height="484.462"/>
	<rect x="522.135" y="203.538" opacity="0.1" fill="#231F20" width="216.038" height="484.462"/>
	<rect x="758.442" y="203.538" opacity="0.1" fill="#231F20" width="216.039" height="484.462"/>
	<rect x="285.827" y="203.538" opacity="0.1" fill="#231F20" width="688.654" height="484.462"/>
</g>
<g id="Layer_2">
	<rect x="49.5" y="290" opacity="0.1" fill="#231F20" width="217.5" height="478"/>
</g>
</svg>
