<?xml version="1.0" encoding="utf-8"?>
<!-- Generator: Adobe Illustrator 17.0.0, SVG Export Plug-In . SVG Version: 6.00 Build 0)  -->
<!DOCTYPE svg PUBLIC "-//W3C//DTD SVG 1.1//EN" "http://www.w3.org/Graphics/SVG/1.1/DTD/svg11.dtd">
<svg version="1.1" id="Layer_1" xmlns="http://www.w3.org/2000/svg" xmlns:xlink="http://www.w3.org/1999/xlink" x="0px" y="0px"
	 width="1024px" height="768px" viewBox="0 0 1024 768" enable-background="new 0 0 1024 768" xml:space="preserve">
<g>
	<defs>
		<rect id="SVGID_1_" x="-113.333" y="39.5" width="1250.667" height="689"/>
	</defs>
	<clipPath id="SVGID_2_">
		<use xlink:href="#SVGID_1_"  overflow="visible"/>
	</clipPath>
	<path clip-path="url(#SVGID_2_)" fill="none" stroke="#000000" stroke-miterlimit="10" d="M110.333,87.091
		c-14.804,0-26.848,12.071-26.848,26.909c0,14.838,12.044,26.909,26.848,26.909c14.804,0,26.848-12.071,26.848-26.909
		C137.181,99.162,125.137,87.091,110.333,87.091z M110.333,188C69.621,188,36.5,154.804,36.5,114c0-40.804,33.121-74,73.833-74
		s73.833,33.196,73.833,74C184.166,154.804,151.045,188,110.333,188z"/>
	<path clip-path="url(#SVGID_2_)" fill="none" stroke="#000000" stroke-miterlimit="10" d="M351.333,87.091
		c-14.804,0-26.848,12.071-26.848,26.909c0,14.838,12.044,26.909,26.848,26.909c14.804,0,26.849-12.071,26.849-26.909
		C378.182,99.162,366.137,87.091,351.333,87.091z M351.333,188c-40.712,0-73.833-33.196-73.833-74c0-40.804,33.121-74,73.833-74
		s73.833,33.196,73.833,74C425.166,154.804,392.045,188,351.333,188z"/>
	<path clip-path="url(#SVGID_2_)" fill="none" stroke="#000000" stroke-miterlimit="10" d="M592.333,87.091
		c-14.804,0-26.848,12.071-26.848,26.909c0,14.838,12.044,26.909,26.848,26.909c14.804,0,26.849-12.071,26.849-26.909
		C619.182,99.162,607.137,87.091,592.333,87.091z M592.333,188c-40.712,0-73.833-33.196-73.833-74c0-40.804,33.121-74,73.833-74
		c40.712,0,73.833,33.196,73.833,74C666.166,154.804,633.045,188,592.333,188z"/>
	<path clip-path="url(#SVGID_2_)" fill="none" stroke="#000000" stroke-miterlimit="10" d="M833.333,87.091
		c-14.804,0-26.848,12.071-26.848,26.909c0,14.838,12.044,26.909,26.848,26.909c14.804,0,26.849-12.071,26.849-26.909
		C860.182,99.162,848.137,87.091,833.333,87.091z M833.333,188c-40.712,0-73.833-33.196-73.833-74c0-40.804,33.121-74,73.833-74
		c40.712,0,73.833,33.196,73.833,74C907.166,154.804,874.045,188,833.333,188z"/>
	<path clip-path="url(#SVGID_2_)" fill="none" stroke="#000000" stroke-miterlimit="10" d="M1062.333,87.091
		c-14.804,0-26.849,12.071-26.849,26.909c0,14.838,12.045,26.909,26.849,26.909c14.804,0,26.849-12.071,26.849-26.909
		C1089.182,99.162,1077.137,87.091,1062.333,87.091z M1062.333,188c-40.712,0-73.833-33.196-73.833-74c0-40.804,33.121-74,73.833-74
		c40.712,0,73.833,33.196,73.833,74C1136.166,154.804,1103.045,188,1062.333,188z"/>
	<path clip-path="url(#SVGID_2_)" fill="none" stroke="#000000" stroke-miterlimit="10" d="M150.833,213.636
		c-6.817,0-12.364,5.547-12.364,12.364c0,6.818,5.547,12.364,12.364,12.364c6.817,0,12.364-5.546,12.364-12.364
		C163.197,219.183,157.65,213.636,150.833,213.636z M150.833,260c-18.748,0-34-15.252-34-34c0-18.748,15.252-34,34-34
		s34,15.252,34,34C184.833,244.748,169.581,260,150.833,260z"/>
	<path clip-path="url(#SVGID_2_)" fill="none" stroke="#000000" stroke-miterlimit="10" d="M391.833,213.636
		c-6.817,0-12.364,5.547-12.364,12.364c0,6.818,5.547,12.364,12.364,12.364c6.817,0,12.364-5.546,12.364-12.364
		C404.197,219.183,398.65,213.636,391.833,213.636z M391.833,260c-18.748,0-34-15.252-34-34c0-18.748,15.252-34,34-34
		c18.748,0,34,15.252,34,34C425.833,244.748,410.581,260,391.833,260z"/>
	<path clip-path="url(#SVGID_2_)" fill="none" stroke="#000000" stroke-miterlimit="10" d="M632.167,213.636
		c-6.817,0-12.364,5.547-12.364,12.364c0,6.818,5.547,12.364,12.364,12.364c6.817,0,12.364-5.546,12.364-12.364
		C644.53,219.183,638.983,213.636,632.167,213.636z M632.167,260c-18.748,0-34-15.252-34-34c0-18.748,15.252-34,34-34
		c18.748,0,34,15.252,34,34C666.167,244.748,650.914,260,632.167,260z"/>
	<path clip-path="url(#SVGID_2_)" fill="none" stroke="#000000" stroke-miterlimit="10" d="M873.833,213.636
		c-6.817,0-12.364,5.547-12.364,12.364c0,6.818,5.547,12.364,12.364,12.364c6.817,0,12.364-5.546,12.364-12.364
		C886.197,219.183,880.65,213.636,873.833,213.636z M873.833,260c-18.748,0-34-15.252-34-34c0-18.748,15.252-34,34-34
		c18.748,0,34,15.252,34,34C907.833,244.748,892.581,260,873.833,260z"/>
	<path clip-path="url(#SVGID_2_)" fill="none" stroke="#000000" stroke-miterlimit="10" d="M70.5,213.636
		c-6.817,0-12.364,5.547-12.364,12.364c0,6.818,5.547,12.364,12.364,12.364c6.817,0,12.364-5.546,12.364-12.364
		C82.864,219.183,77.317,213.636,70.5,213.636z M70.5,260c-18.748,0-34-15.252-34-34c0-18.748,15.252-34,34-34s34,15.252,34,34
		C104.5,244.748,89.248,260,70.5,260z"/>
	<path clip-path="url(#SVGID_2_)" fill="none" stroke="#000000" stroke-miterlimit="10" d="M311.5,213.636
		c-6.817,0-12.364,5.547-12.364,12.364c0,6.818,5.547,12.364,12.364,12.364c6.817,0,12.364-5.546,12.364-12.364
		C323.864,219.183,318.317,213.636,311.5,213.636z M311.5,260c-18.748,0-34-15.252-34-34c0-18.748,15.252-34,34-34
		c18.748,0,34,15.252,34,34C345.5,244.748,330.248,260,311.5,260z"/>
	<path clip-path="url(#SVGID_2_)" fill="none" stroke="#000000" stroke-miterlimit="10" d="M551.833,213.636
		c-6.817,0-12.364,5.547-12.364,12.364c0,6.818,5.547,12.364,12.364,12.364c6.817,0,12.364-5.546,12.364-12.364
		C564.197,219.183,558.65,213.636,551.833,213.636z M551.833,260c-18.748,0-34-15.252-34-34c0-18.748,15.252-34,34-34
		c18.748,0,34,15.252,34,34C585.833,244.748,570.581,260,551.833,260z"/>
	<path clip-path="url(#SVGID_2_)" fill="none" stroke="#000000" stroke-miterlimit="10" d="M793.5,213.636
		c-6.817,0-12.364,5.547-12.364,12.364c0,6.818,5.547,12.364,12.364,12.364c6.817,0,12.364-5.546,12.364-12.364
		C805.864,219.183,800.317,213.636,793.5,213.636z M793.5,260c-18.748,0-34-15.252-34-34c0-18.748,15.252-34,34-34
		c18.748,0,34,15.252,34,34C827.5,244.748,812.248,260,793.5,260z"/>
	<path clip-path="url(#SVGID_2_)" fill="none" stroke="#000000" stroke-miterlimit="10" d="M1022.5,213.636
		c-6.817,0-12.364,5.547-12.364,12.364c0,6.818,5.547,12.364,12.364,12.364c6.817,0,12.364-5.546,12.364-12.364
		C1034.864,219.183,1029.317,213.636,1022.5,213.636z M1022.5,260c-18.748,0-34-15.252-34-34c0-18.748,15.252-34,34-34
		c18.748,0,34,15.252,34,34C1056.5,244.748,1041.248,260,1022.5,260z"/>
	<path clip-path="url(#SVGID_2_)" fill="none" stroke="#000000" stroke-miterlimit="10" d="M271,555.091
		c-14.804,0-26.849,12.071-26.849,26.909s12.045,26.909,26.849,26.909c14.804,0,26.848-12.071,26.848-26.909
		S285.804,555.091,271,555.091z M271,656c-40.712,0-73.833-33.196-73.833-74s33.121-74,73.833-74s73.833,33.196,73.833,74
		S311.712,656,271,656z"/>
	<path clip-path="url(#SVGID_2_)" fill="none" stroke="#000000" stroke-miterlimit="10" d="M30,555.091
		c-14.804,0-26.848,12.071-26.848,26.909S15.196,608.909,30,608.909c14.804,0,26.848-12.071,26.848-26.909
		S44.804,555.091,30,555.091z M30,656c-40.712,0-73.833-33.196-73.833-74S-10.712,508,30,508s73.833,33.196,73.833,74
		S70.712,656,30,656z"/>
	<path clip-path="url(#SVGID_2_)" fill="none" stroke="#000000" stroke-miterlimit="10" d="M190.666,313.591
		c-14.804,0-26.848,12.071-26.848,26.909c0,14.838,12.044,26.909,26.848,26.909c14.804,0,26.849-12.071,26.849-26.909
		C217.515,325.662,205.47,313.591,190.666,313.591z M190.666,414.5c-40.712,0-73.833-33.196-73.833-74s33.121-74,73.833-74
		s73.833,33.196,73.833,74S231.378,414.5,190.666,414.5z"/>
	<path clip-path="url(#SVGID_2_)" fill="none" stroke="#000000" stroke-miterlimit="10" d="M-39,313.591
		c-14.804,0-26.848,12.071-26.848,26.909c0,14.838,12.044,26.909,26.848,26.909s26.848-12.071,26.848-26.909
		C-12.152,325.662-24.196,313.591-39,313.591z M-39,414.5c-40.712,0-73.833-33.196-73.833-74s33.121-74,73.833-74
		s73.833,33.196,73.833,74S1.712,414.5-39,414.5z"/>
	<path clip-path="url(#SVGID_2_)" fill="none" stroke="#000000" stroke-miterlimit="10" d="M512,555.091
		c-14.804,0-26.848,12.071-26.848,26.909s12.044,26.909,26.848,26.909c14.804,0,26.849-12.071,26.849-26.909
		S526.804,555.091,512,555.091z M512,656c-40.712,0-73.833-33.196-73.833-74s33.121-74,73.833-74c40.712,0,73.833,33.196,73.833,74
		S552.712,656,512,656z"/>
	<path clip-path="url(#SVGID_2_)" fill="none" stroke="#000000" stroke-miterlimit="10" d="M431.667,313.591
		c-14.804,0-26.849,12.071-26.849,26.909c0,14.838,12.045,26.909,26.849,26.909c14.804,0,26.849-12.071,26.849-26.909
		C458.516,325.662,446.47,313.591,431.667,313.591z M431.667,414.5c-40.712,0-73.833-33.196-73.833-74s33.121-74,73.833-74
		s73.833,33.196,73.833,74S472.378,414.5,431.667,414.5z"/>
	<path clip-path="url(#SVGID_2_)" fill="none" stroke="#000000" stroke-miterlimit="10" d="M752.152,555.091
		c-14.804,0-26.848,12.071-26.848,26.909s12.044,26.909,26.848,26.909c14.804,0,26.849-12.071,26.849-26.909
		S766.956,555.091,752.152,555.091z M752.152,656c-40.712,0-73.833-33.196-73.833-74s33.121-74,73.833-74
		c40.712,0,73.833,33.196,73.833,74S792.864,656,752.152,656z"/>
	<path clip-path="url(#SVGID_2_)" fill="none" stroke="#000000" stroke-miterlimit="10" d="M671.819,313.591
		c-14.804,0-26.848,12.071-26.848,26.909c0,14.838,12.044,26.909,26.848,26.909c14.804,0,26.849-12.071,26.849-26.909
		C698.668,325.662,686.623,313.591,671.819,313.591z M671.819,414.5c-40.712,0-73.833-33.196-73.833-74s33.121-74,73.833-74
		c40.712,0,73.833,33.196,73.833,74S712.531,414.5,671.819,414.5z"/>
	<path clip-path="url(#SVGID_2_)" fill="none" stroke="#000000" stroke-miterlimit="10" d="M993.909,555.091
		c-14.804,0-26.849,12.071-26.849,26.909s12.045,26.909,26.849,26.909c14.804,0,26.849-12.071,26.849-26.909
		S1008.713,555.091,993.909,555.091z M993.909,656c-40.712,0-73.833-33.196-73.833-74s33.121-74,73.833-74
		c40.712,0,73.833,33.196,73.833,74S1034.621,656,993.909,656z"/>
	<path clip-path="url(#SVGID_2_)" fill="none" stroke="#000000" stroke-miterlimit="10" d="M913.576,313.591
		c-14.804,0-26.849,12.071-26.849,26.909c0,14.838,12.045,26.909,26.849,26.909c14.804,0,26.848-12.071,26.848-26.909
		C940.424,325.662,928.38,313.591,913.576,313.591z M913.576,414.5c-40.712,0-73.833-33.196-73.833-74s33.121-74,73.833-74
		c40.712,0,73.833,33.196,73.833,74S954.288,414.5,913.576,414.5z"/>
	<path clip-path="url(#SVGID_2_)" fill="none" stroke="#000000" stroke-miterlimit="10" d="M311.5,681.636
		c-6.817,0-12.364,5.547-12.364,12.364c0,6.818,5.547,12.364,12.364,12.364c6.817,0,12.364-5.546,12.364-12.364
		C323.864,687.183,318.317,681.636,311.5,681.636z M311.5,728c-18.748,0-34-15.252-34-34s15.252-34,34-34c18.748,0,34,15.252,34,34
		S330.248,728,311.5,728z"/>
	<path clip-path="url(#SVGID_2_)" fill="none" stroke="#000000" stroke-miterlimit="10" d="M70.5,681.636
		c-6.817,0-12.364,5.547-12.364,12.364c0,6.818,5.547,12.364,12.364,12.364c6.817,0,12.364-5.546,12.364-12.364
		C82.864,687.183,77.317,681.636,70.5,681.636z M70.5,728c-18.748,0-34-15.252-34-34s15.252-34,34-34s34,15.252,34,34
		S89.248,728,70.5,728z"/>
	<path clip-path="url(#SVGID_2_)" fill="none" stroke="#000000" stroke-miterlimit="10" d="M231.167,440.136
		c-6.817,0-12.364,5.547-12.364,12.364c0,6.818,5.547,12.364,12.364,12.364c6.817,0,12.364-5.546,12.364-12.364
		C243.53,445.683,237.983,440.136,231.167,440.136z M231.167,486.5c-18.748,0-34-15.252-34-34c0-18.748,15.252-34,34-34
		c18.748,0,34,15.252,34,34C265.167,471.248,249.914,486.5,231.167,486.5z"/>
	<path clip-path="url(#SVGID_2_)" fill="none" stroke="#000000" stroke-miterlimit="10" d="M1.5,440.136
		c-6.817,0-12.364,5.547-12.364,12.364c0,6.818,5.547,12.364,12.364,12.364c6.817,0,12.364-5.546,12.364-12.364
		C13.864,445.683,8.317,440.136,1.5,440.136z M1.5,486.5c-18.748,0-34-15.252-34-34c0-18.748,15.252-34,34-34s34,15.252,34,34
		C35.5,471.248,20.248,486.5,1.5,486.5z"/>
	<path clip-path="url(#SVGID_2_)" fill="none" stroke="#000000" stroke-miterlimit="10" d="M552.5,681.636
		c-6.817,0-12.364,5.547-12.364,12.364c0,6.818,5.547,12.364,12.364,12.364c6.817,0,12.364-5.546,12.364-12.364
		C564.864,687.183,559.317,681.636,552.5,681.636z M552.5,728c-18.748,0-34-15.252-34-34s15.252-34,34-34c18.748,0,34,15.252,34,34
		S571.248,728,552.5,728z"/>
	<path clip-path="url(#SVGID_2_)" fill="none" stroke="#000000" stroke-miterlimit="10" d="M472.167,440.136
		c-6.817,0-12.364,5.547-12.364,12.364c0,6.818,5.547,12.364,12.364,12.364c6.817,0,12.364-5.546,12.364-12.364
		C484.53,445.683,478.983,440.136,472.167,440.136z M472.167,486.5c-18.748,0-34-15.252-34-34c0-18.748,15.252-34,34-34
		c18.748,0,34,15.252,34,34C506.167,471.248,490.914,486.5,472.167,486.5z"/>
	<path clip-path="url(#SVGID_2_)" fill="none" stroke="#000000" stroke-miterlimit="10" d="M792.652,681.636
		c-6.817,0-12.364,5.547-12.364,12.364c0,6.818,5.547,12.364,12.364,12.364c6.817,0,12.364-5.546,12.364-12.364
		C805.016,687.183,799.469,681.636,792.652,681.636z M792.652,728c-18.748,0-34-15.252-34-34s15.252-34,34-34
		c18.748,0,34,15.252,34,34S811.4,728,792.652,728z"/>
	<path clip-path="url(#SVGID_2_)" fill="none" stroke="#000000" stroke-miterlimit="10" d="M712.319,440.136
		c-6.817,0-12.364,5.547-12.364,12.364c0,6.818,5.547,12.364,12.364,12.364c6.817,0,12.364-5.546,12.364-12.364
		C724.683,445.683,719.136,440.136,712.319,440.136z M712.319,486.5c-18.748,0-34-15.252-34-34c0-18.748,15.252-34,34-34
		c18.748,0,34,15.252,34,34C746.319,471.248,731.067,486.5,712.319,486.5z"/>
	<path clip-path="url(#SVGID_2_)" fill="none" stroke="#000000" stroke-miterlimit="10" d="M1034.409,681.636
		c-6.817,0-12.364,5.547-12.364,12.364c0,6.818,5.547,12.364,12.364,12.364c6.817,0,12.364-5.546,12.364-12.364
		C1046.773,687.183,1041.226,681.636,1034.409,681.636z M1034.409,728c-18.748,0-34-15.252-34-34s15.252-34,34-34
		c18.748,0,34,15.252,34,34S1053.157,728,1034.409,728z"/>
	<path clip-path="url(#SVGID_2_)" fill="none" stroke="#000000" stroke-miterlimit="10" d="M954.076,440.136
		c-6.817,0-12.364,5.547-12.364,12.364c0,6.818,5.547,12.364,12.364,12.364c6.817,0,12.364-5.546,12.364-12.364
		C966.44,445.683,960.893,440.136,954.076,440.136z M954.076,486.5c-18.748,0-34-15.252-34-34c0-18.748,15.252-34,34-34
		c18.748,0,34,15.252,34,34C988.076,471.248,972.824,486.5,954.076,486.5z"/>
	<path clip-path="url(#SVGID_2_)" fill="none" stroke="#000000" stroke-miterlimit="10" d="M231.167,681.636
		c-6.817,0-12.364,5.547-12.364,12.364c0,6.818,5.547,12.364,12.364,12.364c6.817,0,12.364-5.546,12.364-12.364
		C243.53,687.183,237.983,681.636,231.167,681.636z M231.167,728c-18.748,0-34-15.252-34-34s15.252-34,34-34
		c18.748,0,34,15.252,34,34S249.914,728,231.167,728z"/>
	<path clip-path="url(#SVGID_2_)" fill="none" stroke="#000000" stroke-miterlimit="10" d="M-9.833,681.636
		c-6.817,0-12.364,5.547-12.364,12.364c0,6.818,5.547,12.364,12.364,12.364c6.817,0,12.364-5.546,12.364-12.364
		C2.531,687.183-3.017,681.636-9.833,681.636z M-9.833,728c-18.748,0-34-15.252-34-34s15.252-34,34-34s34,15.252,34,34
		S8.914,728-9.833,728z"/>
	<path clip-path="url(#SVGID_2_)" fill="none" stroke="#000000" stroke-miterlimit="10" d="M150.833,440.136
		c-6.817,0-12.364,5.547-12.364,12.364c0,6.818,5.547,12.364,12.364,12.364c6.817,0,12.364-5.546,12.364-12.364
		C163.197,445.683,157.65,440.136,150.833,440.136z M150.833,486.5c-18.748,0-34-15.252-34-34c0-18.748,15.252-34,34-34
		s34,15.252,34,34C184.833,471.248,169.581,486.5,150.833,486.5z"/>
	<path clip-path="url(#SVGID_2_)" fill="none" stroke="#000000" stroke-miterlimit="10" d="M472.167,681.636
		c-6.817,0-12.364,5.547-12.364,12.364c0,6.818,5.547,12.364,12.364,12.364c6.817,0,12.364-5.546,12.364-12.364
		C484.53,687.183,478.983,681.636,472.167,681.636z M472.167,728c-18.748,0-34-15.252-34-34s15.252-34,34-34
		c18.748,0,34,15.252,34,34S490.914,728,472.167,728z"/>
	<path clip-path="url(#SVGID_2_)" fill="none" stroke="#000000" stroke-miterlimit="10" d="M391.833,440.136
		c-6.817,0-12.364,5.547-12.364,12.364c0,6.818,5.547,12.364,12.364,12.364c6.817,0,12.364-5.546,12.364-12.364
		C404.197,445.683,398.65,440.136,391.833,440.136z M391.833,486.5c-18.748,0-34-15.252-34-34c0-18.748,15.252-34,34-34
		c18.748,0,34,15.252,34,34C425.833,471.248,410.581,486.5,391.833,486.5z"/>
	<path clip-path="url(#SVGID_2_)" fill="none" stroke="#000000" stroke-miterlimit="10" d="M712.319,681.636
		c-6.817,0-12.364,5.547-12.364,12.364c0,6.818,5.547,12.364,12.364,12.364c6.817,0,12.364-5.546,12.364-12.364
		C724.683,687.183,719.136,681.636,712.319,681.636z M712.319,728c-18.748,0-34-15.252-34-34s15.252-34,34-34
		c18.748,0,34,15.252,34,34S731.067,728,712.319,728z"/>
	<path clip-path="url(#SVGID_2_)" fill="none" stroke="#000000" stroke-miterlimit="10" d="M631.985,440.136
		c-6.817,0-12.364,5.547-12.364,12.364c0,6.818,5.547,12.364,12.364,12.364c6.817,0,12.364-5.546,12.364-12.364
		C644.349,445.683,638.802,440.136,631.985,440.136z M631.985,486.5c-18.748,0-34-15.252-34-34c0-18.748,15.252-34,34-34
		c18.748,0,34,15.252,34,34C665.985,471.248,650.733,486.5,631.985,486.5z"/>
	<path clip-path="url(#SVGID_2_)" fill="none" stroke="#000000" stroke-miterlimit="10" d="M954.076,681.636
		c-6.817,0-12.364,5.547-12.364,12.364c0,6.818,5.547,12.364,12.364,12.364c6.817,0,12.364-5.546,12.364-12.364
		C966.44,687.183,960.893,681.636,954.076,681.636z M954.076,728c-18.748,0-34-15.252-34-34s15.252-34,34-34
		c18.748,0,34,15.252,34,34S972.824,728,954.076,728z"/>
	<path clip-path="url(#SVGID_2_)" fill="none" stroke="#000000" stroke-miterlimit="10" d="M873.742,440.136
		c-6.817,0-12.364,5.547-12.364,12.364c0,6.818,5.547,12.364,12.364,12.364c6.817,0,12.364-5.546,12.364-12.364
		C886.106,445.683,880.559,440.136,873.742,440.136z M873.742,486.5c-18.748,0-34-15.252-34-34c0-18.748,15.252-34,34-34
		c18.748,0,34,15.252,34,34C907.742,471.248,892.49,486.5,873.742,486.5z"/>
</g>
</svg>
