<?xml version="1.0" encoding="utf-8"?>
<!-- Generator: Adobe Illustrator 17.0.0, SVG Export Plug-In . SVG Version: 6.00 Build 0)  -->
<!DOCTYPE svg PUBLIC "-//W3C//DTD SVG 1.1//EN" "http://www.w3.org/Graphics/SVG/1.1/DTD/svg11.dtd">
<svg version="1.1" id="Layer_1" xmlns="http://www.w3.org/2000/svg" xmlns:xlink="http://www.w3.org/1999/xlink" x="0px" y="0px"
	 width="1024px" height="768px" viewBox="0 0 1024 768" enable-background="new 0 0 1024 768" xml:space="preserve">
<g>
	<defs>
		<rect id="SVGID_1_" x="35.5" y="34.5" width="953" height="699"/>
	</defs>
	<clipPath id="SVGID_2_">
		<use xlink:href="#SVGID_1_"  overflow="visible"/>
	</clipPath>
	<path clip-path="url(#SVGID_2_)" fill="none" stroke="#000000" stroke-miterlimit="10" d="M150.5,107.864
		c-22.959,0-41.636,18.678-41.636,41.636c0,22.959,18.677,41.636,41.636,41.636c22.958,0,41.636-18.677,41.636-41.636
		C192.136,126.542,173.458,107.864,150.5,107.864z M150.5,264C87.364,264,36,212.636,36,149.5S87.364,35,150.5,35
		S265,86.364,265,149.5S213.636,264,150.5,264z"/>
	<path clip-path="url(#SVGID_2_)" fill="none" stroke="#000000" stroke-miterlimit="10" d="M150.5,263.864
		c-22.959,0-41.636,18.677-41.636,41.636c0,22.959,18.677,41.636,41.636,41.636c22.958,0,41.636-18.677,41.636-41.636
		C192.136,282.541,173.458,263.864,150.5,263.864z M150.5,420C87.364,420,36,368.636,36,305.5S87.364,191,150.5,191
		S265,242.364,265,305.5S213.636,420,150.5,420z"/>
	<path clip-path="url(#SVGID_2_)" fill="none" stroke="#000000" stroke-miterlimit="10" d="M150.5,419.864
		c-22.959,0-41.636,18.677-41.636,41.636s18.677,41.636,41.636,41.636c22.958,0,41.636-18.677,41.636-41.636
		S173.458,419.864,150.5,419.864z M150.5,576C87.364,576,36,524.636,36,461.5S87.364,347,150.5,347S265,398.364,265,461.5
		S213.636,576,150.5,576z"/>
	<path clip-path="url(#SVGID_2_)" fill="none" stroke="#000000" stroke-miterlimit="10" d="M150.5,576.864
		c-22.959,0-41.636,18.677-41.636,41.636s18.677,41.636,41.636,41.636c22.958,0,41.636-18.677,41.636-41.636
		S173.458,576.864,150.5,576.864z M150.5,733C87.364,733,36,681.636,36,618.5S87.364,504,150.5,504S265,555.364,265,618.5
		S213.636,733,150.5,733z"/>
	<path clip-path="url(#SVGID_2_)" fill="none" stroke="#000000" stroke-miterlimit="10" d="M391.5,107.864
		c-22.958,0-41.636,18.678-41.636,41.636c0,22.959,18.678,41.636,41.636,41.636c22.958,0,41.636-18.677,41.636-41.636
		C433.136,126.542,414.458,107.864,391.5,107.864z M391.5,264C328.364,264,277,212.636,277,149.5S328.364,35,391.5,35
		S506,86.364,506,149.5S454.636,264,391.5,264z"/>
	<path clip-path="url(#SVGID_2_)" fill="none" stroke="#000000" stroke-miterlimit="10" d="M391.5,263.864
		c-22.958,0-41.636,18.677-41.636,41.636c0,22.959,18.678,41.636,41.636,41.636c22.958,0,41.636-18.677,41.636-41.636
		C433.136,282.541,414.458,263.864,391.5,263.864z M391.5,420C328.364,420,277,368.636,277,305.5S328.364,191,391.5,191
		S506,242.364,506,305.5S454.636,420,391.5,420z"/>
	<path clip-path="url(#SVGID_2_)" fill="none" stroke="#000000" stroke-miterlimit="10" d="M391.5,419.864
		c-22.958,0-41.636,18.677-41.636,41.636s18.678,41.636,41.636,41.636c22.958,0,41.636-18.677,41.636-41.636
		S414.458,419.864,391.5,419.864z M391.5,576C328.364,576,277,524.636,277,461.5S328.364,347,391.5,347S506,398.364,506,461.5
		S454.636,576,391.5,576z"/>
	<path clip-path="url(#SVGID_2_)" fill="none" stroke="#000000" stroke-miterlimit="10" d="M391.5,576.864
		c-22.958,0-41.636,18.677-41.636,41.636s18.678,41.636,41.636,41.636c22.958,0,41.636-18.677,41.636-41.636
		S414.458,576.864,391.5,576.864z M391.5,733C328.364,733,277,681.636,277,618.5S328.364,504,391.5,504S506,555.364,506,618.5
		S454.636,733,391.5,733z"/>
	<path clip-path="url(#SVGID_2_)" fill="none" stroke="#000000" stroke-miterlimit="10" d="M632.5,107.864
		c-22.958,0-41.636,18.678-41.636,41.636c0,22.959,18.678,41.636,41.636,41.636c22.958,0,41.636-18.677,41.636-41.636
		C674.136,126.542,655.458,107.864,632.5,107.864z M632.5,264C569.364,264,518,212.636,518,149.5S569.364,35,632.5,35
		S747,86.364,747,149.5S695.636,264,632.5,264z"/>
	<path clip-path="url(#SVGID_2_)" fill="none" stroke="#000000" stroke-miterlimit="10" d="M632.5,263.864
		c-22.958,0-41.636,18.677-41.636,41.636c0,22.959,18.678,41.636,41.636,41.636c22.958,0,41.636-18.677,41.636-41.636
		C674.136,282.541,655.458,263.864,632.5,263.864z M632.5,420C569.364,420,518,368.636,518,305.5S569.364,191,632.5,191
		S747,242.364,747,305.5S695.636,420,632.5,420z"/>
	<path clip-path="url(#SVGID_2_)" fill="none" stroke="#000000" stroke-miterlimit="10" d="M632.5,419.864
		c-22.958,0-41.636,18.677-41.636,41.636s18.678,41.636,41.636,41.636c22.958,0,41.636-18.677,41.636-41.636
		S655.458,419.864,632.5,419.864z M632.5,576C569.364,576,518,524.636,518,461.5S569.364,347,632.5,347S747,398.364,747,461.5
		S695.636,576,632.5,576z"/>
	<path clip-path="url(#SVGID_2_)" fill="none" stroke="#000000" stroke-miterlimit="10" d="M632.5,576.864
		c-22.958,0-41.636,18.677-41.636,41.636s18.678,41.636,41.636,41.636c22.958,0,41.636-18.677,41.636-41.636
		S655.458,576.864,632.5,576.864z M632.5,733C569.364,733,518,681.636,518,618.5S569.364,504,632.5,504S747,555.364,747,618.5
		S695.636,733,632.5,733z"/>
	<path clip-path="url(#SVGID_2_)" fill="none" stroke="#000000" stroke-miterlimit="10" d="M873.5,107.864
		c-22.958,0-41.636,18.678-41.636,41.636c0,22.959,18.678,41.636,41.636,41.636c22.958,0,41.636-18.677,41.636-41.636
		C915.136,126.542,896.458,107.864,873.5,107.864z M873.5,264C810.364,264,759,212.636,759,149.5S810.364,35,873.5,35
		S988,86.364,988,149.5S936.636,264,873.5,264z"/>
	<path clip-path="url(#SVGID_2_)" fill="none" stroke="#000000" stroke-miterlimit="10" d="M873.5,263.864
		c-22.958,0-41.636,18.677-41.636,41.636c0,22.959,18.678,41.636,41.636,41.636c22.958,0,41.636-18.677,41.636-41.636
		C915.136,282.541,896.458,263.864,873.5,263.864z M873.5,420C810.364,420,759,368.636,759,305.5S810.364,191,873.5,191
		S988,242.364,988,305.5S936.636,420,873.5,420z"/>
	<path clip-path="url(#SVGID_2_)" fill="none" stroke="#000000" stroke-miterlimit="10" d="M873.5,419.864
		c-22.958,0-41.636,18.677-41.636,41.636s18.678,41.636,41.636,41.636c22.958,0,41.636-18.677,41.636-41.636
		S896.458,419.864,873.5,419.864z M873.5,576C810.364,576,759,524.636,759,461.5S810.364,347,873.5,347S988,398.364,988,461.5
		S936.636,576,873.5,576z"/>
	<path clip-path="url(#SVGID_2_)" fill="none" stroke="#000000" stroke-miterlimit="10" d="M873.5,576.864
		c-22.958,0-41.636,18.677-41.636,41.636s18.678,41.636,41.636,41.636c22.958,0,41.636-18.677,41.636-41.636
		S896.458,576.864,873.5,576.864z M873.5,733C810.364,733,759,681.636,759,618.5S810.364,504,873.5,504S988,555.364,988,618.5
		S936.636,733,873.5,733z"/>
</g>
</svg>
