<?xml version="1.0" encoding="utf-8"?>
<!-- Generator: Adobe Illustrator 17.0.0, SVG Export Plug-In . SVG Version: 6.00 Build 0)  -->
<!DOCTYPE svg PUBLIC "-//W3C//DTD SVG 1.1//EN" "http://www.w3.org/Graphics/SVG/1.1/DTD/svg11.dtd">
<svg version="1.1" id="Layer_1" xmlns="http://www.w3.org/2000/svg" xmlns:xlink="http://www.w3.org/1999/xlink" x="0px" y="0px"
	 width="1024px" height="768px" viewBox="0 0 1024 768" enable-background="new 0 0 1024 768" xml:space="preserve">
<g>
	<defs>
		<rect id="SVGID_1_" x="36" y="32.002" width="952" height="808"/>
	</defs>
	<clipPath id="SVGID_2_">
		<use xlink:href="#SVGID_1_"  overflow="visible"/>
	</clipPath>
	<path clip-path="url(#SVGID_2_)" fill="none" stroke="#000000" stroke-miterlimit="10" d="M190.667,130.609
		c-30.912,0-56.061,25.148-56.061,56.06c0,30.913,25.149,56.061,56.061,56.061s56.061-25.148,56.061-56.061
		C246.728,155.757,221.579,130.609,190.667,130.609z M190.667,340.836c-85.008,0-154.167-69.159-154.167-154.167
		S105.659,32.503,190.667,32.503s154.167,69.158,154.167,154.166S275.675,340.836,190.667,340.836z"/>
	<path clip-path="url(#SVGID_2_)" fill="none" stroke="#000000" stroke-miterlimit="10" d="M126,380.093
		c-11.529,0-20.909,9.38-20.909,20.909c0,11.53,9.38,20.909,20.909,20.909c11.529,0,20.909-9.379,20.909-20.909
		C146.909,389.473,137.529,380.093,126,380.093z M126,458.502c-31.706,0-57.5-25.794-57.5-57.5s25.794-57.5,57.5-57.5
		s57.5,25.794,57.5,57.5S157.706,458.502,126,458.502z"/>
	<path clip-path="url(#SVGID_2_)" fill="none" stroke="#000000" stroke-miterlimit="10" d="M447.667,380.093
		c-11.529,0-20.909,9.38-20.909,20.909c0,11.53,9.38,20.909,20.909,20.909c11.529,0,20.909-9.379,20.909-20.909
		C468.576,389.473,459.196,380.093,447.667,380.093z M447.667,458.502c-31.706,0-57.5-25.794-57.5-57.5s25.794-57.5,57.5-57.5
		s57.5,25.794,57.5,57.5S479.373,458.502,447.667,458.502z"/>
	<path clip-path="url(#SVGID_2_)" fill="none" stroke="#000000" stroke-miterlimit="10" d="M769,380.093
		c-11.529,0-20.909,9.38-20.909,20.909c0,11.53,9.38,20.909,20.909,20.909c11.529,0,20.909-9.379,20.909-20.909
		C789.909,389.473,780.529,380.093,769,380.093z M769,458.502c-31.706,0-57.5-25.794-57.5-57.5s25.794-57.5,57.5-57.5
		c31.706,0,57.5,25.794,57.5,57.5S800.706,458.502,769,458.502z"/>
	<path clip-path="url(#SVGID_2_)" fill="none" stroke="#000000" stroke-miterlimit="10" d="M126,508.093
		c-11.529,0-20.909,9.38-20.909,20.909c0,11.53,9.38,20.909,20.909,20.909c11.529,0,20.909-9.379,20.909-20.909
		C146.909,517.474,137.529,508.093,126,508.093z M126,586.503c-31.706,0-57.5-25.794-57.5-57.5s25.794-57.5,57.5-57.5
		s57.5,25.794,57.5,57.5S157.706,586.503,126,586.503z"/>
	<path clip-path="url(#SVGID_2_)" fill="none" stroke="#000000" stroke-miterlimit="10" d="M447.667,508.093
		c-11.529,0-20.909,9.38-20.909,20.909c0,11.53,9.38,20.909,20.909,20.909c11.529,0,20.909-9.379,20.909-20.909
		C468.576,517.474,459.196,508.093,447.667,508.093z M447.667,586.503c-31.706,0-57.5-25.794-57.5-57.5s25.794-57.5,57.5-57.5
		s57.5,25.794,57.5,57.5S479.373,586.503,447.667,586.503z"/>
	<path clip-path="url(#SVGID_2_)" fill="none" stroke="#000000" stroke-miterlimit="10" d="M769,508.093
		c-11.529,0-20.909,9.38-20.909,20.909c0,11.53,9.38,20.909,20.909,20.909c11.529,0,20.909-9.379,20.909-20.909
		C789.909,517.474,780.529,508.093,769,508.093z M769,586.503c-31.706,0-57.5-25.794-57.5-57.5s25.794-57.5,57.5-57.5
		c31.706,0,57.5,25.794,57.5,57.5S800.706,586.503,769,586.503z"/>
	<path clip-path="url(#SVGID_2_)" fill="none" stroke="#000000" stroke-miterlimit="10" d="M126,635.094
		c-11.529,0-20.909,9.38-20.909,20.909c0,11.53,9.38,20.909,20.909,20.909c11.529,0,20.909-9.379,20.909-20.909
		C146.909,644.474,137.529,635.094,126,635.094z M126,713.503c-31.706,0-57.5-25.794-57.5-57.5s25.794-57.5,57.5-57.5
		s57.5,25.794,57.5,57.5S157.706,713.503,126,713.503z"/>
	<path clip-path="url(#SVGID_2_)" fill="none" stroke="#000000" stroke-miterlimit="10" d="M447.667,635.094
		c-11.529,0-20.909,9.38-20.909,20.909c0,11.53,9.38,20.909,20.909,20.909c11.529,0,20.909-9.379,20.909-20.909
		C468.576,644.474,459.196,635.094,447.667,635.094z M447.667,713.503c-31.706,0-57.5-25.794-57.5-57.5s25.794-57.5,57.5-57.5
		s57.5,25.794,57.5,57.5S479.373,713.503,447.667,713.503z"/>
	<path clip-path="url(#SVGID_2_)" fill="none" stroke="#000000" stroke-miterlimit="10" d="M769,635.094
		c-11.529,0-20.909,9.38-20.909,20.909c0,11.53,9.38,20.909,20.909,20.909c11.529,0,20.909-9.379,20.909-20.909
		C789.909,644.474,780.529,635.094,769,635.094z M769,713.503c-31.706,0-57.5-25.794-57.5-57.5s25.794-57.5,57.5-57.5
		c31.706,0,57.5,25.794,57.5,57.5S800.706,713.503,769,713.503z"/>
	<path clip-path="url(#SVGID_2_)" fill="none" stroke="#000000" stroke-miterlimit="10" d="M126,761.094
		c-11.529,0-20.909,9.38-20.909,20.909c0,11.53,9.38,20.909,20.909,20.909c11.529,0,20.909-9.379,20.909-20.909
		C146.909,770.474,137.529,761.094,126,761.094z M126,839.503c-31.706,0-57.5-25.794-57.5-57.5s25.794-57.5,57.5-57.5
		s57.5,25.794,57.5,57.5S157.706,839.503,126,839.503z"/>
	<path clip-path="url(#SVGID_2_)" fill="none" stroke="#000000" stroke-miterlimit="10" d="M447.667,761.094
		c-11.529,0-20.909,9.38-20.909,20.909c0,11.53,9.38,20.909,20.909,20.909c11.529,0,20.909-9.379,20.909-20.909
		C468.576,770.474,459.196,761.094,447.667,761.094z M447.667,839.503c-31.706,0-57.5-25.794-57.5-57.5s25.794-57.5,57.5-57.5
		s57.5,25.794,57.5,57.5S479.373,839.503,447.667,839.503z"/>
	<path clip-path="url(#SVGID_2_)" fill="none" stroke="#000000" stroke-miterlimit="10" d="M769,761.094
		c-11.529,0-20.909,9.38-20.909,20.909c0,11.53,9.38,20.909,20.909,20.909c11.529,0,20.909-9.379,20.909-20.909
		C789.909,770.474,780.529,761.094,769,761.094z M769,839.503c-31.706,0-57.5-25.794-57.5-57.5s25.794-57.5,57.5-57.5
		c31.706,0,57.5,25.794,57.5,57.5S800.706,839.503,769,839.503z"/>
	<path clip-path="url(#SVGID_2_)" fill="none" stroke="#000000" stroke-miterlimit="10" d="M254.667,380.093
		c-11.529,0-20.909,9.38-20.909,20.909c0,11.53,9.38,20.909,20.909,20.909c11.529,0,20.909-9.379,20.909-20.909
		C275.576,389.473,266.196,380.093,254.667,380.093z M254.667,458.502c-31.706,0-57.5-25.794-57.5-57.5s25.794-57.5,57.5-57.5
		s57.5,25.794,57.5,57.5S286.373,458.502,254.667,458.502z"/>
	<path clip-path="url(#SVGID_2_)" fill="none" stroke="#000000" stroke-miterlimit="10" d="M576.333,380.093
		c-11.529,0-20.909,9.38-20.909,20.909c0,11.53,9.38,20.909,20.909,20.909c11.529,0,20.909-9.379,20.909-20.909
		C597.242,389.473,587.862,380.093,576.333,380.093z M576.333,458.502c-31.706,0-57.5-25.794-57.5-57.5s25.794-57.5,57.5-57.5
		s57.5,25.794,57.5,57.5S608.039,458.502,576.333,458.502z"/>
	<path clip-path="url(#SVGID_2_)" fill="none" stroke="#000000" stroke-miterlimit="10" d="M897.667,380.093
		c-11.529,0-20.909,9.38-20.909,20.909c0,11.53,9.38,20.909,20.909,20.909c11.529,0,20.909-9.379,20.909-20.909
		C918.576,389.473,909.196,380.093,897.667,380.093z M897.667,458.502c-31.706,0-57.5-25.794-57.5-57.5s25.794-57.5,57.5-57.5
		c31.706,0,57.5,25.794,57.5,57.5S929.373,458.502,897.667,458.502z"/>
	<path clip-path="url(#SVGID_2_)" fill="none" stroke="#000000" stroke-miterlimit="10" d="M254.667,508.093
		c-11.529,0-20.909,9.38-20.909,20.909c0,11.53,9.38,20.909,20.909,20.909c11.529,0,20.909-9.379,20.909-20.909
		C275.576,517.474,266.196,508.093,254.667,508.093z M254.667,586.503c-31.706,0-57.5-25.794-57.5-57.5s25.794-57.5,57.5-57.5
		s57.5,25.794,57.5,57.5S286.373,586.503,254.667,586.503z"/>
	<path clip-path="url(#SVGID_2_)" fill="none" stroke="#000000" stroke-miterlimit="10" d="M576.333,508.093
		c-11.529,0-20.909,9.38-20.909,20.909c0,11.53,9.38,20.909,20.909,20.909c11.529,0,20.909-9.379,20.909-20.909
		C597.242,517.474,587.862,508.093,576.333,508.093z M576.333,586.503c-31.706,0-57.5-25.794-57.5-57.5s25.794-57.5,57.5-57.5
		s57.5,25.794,57.5,57.5S608.039,586.503,576.333,586.503z"/>
	<path clip-path="url(#SVGID_2_)" fill="none" stroke="#000000" stroke-miterlimit="10" d="M897.667,508.093
		c-11.529,0-20.909,9.38-20.909,20.909c0,11.53,9.38,20.909,20.909,20.909c11.529,0,20.909-9.379,20.909-20.909
		C918.576,517.474,909.196,508.093,897.667,508.093z M897.667,586.503c-31.706,0-57.5-25.794-57.5-57.5s25.794-57.5,57.5-57.5
		c31.706,0,57.5,25.794,57.5,57.5S929.373,586.503,897.667,586.503z"/>
	<path clip-path="url(#SVGID_2_)" fill="none" stroke="#000000" stroke-miterlimit="10" d="M254.667,635.094
		c-11.529,0-20.909,9.38-20.909,20.909c0,11.53,9.38,20.909,20.909,20.909c11.529,0,20.909-9.379,20.909-20.909
		C275.576,644.474,266.196,635.094,254.667,635.094z M254.667,713.503c-31.706,0-57.5-25.794-57.5-57.5s25.794-57.5,57.5-57.5
		s57.5,25.794,57.5,57.5S286.373,713.503,254.667,713.503z"/>
	<path clip-path="url(#SVGID_2_)" fill="none" stroke="#000000" stroke-miterlimit="10" d="M576.333,635.094
		c-11.529,0-20.909,9.38-20.909,20.909c0,11.53,9.38,20.909,20.909,20.909c11.529,0,20.909-9.379,20.909-20.909
		C597.242,644.474,587.862,635.094,576.333,635.094z M576.333,713.503c-31.706,0-57.5-25.794-57.5-57.5s25.794-57.5,57.5-57.5
		s57.5,25.794,57.5,57.5S608.039,713.503,576.333,713.503z"/>
	<path clip-path="url(#SVGID_2_)" fill="none" stroke="#000000" stroke-miterlimit="10" d="M897.667,635.094
		c-11.529,0-20.909,9.38-20.909,20.909c0,11.53,9.38,20.909,20.909,20.909c11.529,0,20.909-9.379,20.909-20.909
		C918.576,644.474,909.196,635.094,897.667,635.094z M897.667,713.503c-31.706,0-57.5-25.794-57.5-57.5s25.794-57.5,57.5-57.5
		c31.706,0,57.5,25.794,57.5,57.5S929.373,713.503,897.667,713.503z"/>
	<path clip-path="url(#SVGID_2_)" fill="none" stroke="#000000" stroke-miterlimit="10" d="M254.667,761.094
		c-11.529,0-20.909,9.38-20.909,20.909c0,11.53,9.38,20.909,20.909,20.909c11.529,0,20.909-9.379,20.909-20.909
		C275.576,770.474,266.196,761.094,254.667,761.094z M254.667,839.503c-31.706,0-57.5-25.794-57.5-57.5s25.794-57.5,57.5-57.5
		s57.5,25.794,57.5,57.5S286.373,839.503,254.667,839.503z"/>
	<path clip-path="url(#SVGID_2_)" fill="none" stroke="#000000" stroke-miterlimit="10" d="M576.333,761.094
		c-11.529,0-20.909,9.38-20.909,20.909c0,11.53,9.38,20.909,20.909,20.909c11.529,0,20.909-9.379,20.909-20.909
		C597.242,770.474,587.862,761.094,576.333,761.094z M576.333,839.503c-31.706,0-57.5-25.794-57.5-57.5s25.794-57.5,57.5-57.5
		s57.5,25.794,57.5,57.5S608.039,839.503,576.333,839.503z"/>
	<path clip-path="url(#SVGID_2_)" fill="none" stroke="#000000" stroke-miterlimit="10" d="M897.667,761.094
		c-11.529,0-20.909,9.38-20.909,20.909c0,11.53,9.38,20.909,20.909,20.909c11.529,0,20.909-9.379,20.909-20.909
		C918.576,770.474,909.196,761.094,897.667,761.094z M897.667,839.503c-31.706,0-57.5-25.794-57.5-57.5s25.794-57.5,57.5-57.5
		c31.706,0,57.5,25.794,57.5,57.5S929.373,839.503,897.667,839.503z"/>
	<path clip-path="url(#SVGID_2_)" fill="none" stroke="#000000" stroke-miterlimit="10" d="M512,130.609
		c-30.912,0-56.061,25.148-56.061,56.06c0,30.913,25.149,56.061,56.061,56.061s56.061-25.148,56.061-56.061
		C568.061,155.757,542.912,130.609,512,130.609z M512,340.836c-85.008,0-154.167-69.159-154.167-154.167S426.992,32.503,512,32.503
		s154.167,69.158,154.167,154.166S597.008,340.836,512,340.836z"/>
	<path clip-path="url(#SVGID_2_)" fill="none" stroke="#000000" stroke-miterlimit="10" d="M833.333,130.609
		c-30.912,0-56.061,25.148-56.061,56.06c0,30.913,25.149,56.061,56.061,56.061c30.912,0,56.061-25.148,56.061-56.061
		C889.394,155.757,864.245,130.609,833.333,130.609z M833.333,340.836c-85.008,0-154.167-69.159-154.167-154.167
		S748.325,32.503,833.333,32.503S987.5,101.661,987.5,186.669S918.341,340.836,833.333,340.836z"/>
</g>
</svg>
