<?xml version="1.0" encoding="utf-8"?>
<!-- Generator: Adobe Illustrator 16.0.4, SVG Export Plug-In . SVG Version: 6.00 Build 0)  -->
<!DOCTYPE svg PUBLIC "-//W3C//DTD SVG 1.1//EN" "http://www.w3.org/Graphics/SVG/1.1/DTD/svg11.dtd">
<svg version="1.1" id="Layer_1" xmlns="http://www.w3.org/2000/svg" xmlns:xlink="http://www.w3.org/1999/xlink" x="0px" y="0px"
	 width="1024px" height="768px" viewBox="0 0 1024 768" enable-background="new 0 0 1024 768" xml:space="preserve">
<g>
	<defs>
		<rect id="SVGID_1_" width="1024" height="768"/>
	</defs>
	<clipPath id="SVGID_2_">
		<use xlink:href="#SVGID_1_"  overflow="visible"/>
	</clipPath>
	<path clip-path="url(#SVGID_2_)" fill="none" stroke="#000000" stroke-miterlimit="10" d="M150.5,107.864
		c-22.959,0-41.636,18.678-41.636,41.636c0,22.959,18.677,41.636,41.636,41.636c22.958,0,41.636-18.677,41.636-41.636
		C192.136,126.542,173.458,107.864,150.5,107.864z M150.5,264C87.364,264,36,212.636,36,149.5C36,86.364,87.364,35,150.5,35
		S265,86.364,265,149.5C265,212.636,213.636,264,150.5,264z"/>
	<path clip-path="url(#SVGID_2_)" fill="none" stroke="#000000" stroke-miterlimit="10" d="M150.5,263.864
		c-22.959,0-41.636,18.677-41.636,41.636s18.677,41.636,41.636,41.636c22.958,0,41.636-18.677,41.636-41.636
		S173.458,263.864,150.5,263.864z M150.5,420C87.364,420,36,368.636,36,305.5C36,242.364,87.364,191,150.5,191
		S265,242.364,265,305.5C265,368.636,213.636,420,150.5,420z"/>
	<path clip-path="url(#SVGID_2_)" fill="none" stroke="#000000" stroke-miterlimit="10" d="M150.5,419.864
		c-22.959,0-41.636,18.677-41.636,41.636s18.677,41.636,41.636,41.636c22.958,0,41.636-18.677,41.636-41.636
		S173.458,419.864,150.5,419.864z M150.5,576C87.364,576,36,524.636,36,461.5S87.364,347,150.5,347S265,398.364,265,461.5
		S213.636,576,150.5,576z"/>
	<path clip-path="url(#SVGID_2_)" fill="none" stroke="#000000" stroke-miterlimit="10" d="M150.5,576.864
		c-22.959,0-41.636,18.677-41.636,41.636s18.677,41.636,41.636,41.636c22.958,0,41.636-18.677,41.636-41.636
		S173.458,576.864,150.5,576.864z M150.5,733C87.364,733,36,681.636,36,618.5S87.364,504,150.5,504S265,555.364,265,618.5
		S213.636,733,150.5,733z"/>
	<path clip-path="url(#SVGID_2_)" fill="none" stroke="#000000" stroke-miterlimit="10" d="M391.5,107.864
		c-22.958,0-41.636,18.678-41.636,41.636c0,22.959,18.678,41.636,41.636,41.636s41.636-18.677,41.636-41.636
		C433.136,126.542,414.458,107.864,391.5,107.864z M391.5,264C328.364,264,277,212.636,277,149.5C277,86.364,328.364,35,391.5,35
		C454.636,35,506,86.364,506,149.5C506,212.636,454.636,264,391.5,264z"/>
	<path clip-path="url(#SVGID_2_)" fill="none" stroke="#000000" stroke-miterlimit="10" d="M391.5,263.864
		c-22.958,0-41.636,18.677-41.636,41.636s18.678,41.636,41.636,41.636s41.636-18.677,41.636-41.636S414.458,263.864,391.5,263.864z
		 M391.5,420C328.364,420,277,368.636,277,305.5c0-63.136,51.364-114.5,114.5-114.5c63.136,0,114.5,51.364,114.5,114.5
		C506,368.636,454.636,420,391.5,420z"/>
	<path clip-path="url(#SVGID_2_)" fill="none" stroke="#000000" stroke-miterlimit="10" d="M391.5,419.864
		c-22.958,0-41.636,18.677-41.636,41.636s18.678,41.636,41.636,41.636s41.636-18.677,41.636-41.636S414.458,419.864,391.5,419.864z
		 M391.5,576C328.364,576,277,524.636,277,461.5S328.364,347,391.5,347c63.136,0,114.5,51.364,114.5,114.5S454.636,576,391.5,576z"
		/>
	<path clip-path="url(#SVGID_2_)" fill="none" stroke="#000000" stroke-miterlimit="10" d="M391.5,576.864
		c-22.958,0-41.636,18.677-41.636,41.636s18.678,41.636,41.636,41.636s41.636-18.677,41.636-41.636S414.458,576.864,391.5,576.864z
		 M391.5,733C328.364,733,277,681.636,277,618.5S328.364,504,391.5,504c63.136,0,114.5,51.364,114.5,114.5S454.636,733,391.5,733z"
		/>
	<path clip-path="url(#SVGID_2_)" fill="none" stroke="#000000" stroke-miterlimit="10" d="M632.5,107.864
		c-22.958,0-41.636,18.678-41.636,41.636c0,22.959,18.678,41.636,41.636,41.636s41.636-18.677,41.636-41.636
		C674.136,126.542,655.458,107.864,632.5,107.864z M632.5,264C569.364,264,518,212.636,518,149.5C518,86.364,569.364,35,632.5,35
		S747,86.364,747,149.5C747,212.636,695.636,264,632.5,264z"/>
	<path clip-path="url(#SVGID_2_)" fill="none" stroke="#000000" stroke-miterlimit="10" d="M632.5,263.864
		c-22.958,0-41.636,18.677-41.636,41.636s18.678,41.636,41.636,41.636s41.636-18.677,41.636-41.636S655.458,263.864,632.5,263.864z
		 M632.5,420C569.364,420,518,368.636,518,305.5c0-63.136,51.364-114.5,114.5-114.5S747,242.364,747,305.5
		C747,368.636,695.636,420,632.5,420z"/>
	<path clip-path="url(#SVGID_2_)" fill="none" stroke="#000000" stroke-miterlimit="10" d="M632.5,419.864
		c-22.958,0-41.636,18.677-41.636,41.636s18.678,41.636,41.636,41.636s41.636-18.677,41.636-41.636S655.458,419.864,632.5,419.864z
		 M632.5,576C569.364,576,518,524.636,518,461.5S569.364,347,632.5,347S747,398.364,747,461.5S695.636,576,632.5,576z"/>
	<path clip-path="url(#SVGID_2_)" fill="none" stroke="#000000" stroke-miterlimit="10" d="M632.5,576.864
		c-22.958,0-41.636,18.677-41.636,41.636s18.678,41.636,41.636,41.636s41.636-18.677,41.636-41.636S655.458,576.864,632.5,576.864z
		 M632.5,733C569.364,733,518,681.636,518,618.5S569.364,504,632.5,504S747,555.364,747,618.5S695.636,733,632.5,733z"/>
	<path clip-path="url(#SVGID_2_)" fill="none" stroke="#000000" stroke-miterlimit="10" d="M873.5,107.864
		c-22.958,0-41.636,18.678-41.636,41.636c0,22.959,18.678,41.636,41.636,41.636s41.636-18.677,41.636-41.636
		C915.136,126.542,896.458,107.864,873.5,107.864z M873.5,264C810.364,264,759,212.636,759,149.5C759,86.364,810.364,35,873.5,35
		S988,86.364,988,149.5C988,212.636,936.636,264,873.5,264z"/>
	<path clip-path="url(#SVGID_2_)" fill="none" stroke="#000000" stroke-miterlimit="10" d="M873.5,263.864
		c-22.958,0-41.636,18.677-41.636,41.636s18.678,41.636,41.636,41.636s41.636-18.677,41.636-41.636S896.458,263.864,873.5,263.864z
		 M873.5,420C810.364,420,759,368.636,759,305.5c0-63.136,51.364-114.5,114.5-114.5S988,242.364,988,305.5
		C988,368.636,936.636,420,873.5,420z"/>
	<path clip-path="url(#SVGID_2_)" fill="none" stroke="#000000" stroke-miterlimit="10" d="M873.5,419.864
		c-22.958,0-41.636,18.677-41.636,41.636s18.678,41.636,41.636,41.636s41.636-18.677,41.636-41.636S896.458,419.864,873.5,419.864z
		 M873.5,576C810.364,576,759,524.636,759,461.5S810.364,347,873.5,347S988,398.364,988,461.5S936.636,576,873.5,576z"/>
	<path clip-path="url(#SVGID_2_)" fill="none" stroke="#000000" stroke-miterlimit="10" d="M873.5,576.864
		c-22.958,0-41.636,18.677-41.636,41.636s18.678,41.636,41.636,41.636s41.636-18.677,41.636-41.636S896.458,576.864,873.5,576.864z
		 M873.5,733C810.364,733,759,681.636,759,618.5S810.364,504,873.5,504S988,555.364,988,618.5S936.636,733,873.5,733z"/>
	<path clip-path="url(#SVGID_2_)" fill="none" stroke="#000000" stroke-miterlimit="10" d="M190.083,122.682
		c-14.788,0-26.818,12.03-26.818,26.818s12.03,26.818,26.818,26.818c14.788,0,26.818-12.03,26.818-26.818
		S204.871,122.682,190.083,122.682z M190.083,223.25c-40.666,0-73.75-33.084-73.75-73.75s33.084-73.75,73.75-73.75
		s73.75,33.084,73.75,73.75S230.75,223.25,190.083,223.25z"/>
	<path clip-path="url(#SVGID_2_)" fill="none" stroke="#000000" stroke-miterlimit="10" d="M110.417,122.682
		c-14.788,0-26.818,12.03-26.818,26.818s12.03,26.818,26.818,26.818c14.788,0,26.818-12.03,26.818-26.818
		S125.205,122.682,110.417,122.682z M110.417,223.25c-40.666,0-73.75-33.084-73.75-73.75s33.084-73.75,73.75-73.75
		s73.75,33.084,73.75,73.75S151.083,223.25,110.417,223.25z"/>
	<path clip-path="url(#SVGID_2_)" fill="none" stroke="#000000" stroke-miterlimit="10" d="M431.667,122.682
		c-14.788,0-26.818,12.03-26.818,26.818s12.03,26.818,26.818,26.818c14.788,0,26.818-12.03,26.818-26.818
		S446.455,122.682,431.667,122.682z M431.667,223.25c-40.666,0-73.75-33.084-73.75-73.75S391,75.75,431.667,75.75
		s73.75,33.084,73.75,73.75S472.333,223.25,431.667,223.25z"/>
	<path clip-path="url(#SVGID_2_)" fill="none" stroke="#000000" stroke-miterlimit="10" d="M592.417,122.682
		c-14.788,0-26.818,12.03-26.818,26.818s12.03,26.818,26.818,26.818s26.817-12.03,26.817-26.818S607.205,122.682,592.417,122.682z
		 M592.417,223.25c-40.666,0-73.75-33.084-73.75-73.75s33.084-73.75,73.75-73.75s73.75,33.084,73.75,73.75
		S633.083,223.25,592.417,223.25z"/>
	<path clip-path="url(#SVGID_2_)" fill="none" stroke="#000000" stroke-miterlimit="10" d="M672.583,122.682
		c-14.788,0-26.817,12.03-26.817,26.818s12.029,26.818,26.817,26.818s26.818-12.03,26.818-26.818S687.371,122.682,672.583,122.682z
		 M672.583,223.25c-40.666,0-73.75-33.084-73.75-73.75s33.084-73.75,73.75-73.75s73.75,33.084,73.75,73.75
		S713.249,223.25,672.583,223.25z"/>
	<path clip-path="url(#SVGID_2_)" fill="none" stroke="#000000" stroke-miterlimit="10" d="M833.417,122.682
		c-14.788,0-26.818,12.03-26.818,26.818s12.03,26.818,26.818,26.818s26.817-12.03,26.817-26.818S848.205,122.682,833.417,122.682z
		 M833.417,223.25c-40.666,0-73.75-33.084-73.75-73.75s33.084-73.75,73.75-73.75s73.75,33.084,73.75,73.75
		S874.083,223.25,833.417,223.25z"/>
	<path clip-path="url(#SVGID_2_)" fill="none" stroke="#000000" stroke-miterlimit="10" d="M913.583,122.682
		c-14.788,0-26.817,12.03-26.817,26.818s12.029,26.818,26.817,26.818s26.818-12.03,26.818-26.818S928.371,122.682,913.583,122.682z
		 M913.583,223.25c-40.666,0-73.75-33.084-73.75-73.75s33.084-73.75,73.75-73.75s73.75,33.084,73.75,73.75
		S954.249,223.25,913.583,223.25z"/>
	<path clip-path="url(#SVGID_2_)" fill="none" stroke="#000000" stroke-miterlimit="10" d="M351.25,122.682
		c-14.788,0-26.818,12.03-26.818,26.818s12.03,26.818,26.818,26.818s26.818-12.03,26.818-26.818S366.038,122.682,351.25,122.682z
		 M351.25,223.25c-40.666,0-73.75-33.084-73.75-73.75s33.084-73.75,73.75-73.75S425,108.834,425,149.5S391.916,223.25,351.25,223.25
		z"/>
	<path clip-path="url(#SVGID_2_)" fill="none" stroke="#000000" stroke-miterlimit="10" d="M190.083,278.682
		c-14.788,0-26.818,12.03-26.818,26.818s12.03,26.818,26.818,26.818c14.788,0,26.818-12.03,26.818-26.818
		S204.871,278.682,190.083,278.682z M190.083,379.25c-40.666,0-73.75-33.084-73.75-73.75s33.084-73.75,73.75-73.75
		s73.75,33.084,73.75,73.75S230.75,379.25,190.083,379.25z"/>
	<path clip-path="url(#SVGID_2_)" fill="none" stroke="#000000" stroke-miterlimit="10" d="M110.417,278.682
		c-14.788,0-26.818,12.03-26.818,26.818s12.03,26.818,26.818,26.818c14.788,0,26.818-12.03,26.818-26.818
		S125.205,278.682,110.417,278.682z M110.417,379.25c-40.666,0-73.75-33.084-73.75-73.75s33.084-73.75,73.75-73.75
		s73.75,33.084,73.75,73.75S151.083,379.25,110.417,379.25z"/>
	<path clip-path="url(#SVGID_2_)" fill="none" stroke="#000000" stroke-miterlimit="10" d="M431.667,278.682
		c-14.788,0-26.818,12.03-26.818,26.818s12.03,26.818,26.818,26.818c14.788,0,26.818-12.03,26.818-26.818
		S446.455,278.682,431.667,278.682z M431.667,379.25c-40.666,0-73.75-33.084-73.75-73.75s33.084-73.75,73.75-73.75
		s73.75,33.084,73.75,73.75S472.333,379.25,431.667,379.25z"/>
	<path clip-path="url(#SVGID_2_)" fill="none" stroke="#000000" stroke-miterlimit="10" d="M592.417,278.682
		c-14.788,0-26.818,12.03-26.818,26.818s12.03,26.818,26.818,26.818s26.817-12.03,26.817-26.818S607.205,278.682,592.417,278.682z
		 M592.417,379.25c-40.666,0-73.75-33.084-73.75-73.75s33.084-73.75,73.75-73.75s73.75,33.084,73.75,73.75
		S633.083,379.25,592.417,379.25z"/>
	<path clip-path="url(#SVGID_2_)" fill="none" stroke="#000000" stroke-miterlimit="10" d="M672.583,278.682
		c-14.788,0-26.817,12.03-26.817,26.818s12.029,26.818,26.817,26.818s26.818-12.03,26.818-26.818S687.371,278.682,672.583,278.682z
		 M672.583,379.25c-40.666,0-73.75-33.084-73.75-73.75s33.084-73.75,73.75-73.75s73.75,33.084,73.75,73.75
		S713.249,379.25,672.583,379.25z"/>
	<path clip-path="url(#SVGID_2_)" fill="none" stroke="#000000" stroke-miterlimit="10" d="M833.417,278.682
		c-14.788,0-26.818,12.03-26.818,26.818s12.03,26.818,26.818,26.818s26.817-12.03,26.817-26.818S848.205,278.682,833.417,278.682z
		 M833.417,379.25c-40.666,0-73.75-33.084-73.75-73.75s33.084-73.75,73.75-73.75s73.75,33.084,73.75,73.75
		S874.083,379.25,833.417,379.25z"/>
	<path clip-path="url(#SVGID_2_)" fill="none" stroke="#000000" stroke-miterlimit="10" d="M913.583,278.682
		c-14.788,0-26.817,12.03-26.817,26.818s12.029,26.818,26.817,26.818s26.818-12.03,26.818-26.818S928.371,278.682,913.583,278.682z
		 M913.583,379.25c-40.666,0-73.75-33.084-73.75-73.75s33.084-73.75,73.75-73.75s73.75,33.084,73.75,73.75
		S954.249,379.25,913.583,379.25z"/>
	<path clip-path="url(#SVGID_2_)" fill="none" stroke="#000000" stroke-miterlimit="10" d="M351.25,278.682
		c-14.788,0-26.818,12.03-26.818,26.818s12.03,26.818,26.818,26.818s26.818-12.03,26.818-26.818S366.038,278.682,351.25,278.682z
		 M351.25,379.25c-40.666,0-73.75-33.084-73.75-73.75s33.084-73.75,73.75-73.75S425,264.834,425,305.5S391.916,379.25,351.25,379.25
		z"/>
	<path clip-path="url(#SVGID_2_)" fill="none" stroke="#000000" stroke-miterlimit="10" d="M190.083,434.682
		c-14.788,0-26.818,12.03-26.818,26.818s12.03,26.818,26.818,26.818c14.788,0,26.818-12.03,26.818-26.818
		S204.871,434.682,190.083,434.682z M190.083,535.25c-40.666,0-73.75-33.084-73.75-73.75s33.084-73.75,73.75-73.75
		s73.75,33.084,73.75,73.75S230.75,535.25,190.083,535.25z"/>
	<path clip-path="url(#SVGID_2_)" fill="none" stroke="#000000" stroke-miterlimit="10" d="M110.417,434.682
		c-14.788,0-26.818,12.03-26.818,26.818s12.03,26.818,26.818,26.818c14.788,0,26.818-12.03,26.818-26.818
		S125.205,434.682,110.417,434.682z M110.417,535.25c-40.666,0-73.75-33.084-73.75-73.75s33.084-73.75,73.75-73.75
		s73.75,33.084,73.75,73.75S151.083,535.25,110.417,535.25z"/>
	<path clip-path="url(#SVGID_2_)" fill="none" stroke="#000000" stroke-miterlimit="10" d="M431.667,434.682
		c-14.788,0-26.818,12.03-26.818,26.818s12.03,26.818,26.818,26.818c14.788,0,26.818-12.03,26.818-26.818
		S446.455,434.682,431.667,434.682z M431.667,535.25c-40.666,0-73.75-33.084-73.75-73.75s33.084-73.75,73.75-73.75
		s73.75,33.084,73.75,73.75S472.333,535.25,431.667,535.25z"/>
	<path clip-path="url(#SVGID_2_)" fill="none" stroke="#000000" stroke-miterlimit="10" d="M592.417,434.682
		c-14.788,0-26.818,12.03-26.818,26.818s12.03,26.818,26.818,26.818s26.817-12.03,26.817-26.818S607.205,434.682,592.417,434.682z
		 M592.417,535.25c-40.666,0-73.75-33.084-73.75-73.75s33.084-73.75,73.75-73.75s73.75,33.084,73.75,73.75
		S633.083,535.25,592.417,535.25z"/>
	<path clip-path="url(#SVGID_2_)" fill="none" stroke="#000000" stroke-miterlimit="10" d="M672.583,434.682
		c-14.788,0-26.817,12.03-26.817,26.818s12.029,26.818,26.817,26.818s26.818-12.03,26.818-26.818S687.371,434.682,672.583,434.682z
		 M672.583,535.25c-40.666,0-73.75-33.084-73.75-73.75s33.084-73.75,73.75-73.75s73.75,33.084,73.75,73.75
		S713.249,535.25,672.583,535.25z"/>
	<path clip-path="url(#SVGID_2_)" fill="none" stroke="#000000" stroke-miterlimit="10" d="M833.417,434.682
		c-14.788,0-26.818,12.03-26.818,26.818s12.03,26.818,26.818,26.818s26.817-12.03,26.817-26.818S848.205,434.682,833.417,434.682z
		 M833.417,535.25c-40.666,0-73.75-33.084-73.75-73.75s33.084-73.75,73.75-73.75s73.75,33.084,73.75,73.75
		S874.083,535.25,833.417,535.25z"/>
	<path clip-path="url(#SVGID_2_)" fill="none" stroke="#000000" stroke-miterlimit="10" d="M913.583,434.682
		c-14.788,0-26.817,12.03-26.817,26.818s12.029,26.818,26.817,26.818s26.818-12.03,26.818-26.818S928.371,434.682,913.583,434.682z
		 M913.583,535.25c-40.666,0-73.75-33.084-73.75-73.75s33.084-73.75,73.75-73.75s73.75,33.084,73.75,73.75
		S954.249,535.25,913.583,535.25z"/>
	<path clip-path="url(#SVGID_2_)" fill="none" stroke="#000000" stroke-miterlimit="10" d="M351.25,434.682
		c-14.788,0-26.818,12.03-26.818,26.818s12.03,26.818,26.818,26.818s26.818-12.03,26.818-26.818S366.038,434.682,351.25,434.682z
		 M351.25,535.25c-40.666,0-73.75-33.084-73.75-73.75s33.084-73.75,73.75-73.75S425,420.834,425,461.5S391.916,535.25,351.25,535.25
		z"/>
	<path clip-path="url(#SVGID_2_)" fill="none" stroke="#000000" stroke-miterlimit="10" d="M190.083,591.682
		c-14.788,0-26.818,12.03-26.818,26.818s12.03,26.818,26.818,26.818c14.788,0,26.818-12.03,26.818-26.818
		S204.871,591.682,190.083,591.682z M190.083,692.25c-40.666,0-73.75-33.084-73.75-73.75s33.084-73.75,73.75-73.75
		s73.75,33.084,73.75,73.75S230.75,692.25,190.083,692.25z"/>
	<path clip-path="url(#SVGID_2_)" fill="none" stroke="#000000" stroke-miterlimit="10" d="M110.417,591.682
		c-14.788,0-26.818,12.03-26.818,26.818s12.03,26.818,26.818,26.818c14.788,0,26.818-12.03,26.818-26.818
		S125.205,591.682,110.417,591.682z M110.417,692.25c-40.666,0-73.75-33.084-73.75-73.75s33.084-73.75,73.75-73.75
		s73.75,33.084,73.75,73.75S151.083,692.25,110.417,692.25z"/>
	<path clip-path="url(#SVGID_2_)" fill="none" stroke="#000000" stroke-miterlimit="10" d="M431.667,591.682
		c-14.788,0-26.818,12.03-26.818,26.818s12.03,26.818,26.818,26.818c14.788,0,26.818-12.03,26.818-26.818
		S446.455,591.682,431.667,591.682z M431.667,692.25c-40.666,0-73.75-33.084-73.75-73.75s33.084-73.75,73.75-73.75
		s73.75,33.084,73.75,73.75S472.333,692.25,431.667,692.25z"/>
	<path clip-path="url(#SVGID_2_)" fill="none" stroke="#000000" stroke-miterlimit="10" d="M592.417,591.682
		c-14.788,0-26.818,12.03-26.818,26.818s12.03,26.818,26.818,26.818s26.817-12.03,26.817-26.818S607.205,591.682,592.417,591.682z
		 M592.417,692.25c-40.666,0-73.75-33.084-73.75-73.75s33.084-73.75,73.75-73.75s73.75,33.084,73.75,73.75
		S633.083,692.25,592.417,692.25z"/>
	<path clip-path="url(#SVGID_2_)" fill="none" stroke="#000000" stroke-miterlimit="10" d="M672.583,591.682
		c-14.788,0-26.817,12.03-26.817,26.818s12.029,26.818,26.817,26.818s26.818-12.03,26.818-26.818S687.371,591.682,672.583,591.682z
		 M672.583,692.25c-40.666,0-73.75-33.084-73.75-73.75s33.084-73.75,73.75-73.75s73.75,33.084,73.75,73.75
		S713.249,692.25,672.583,692.25z"/>
	<path clip-path="url(#SVGID_2_)" fill="none" stroke="#000000" stroke-miterlimit="10" d="M833.417,591.682
		c-14.788,0-26.818,12.03-26.818,26.818s12.03,26.818,26.818,26.818s26.817-12.03,26.817-26.818S848.205,591.682,833.417,591.682z
		 M833.417,692.25c-40.666,0-73.75-33.084-73.75-73.75s33.084-73.75,73.75-73.75s73.75,33.084,73.75,73.75
		S874.083,692.25,833.417,692.25z"/>
	<path clip-path="url(#SVGID_2_)" fill="none" stroke="#000000" stroke-miterlimit="10" d="M913.583,591.682
		c-14.788,0-26.817,12.03-26.817,26.818s12.029,26.818,26.817,26.818s26.818-12.03,26.818-26.818S928.371,591.682,913.583,591.682z
		 M913.583,692.25c-40.666,0-73.75-33.084-73.75-73.75s33.084-73.75,73.75-73.75s73.75,33.084,73.75,73.75
		S954.249,692.25,913.583,692.25z"/>
	<path clip-path="url(#SVGID_2_)" fill="none" stroke="#000000" stroke-miterlimit="10" d="M351.25,591.682
		c-14.788,0-26.818,12.03-26.818,26.818s12.03,26.818,26.818,26.818s26.818-12.03,26.818-26.818S366.038,591.682,351.25,591.682z
		 M351.25,692.25c-40.666,0-73.75-33.084-73.75-73.75s33.084-73.75,73.75-73.75S425,577.834,425,618.5S391.916,692.25,351.25,692.25
		z"/>
</g>
</svg>
