<?xml version="1.0" encoding="utf-8"?>
<!-- Generator: Adobe Illustrator 17.0.0, SVG Export Plug-In . SVG Version: 6.00 Build 0)  -->
<!DOCTYPE svg PUBLIC "-//W3C//DTD SVG 1.1//EN" "http://www.w3.org/Graphics/SVG/1.1/DTD/svg11.dtd">
<svg version="1.1" id="Layer_1" xmlns="http://www.w3.org/2000/svg" xmlns:xlink="http://www.w3.org/1999/xlink" x="0px" y="0px"
	 width="1024px" height="768px" viewBox="0 0 1024 768" enable-background="new 0 0 1024 768" xml:space="preserve">
<g>
	<defs>
		<rect id="SVGID_1_" x="35.5" y="34.5" width="953" height="699"/>
	</defs>
	<clipPath id="SVGID_2_">
		<use xlink:href="#SVGID_1_"  overflow="visible"/>
	</clipPath>
	<path clip-path="url(#SVGID_2_)" fill="none" stroke="#000000" stroke-miterlimit="10" d="M150.5,107.864
		c-22.959,0-41.636,18.678-41.636,41.636c0,22.959,18.677,41.636,41.636,41.636c22.958,0,41.636-18.677,41.636-41.636
		C192.136,126.542,173.458,107.864,150.5,107.864z M150.5,264C87.364,264,36,212.636,36,149.5S87.364,35,150.5,35
		S265,86.364,265,149.5S213.636,264,150.5,264z"/>
	<path clip-path="url(#SVGID_2_)" fill="none" stroke="#000000" stroke-miterlimit="10" d="M150.5,263.864
		c-22.959,0-41.636,18.677-41.636,41.636c0,22.959,18.677,41.636,41.636,41.636c22.958,0,41.636-18.677,41.636-41.636
		C192.136,282.541,173.458,263.864,150.5,263.864z M150.5,420C87.364,420,36,368.636,36,305.5S87.364,191,150.5,191
		S265,242.364,265,305.5S213.636,420,150.5,420z"/>
	<path clip-path="url(#SVGID_2_)" fill="none" stroke="#000000" stroke-miterlimit="10" d="M150.5,419.864
		c-22.959,0-41.636,18.677-41.636,41.636s18.677,41.636,41.636,41.636c22.958,0,41.636-18.677,41.636-41.636
		S173.458,419.864,150.5,419.864z M150.5,576C87.364,576,36,524.636,36,461.5S87.364,347,150.5,347S265,398.364,265,461.5
		S213.636,576,150.5,576z"/>
	<path clip-path="url(#SVGID_2_)" fill="none" stroke="#000000" stroke-miterlimit="10" d="M150.5,576.864
		c-22.959,0-41.636,18.677-41.636,41.636s18.677,41.636,41.636,41.636c22.958,0,41.636-18.677,41.636-41.636
		S173.458,576.864,150.5,576.864z M150.5,733C87.364,733,36,681.636,36,618.5S87.364,504,150.5,504S265,555.364,265,618.5
		S213.636,733,150.5,733z"/>
	<path clip-path="url(#SVGID_2_)" fill="none" stroke="#000000" stroke-miterlimit="10" d="M391.5,107.864
		c-22.958,0-41.636,18.678-41.636,41.636c0,22.959,18.678,41.636,41.636,41.636c22.958,0,41.636-18.677,41.636-41.636
		C433.136,126.542,414.458,107.864,391.5,107.864z M391.5,264C328.364,264,277,212.636,277,149.5S328.364,35,391.5,35
		S506,86.364,506,149.5S454.636,264,391.5,264z"/>
	<path clip-path="url(#SVGID_2_)" fill="none" stroke="#000000" stroke-miterlimit="10" d="M391.5,263.864
		c-22.958,0-41.636,18.677-41.636,41.636c0,22.959,18.678,41.636,41.636,41.636c22.958,0,41.636-18.677,41.636-41.636
		C433.136,282.541,414.458,263.864,391.5,263.864z M391.5,420C328.364,420,277,368.636,277,305.5S328.364,191,391.5,191
		S506,242.364,506,305.5S454.636,420,391.5,420z"/>
	<path clip-path="url(#SVGID_2_)" fill="none" stroke="#000000" stroke-miterlimit="10" d="M391.5,419.864
		c-22.958,0-41.636,18.677-41.636,41.636s18.678,41.636,41.636,41.636c22.958,0,41.636-18.677,41.636-41.636
		S414.458,419.864,391.5,419.864z M391.5,576C328.364,576,277,524.636,277,461.5S328.364,347,391.5,347S506,398.364,506,461.5
		S454.636,576,391.5,576z"/>
	<path clip-path="url(#SVGID_2_)" fill="none" stroke="#000000" stroke-miterlimit="10" d="M391.5,576.864
		c-22.958,0-41.636,18.677-41.636,41.636s18.678,41.636,41.636,41.636c22.958,0,41.636-18.677,41.636-41.636
		S414.458,576.864,391.5,576.864z M391.5,733C328.364,733,277,681.636,277,618.5S328.364,504,391.5,504S506,555.364,506,618.5
		S454.636,733,391.5,733z"/>
	<path clip-path="url(#SVGID_2_)" fill="none" stroke="#000000" stroke-miterlimit="10" d="M632.5,107.864
		c-22.958,0-41.636,18.678-41.636,41.636c0,22.959,18.678,41.636,41.636,41.636c22.958,0,41.636-18.677,41.636-41.636
		C674.136,126.542,655.458,107.864,632.5,107.864z M632.5,264C569.364,264,518,212.636,518,149.5S569.364,35,632.5,35
		S747,86.364,747,149.5S695.636,264,632.5,264z"/>
	<path clip-path="url(#SVGID_2_)" fill="none" stroke="#000000" stroke-miterlimit="10" d="M632.5,263.864
		c-22.958,0-41.636,18.677-41.636,41.636c0,22.959,18.678,41.636,41.636,41.636c22.958,0,41.636-18.677,41.636-41.636
		C674.136,282.541,655.458,263.864,632.5,263.864z M632.5,420C569.364,420,518,368.636,518,305.5S569.364,191,632.5,191
		S747,242.364,747,305.5S695.636,420,632.5,420z"/>
	<path clip-path="url(#SVGID_2_)" fill="none" stroke="#000000" stroke-miterlimit="10" d="M632.5,419.864
		c-22.958,0-41.636,18.677-41.636,41.636s18.678,41.636,41.636,41.636c22.958,0,41.636-18.677,41.636-41.636
		S655.458,419.864,632.5,419.864z M632.5,576C569.364,576,518,524.636,518,461.5S569.364,347,632.5,347S747,398.364,747,461.5
		S695.636,576,632.5,576z"/>
	<path clip-path="url(#SVGID_2_)" fill="none" stroke="#000000" stroke-miterlimit="10" d="M632.5,576.864
		c-22.958,0-41.636,18.677-41.636,41.636s18.678,41.636,41.636,41.636c22.958,0,41.636-18.677,41.636-41.636
		S655.458,576.864,632.5,576.864z M632.5,733C569.364,733,518,681.636,518,618.5S569.364,504,632.5,504S747,555.364,747,618.5
		S695.636,733,632.5,733z"/>
	<path clip-path="url(#SVGID_2_)" fill="none" stroke="#000000" stroke-miterlimit="10" d="M873.5,107.864
		c-22.958,0-41.636,18.678-41.636,41.636c0,22.959,18.678,41.636,41.636,41.636c22.958,0,41.636-18.677,41.636-41.636
		C915.136,126.542,896.458,107.864,873.5,107.864z M873.5,264C810.364,264,759,212.636,759,149.5S810.364,35,873.5,35
		S988,86.364,988,149.5S936.636,264,873.5,264z"/>
	<path clip-path="url(#SVGID_2_)" fill="none" stroke="#000000" stroke-miterlimit="10" d="M873.5,263.864
		c-22.958,0-41.636,18.677-41.636,41.636c0,22.959,18.678,41.636,41.636,41.636c22.958,0,41.636-18.677,41.636-41.636
		C915.136,282.541,896.458,263.864,873.5,263.864z M873.5,420C810.364,420,759,368.636,759,305.5S810.364,191,873.5,191
		S988,242.364,988,305.5S936.636,420,873.5,420z"/>
	<path clip-path="url(#SVGID_2_)" fill="none" stroke="#000000" stroke-miterlimit="10" d="M873.5,419.864
		c-22.958,0-41.636,18.677-41.636,41.636s18.678,41.636,41.636,41.636c22.958,0,41.636-18.677,41.636-41.636
		S896.458,419.864,873.5,419.864z M873.5,576C810.364,576,759,524.636,759,461.5S810.364,347,873.5,347S988,398.364,988,461.5
		S936.636,576,873.5,576z"/>
	<path clip-path="url(#SVGID_2_)" fill="none" stroke="#000000" stroke-miterlimit="10" d="M873.5,576.864
		c-22.958,0-41.636,18.677-41.636,41.636s18.678,41.636,41.636,41.636c22.958,0,41.636-18.677,41.636-41.636
		S896.458,576.864,873.5,576.864z M873.5,733C810.364,733,759,681.636,759,618.5S810.364,504,873.5,504S988,555.364,988,618.5
		S936.636,733,873.5,733z"/>
	<path clip-path="url(#SVGID_2_)" fill="none" stroke="#000000" stroke-miterlimit="10" d="M110.75,83.432
		c-14.788,0-26.818,12.03-26.818,26.818c0,14.788,12.03,26.818,26.818,26.818s26.818-12.03,26.818-26.818
		C137.568,95.462,125.538,83.432,110.75,83.432z M110.75,184C70.084,184,37,150.916,37,110.25c0-40.666,33.084-73.75,73.75-73.75
		s73.75,33.084,73.75,73.75C184.5,150.916,151.416,184,110.75,184z"/>
	<path clip-path="url(#SVGID_2_)" fill="none" stroke="#000000" stroke-miterlimit="10" d="M351.25,83.432
		c-14.788,0-26.818,12.03-26.818,26.818c0,14.788,12.03,26.818,26.818,26.818c14.788,0,26.818-12.03,26.818-26.818
		C378.068,95.462,366.038,83.432,351.25,83.432z M351.25,184c-40.666,0-73.75-33.084-73.75-73.75c0-40.666,33.084-73.75,73.75-73.75
		S425,69.584,425,110.25C425,150.916,391.916,184,351.25,184z"/>
	<path clip-path="url(#SVGID_2_)" fill="none" stroke="#000000" stroke-miterlimit="10" d="M592.25,83.432
		c-14.788,0-26.818,12.03-26.818,26.818c0,14.788,12.03,26.818,26.818,26.818c14.788,0,26.818-12.03,26.818-26.818
		C619.068,95.462,607.038,83.432,592.25,83.432z M592.25,184c-40.666,0-73.75-33.084-73.75-73.75c0-40.666,33.084-73.75,73.75-73.75
		c40.666,0,73.75,33.084,73.75,73.75C666,150.916,632.916,184,592.25,184z"/>
	<path clip-path="url(#SVGID_2_)" fill="none" stroke="#000000" stroke-miterlimit="10" d="M833.399,83.432
		c-14.788,0-26.818,12.03-26.818,26.818c0,14.788,12.03,26.818,26.818,26.818c14.788,0,26.818-12.03,26.818-26.818
		C860.217,95.462,848.187,83.432,833.399,83.432z M833.399,184c-40.666,0-73.75-33.084-73.75-73.75
		c0-40.666,33.084-73.75,73.75-73.75c40.666,0,73.75,33.084,73.75,73.75C907.149,150.916,874.065,184,833.399,184z"/>
	<path clip-path="url(#SVGID_2_)" fill="none" stroke="#000000" stroke-miterlimit="10" d="M190.952,163.634
		c-14.788,0-26.818,12.03-26.818,26.818s12.03,26.818,26.818,26.818c14.788,0,26.818-12.03,26.818-26.818
		S205.74,163.634,190.952,163.634z M190.952,264.202c-40.666,0-73.75-33.084-73.75-73.75s33.084-73.75,73.75-73.75
		s73.75,33.084,73.75,73.75S231.618,264.202,190.952,264.202z"/>
	<path clip-path="url(#SVGID_2_)" fill="none" stroke="#000000" stroke-miterlimit="10" d="M431.452,163.634
		c-14.788,0-26.818,12.03-26.818,26.818s12.03,26.818,26.818,26.818c14.788,0,26.818-12.03,26.818-26.818
		S446.24,163.634,431.452,163.634z M431.452,264.202c-40.666,0-73.75-33.084-73.75-73.75s33.084-73.75,73.75-73.75
		s73.75,33.084,73.75,73.75S472.118,264.202,431.452,264.202z"/>
	<path clip-path="url(#SVGID_2_)" fill="none" stroke="#000000" stroke-miterlimit="10" d="M672.452,163.634
		c-14.788,0-26.818,12.03-26.818,26.818s12.03,26.818,26.818,26.818c14.788,0,26.818-12.03,26.818-26.818
		S687.24,163.634,672.452,163.634z M672.452,264.202c-40.666,0-73.75-33.084-73.75-73.75s33.084-73.75,73.75-73.75
		c40.666,0,73.75,33.084,73.75,73.75S713.118,264.202,672.452,264.202z"/>
	<path clip-path="url(#SVGID_2_)" fill="none" stroke="#000000" stroke-miterlimit="10" d="M913.601,163.634
		c-14.788,0-26.818,12.03-26.818,26.818s12.03,26.818,26.818,26.818c14.788,0,26.818-12.03,26.818-26.818
		S928.389,163.634,913.601,163.634z M913.601,264.202c-40.666,0-73.75-33.084-73.75-73.75s33.084-73.75,73.75-73.75
		c40.666,0,73.75,33.084,73.75,73.75S954.267,264.202,913.601,264.202z"/>
	<path clip-path="url(#SVGID_2_)" fill="none" stroke="#000000" stroke-miterlimit="10" d="M110.75,396.73
		c-14.788,0-26.818,12.03-26.818,26.818s12.03,26.818,26.818,26.818s26.818-12.03,26.818-26.818S125.538,396.73,110.75,396.73z
		 M110.75,497.298c-40.666,0-73.75-33.084-73.75-73.75s33.084-73.75,73.75-73.75s73.75,33.084,73.75,73.75
		S151.416,497.298,110.75,497.298z"/>
	<path clip-path="url(#SVGID_2_)" fill="none" stroke="#000000" stroke-miterlimit="10" d="M351.25,396.73
		c-14.788,0-26.818,12.03-26.818,26.818s12.03,26.818,26.818,26.818c14.788,0,26.818-12.03,26.818-26.818
		S366.038,396.73,351.25,396.73z M351.25,497.298c-40.666,0-73.75-33.084-73.75-73.75s33.084-73.75,73.75-73.75
		S425,382.882,425,423.548S391.916,497.298,351.25,497.298z"/>
	<path clip-path="url(#SVGID_2_)" fill="none" stroke="#000000" stroke-miterlimit="10" d="M592.25,396.73
		c-14.788,0-26.818,12.03-26.818,26.818s12.03,26.818,26.818,26.818c14.788,0,26.818-12.03,26.818-26.818
		S607.038,396.73,592.25,396.73z M592.25,497.298c-40.666,0-73.75-33.084-73.75-73.75s33.084-73.75,73.75-73.75
		c40.666,0,73.75,33.084,73.75,73.75S632.916,497.298,592.25,497.298z"/>
	<path clip-path="url(#SVGID_2_)" fill="none" stroke="#000000" stroke-miterlimit="10" d="M833.399,396.73
		c-14.788,0-26.818,12.03-26.818,26.818s12.03,26.818,26.818,26.818c14.788,0,26.818-12.03,26.818-26.818
		S848.187,396.73,833.399,396.73z M833.399,497.298c-40.666,0-73.75-33.084-73.75-73.75s33.084-73.75,73.75-73.75
		c40.666,0,73.75,33.084,73.75,73.75S874.065,497.298,833.399,497.298z"/>
	<path clip-path="url(#SVGID_2_)" fill="none" stroke="#000000" stroke-miterlimit="10" d="M190.952,476.932
		c-14.788,0-26.818,12.03-26.818,26.818c0,14.788,12.03,26.818,26.818,26.818c14.788,0,26.818-12.03,26.818-26.818
		C217.77,488.962,205.74,476.932,190.952,476.932z M190.952,577.5c-40.666,0-73.75-33.084-73.75-73.75S150.286,430,190.952,430
		s73.75,33.084,73.75,73.75S231.618,577.5,190.952,577.5z"/>
	<path clip-path="url(#SVGID_2_)" fill="none" stroke="#000000" stroke-miterlimit="10" d="M431.452,476.932
		c-14.788,0-26.818,12.03-26.818,26.818c0,14.788,12.03,26.818,26.818,26.818c14.788,0,26.818-12.03,26.818-26.818
		C458.27,488.962,446.24,476.932,431.452,476.932z M431.452,577.5c-40.666,0-73.75-33.084-73.75-73.75S390.786,430,431.452,430
		s73.75,33.084,73.75,73.75S472.118,577.5,431.452,577.5z"/>
	<path clip-path="url(#SVGID_2_)" fill="none" stroke="#000000" stroke-miterlimit="10" d="M672.452,476.932
		c-14.788,0-26.818,12.03-26.818,26.818c0,14.788,12.03,26.818,26.818,26.818c14.788,0,26.818-12.03,26.818-26.818
		C699.27,488.962,687.24,476.932,672.452,476.932z M672.452,577.5c-40.666,0-73.75-33.084-73.75-73.75S631.786,430,672.452,430
		c40.666,0,73.75,33.084,73.75,73.75S713.118,577.5,672.452,577.5z"/>
	<path clip-path="url(#SVGID_2_)" fill="none" stroke="#000000" stroke-miterlimit="10" d="M913.601,476.932
		c-14.788,0-26.818,12.03-26.818,26.818c0,14.788,12.03,26.818,26.818,26.818c14.788,0,26.818-12.03,26.818-26.818
		C940.419,488.962,928.389,476.932,913.601,476.932z M913.601,577.5c-40.666,0-73.75-33.084-73.75-73.75S872.935,430,913.601,430
		c40.666,0,73.75,33.084,73.75,73.75S954.267,577.5,913.601,577.5z"/>
	<path clip-path="url(#SVGID_2_)" fill="none" stroke="#000000" stroke-miterlimit="10" d="M110.75,238.432
		c-14.788,0-26.818,12.03-26.818,26.818c0,14.788,12.03,26.818,26.818,26.818s26.818-12.03,26.818-26.818
		C137.568,250.462,125.538,238.432,110.75,238.432z M110.75,339C70.084,339,37,305.916,37,265.25s33.084-73.75,73.75-73.75
		s73.75,33.084,73.75,73.75S151.416,339,110.75,339z"/>
	<path clip-path="url(#SVGID_2_)" fill="none" stroke="#000000" stroke-miterlimit="10" d="M351.25,238.432
		c-14.788,0-26.818,12.03-26.818,26.818c0,14.788,12.03,26.818,26.818,26.818c14.788,0,26.818-12.03,26.818-26.818
		C378.068,250.462,366.038,238.432,351.25,238.432z M351.25,339c-40.666,0-73.75-33.084-73.75-73.75s33.084-73.75,73.75-73.75
		S425,224.584,425,265.25S391.916,339,351.25,339z"/>
	<path clip-path="url(#SVGID_2_)" fill="none" stroke="#000000" stroke-miterlimit="10" d="M592.25,238.432
		c-14.788,0-26.818,12.03-26.818,26.818c0,14.788,12.03,26.818,26.818,26.818c14.788,0,26.818-12.03,26.818-26.818
		C619.068,250.462,607.038,238.432,592.25,238.432z M592.25,339c-40.666,0-73.75-33.084-73.75-73.75s33.084-73.75,73.75-73.75
		c40.666,0,73.75,33.084,73.75,73.75S632.916,339,592.25,339z"/>
	<path clip-path="url(#SVGID_2_)" fill="none" stroke="#000000" stroke-miterlimit="10" d="M833.399,238.432
		c-14.788,0-26.818,12.03-26.818,26.818c0,14.788,12.03,26.818,26.818,26.818c14.788,0,26.818-12.03,26.818-26.818
		C860.217,250.462,848.187,238.432,833.399,238.432z M833.399,339c-40.666,0-73.75-33.084-73.75-73.75s33.084-73.75,73.75-73.75
		c40.666,0,73.75,33.084,73.75,73.75S874.065,339,833.399,339z"/>
	<path clip-path="url(#SVGID_2_)" fill="none" stroke="#000000" stroke-miterlimit="10" d="M190.952,318.634
		c-14.788,0-26.818,12.03-26.818,26.818c0,14.788,12.03,26.818,26.818,26.818c14.788,0,26.818-12.03,26.818-26.818
		C217.77,330.664,205.74,318.634,190.952,318.634z M190.952,419.202c-40.666,0-73.75-33.084-73.75-73.75s33.084-73.75,73.75-73.75
		s73.75,33.084,73.75,73.75S231.618,419.202,190.952,419.202z"/>
	<path clip-path="url(#SVGID_2_)" fill="none" stroke="#000000" stroke-miterlimit="10" d="M431.452,318.634
		c-14.788,0-26.818,12.03-26.818,26.818c0,14.788,12.03,26.818,26.818,26.818c14.788,0,26.818-12.03,26.818-26.818
		C458.27,330.664,446.24,318.634,431.452,318.634z M431.452,419.202c-40.666,0-73.75-33.084-73.75-73.75s33.084-73.75,73.75-73.75
		s73.75,33.084,73.75,73.75S472.118,419.202,431.452,419.202z"/>
	<path clip-path="url(#SVGID_2_)" fill="none" stroke="#000000" stroke-miterlimit="10" d="M672.452,318.634
		c-14.788,0-26.818,12.03-26.818,26.818c0,14.788,12.03,26.818,26.818,26.818c14.788,0,26.818-12.03,26.818-26.818
		C699.27,330.664,687.24,318.634,672.452,318.634z M672.452,419.202c-40.666,0-73.75-33.084-73.75-73.75s33.084-73.75,73.75-73.75
		c40.666,0,73.75,33.084,73.75,73.75S713.118,419.202,672.452,419.202z"/>
	<path clip-path="url(#SVGID_2_)" fill="none" stroke="#000000" stroke-miterlimit="10" d="M913.601,318.634
		c-14.788,0-26.818,12.03-26.818,26.818c0,14.788,12.03,26.818,26.818,26.818c14.788,0,26.818-12.03,26.818-26.818
		C940.419,330.664,928.389,318.634,913.601,318.634z M913.601,419.202c-40.666,0-73.75-33.084-73.75-73.75s33.084-73.75,73.75-73.75
		c40.666,0,73.75,33.084,73.75,73.75S954.267,419.202,913.601,419.202z"/>
	<path clip-path="url(#SVGID_2_)" fill="none" stroke="#000000" stroke-miterlimit="10" d="M110.75,551.73
		c-14.788,0-26.818,12.03-26.818,26.818c0,14.788,12.03,26.818,26.818,26.818s26.818-12.03,26.818-26.818
		C137.568,563.76,125.538,551.73,110.75,551.73z M110.75,652.298c-40.666,0-73.75-33.084-73.75-73.75s33.084-73.75,73.75-73.75
		s73.75,33.084,73.75,73.75S151.416,652.298,110.75,652.298z"/>
	<path clip-path="url(#SVGID_2_)" fill="none" stroke="#000000" stroke-miterlimit="10" d="M351.25,551.73
		c-14.788,0-26.818,12.03-26.818,26.818c0,14.788,12.03,26.818,26.818,26.818c14.788,0,26.818-12.03,26.818-26.818
		C378.068,563.76,366.038,551.73,351.25,551.73z M351.25,652.298c-40.666,0-73.75-33.084-73.75-73.75s33.084-73.75,73.75-73.75
		S425,537.882,425,578.548S391.916,652.298,351.25,652.298z"/>
	<path clip-path="url(#SVGID_2_)" fill="none" stroke="#000000" stroke-miterlimit="10" d="M592.25,551.73
		c-14.788,0-26.818,12.03-26.818,26.818c0,14.788,12.03,26.818,26.818,26.818c14.788,0,26.818-12.03,26.818-26.818
		C619.068,563.76,607.038,551.73,592.25,551.73z M592.25,652.298c-40.666,0-73.75-33.084-73.75-73.75s33.084-73.75,73.75-73.75
		c40.666,0,73.75,33.084,73.75,73.75S632.916,652.298,592.25,652.298z"/>
	<path clip-path="url(#SVGID_2_)" fill="none" stroke="#000000" stroke-miterlimit="10" d="M833.399,551.73
		c-14.788,0-26.818,12.03-26.818,26.818c0,14.788,12.03,26.818,26.818,26.818c14.788,0,26.818-12.03,26.818-26.818
		C860.217,563.76,848.187,551.73,833.399,551.73z M833.399,652.298c-40.666,0-73.75-33.084-73.75-73.75s33.084-73.75,73.75-73.75
		c40.666,0,73.75,33.084,73.75,73.75S874.065,652.298,833.399,652.298z"/>
	<path clip-path="url(#SVGID_2_)" fill="none" stroke="#000000" stroke-miterlimit="10" d="M190.952,631.932
		c-14.788,0-26.818,12.03-26.818,26.818s12.03,26.818,26.818,26.818c14.788,0,26.818-12.03,26.818-26.818
		S205.74,631.932,190.952,631.932z M190.952,732.5c-40.666,0-73.75-33.084-73.75-73.75S150.286,585,190.952,585
		s73.75,33.084,73.75,73.75S231.618,732.5,190.952,732.5z"/>
	<path clip-path="url(#SVGID_2_)" fill="none" stroke="#000000" stroke-miterlimit="10" d="M431.452,631.932
		c-14.788,0-26.818,12.03-26.818,26.818s12.03,26.818,26.818,26.818c14.788,0,26.818-12.03,26.818-26.818
		S446.24,631.932,431.452,631.932z M431.452,732.5c-40.666,0-73.75-33.084-73.75-73.75S390.786,585,431.452,585
		s73.75,33.084,73.75,73.75S472.118,732.5,431.452,732.5z"/>
	<path clip-path="url(#SVGID_2_)" fill="none" stroke="#000000" stroke-miterlimit="10" d="M672.452,631.932
		c-14.788,0-26.818,12.03-26.818,26.818s12.03,26.818,26.818,26.818c14.788,0,26.818-12.03,26.818-26.818
		S687.24,631.932,672.452,631.932z M672.452,732.5c-40.666,0-73.75-33.084-73.75-73.75S631.786,585,672.452,585
		c40.666,0,73.75,33.084,73.75,73.75S713.118,732.5,672.452,732.5z"/>
	<path clip-path="url(#SVGID_2_)" fill="none" stroke="#000000" stroke-miterlimit="10" d="M913.601,631.932
		c-14.788,0-26.818,12.03-26.818,26.818s12.03,26.818,26.818,26.818c14.788,0,26.818-12.03,26.818-26.818
		S928.389,631.932,913.601,631.932z M913.601,732.5c-40.666,0-73.75-33.084-73.75-73.75S872.935,585,913.601,585
		c40.666,0,73.75,33.084,73.75,73.75S954.267,732.5,913.601,732.5z"/>
</g>
</svg>
