<?xml version="1.0" encoding="utf-8"?>
<!-- Generator: Adobe Illustrator 17.0.0, SVG Export Plug-In . SVG Version: 6.00 Build 0)  -->
<!DOCTYPE svg PUBLIC "-//W3C//DTD SVG 1.1//EN" "http://www.w3.org/Graphics/SVG/1.1/DTD/svg11.dtd">
<svg version="1.1" id="Layer_1" xmlns="http://www.w3.org/2000/svg" xmlns:xlink="http://www.w3.org/1999/xlink" x="0px" y="0px"
	 width="1024px" height="768px" viewBox="0 0 1024 768" enable-background="new 0 0 1024 768" xml:space="preserve">
<g>
	<defs>
		<rect id="SVGID_1_" x="-124.833" width="1273.667" height="768"/>
	</defs>
	<clipPath id="SVGID_2_">
		<use xlink:href="#SVGID_1_"  overflow="visible"/>
	</clipPath>
	<path clip-path="url(#SVGID_2_)" fill="none" stroke="#000000" stroke-miterlimit="10" d="M-50.5,47.591
		c-14.804,0-26.848,12.071-26.848,26.909c0,14.838,12.044,26.909,26.848,26.909S-23.652,89.338-23.652,74.5
		C-23.652,59.662-35.696,47.591-50.5,47.591z M-50.5,148.5c-40.712,0-73.833-33.196-73.833-74c0-40.804,33.121-74,73.833-74
		s73.833,33.196,73.833,74C23.333,115.304-9.788,148.5-50.5,148.5z"/>
	<path clip-path="url(#SVGID_2_)" fill="none" stroke="#000000" stroke-miterlimit="10" d="M110.5,47.591
		c-14.804,0-26.848,12.071-26.848,26.909c0,14.838,12.044,26.909,26.848,26.909c14.804,0,26.848-12.071,26.848-26.909
		C137.348,59.662,125.304,47.591,110.5,47.591z M110.5,148.5c-40.712,0-73.833-33.196-73.833-74c0-40.804,33.121-74,73.833-74
		s73.833,33.196,73.833,74C184.333,115.304,151.212,148.5,110.5,148.5z"/>
	<path clip-path="url(#SVGID_2_)" fill="none" stroke="#000000" stroke-miterlimit="10" d="M271.167,47.591
		c-14.804,0-26.849,12.071-26.849,26.909c0,14.838,12.045,26.909,26.849,26.909c14.804,0,26.848-12.071,26.848-26.909
		C298.014,59.662,285.97,47.591,271.167,47.591z M271.167,148.5c-40.712,0-73.833-33.196-73.833-74c0-40.804,33.121-74,73.833-74
		s73.833,33.196,73.833,74C344.999,115.304,311.878,148.5,271.167,148.5z"/>
	<path clip-path="url(#SVGID_2_)" fill="none" stroke="#000000" stroke-miterlimit="10" d="M431.5,47.591
		c-14.804,0-26.848,12.071-26.848,26.909c0,14.838,12.044,26.909,26.848,26.909c14.804,0,26.849-12.071,26.849-26.909
		C458.349,59.662,446.304,47.591,431.5,47.591z M431.5,148.5c-40.712,0-73.833-33.196-73.833-74c0-40.804,33.121-74,73.833-74
		c40.712,0,73.833,33.196,73.833,74C505.333,115.304,472.212,148.5,431.5,148.5z"/>
	<path clip-path="url(#SVGID_2_)" fill="none" stroke="#000000" stroke-miterlimit="10" d="M592.5,47.591
		c-14.804,0-26.848,12.071-26.848,26.909c0,14.838,12.044,26.909,26.848,26.909c14.804,0,26.849-12.071,26.849-26.909
		C619.349,59.662,607.304,47.591,592.5,47.591z M592.5,148.5c-40.712,0-73.833-33.196-73.833-74c0-40.804,33.121-74,73.833-74
		c40.712,0,73.833,33.196,73.833,74C666.333,115.304,633.212,148.5,592.5,148.5z"/>
	<path clip-path="url(#SVGID_2_)" fill="none" stroke="#000000" stroke-miterlimit="10" d="M753.167,47.591
		c-14.804,0-26.848,12.071-26.848,26.909c0,14.838,12.044,26.909,26.848,26.909c14.804,0,26.849-12.071,26.849-26.909
		C780.016,59.662,767.97,47.591,753.167,47.591z M753.167,148.5c-40.712,0-73.833-33.196-73.833-74c0-40.804,33.121-74,73.833-74
		c40.712,0,73.833,33.196,73.833,74C826.999,115.304,793.878,148.5,753.167,148.5z"/>
	<path clip-path="url(#SVGID_2_)" fill="none" stroke="#000000" stroke-miterlimit="10" d="M29.5,47.591
		c-14.804,0-26.848,12.071-26.848,26.909c0,14.838,12.044,26.909,26.848,26.909c14.804,0,26.848-12.071,26.848-26.909
		C56.348,59.662,44.304,47.591,29.5,47.591z M29.5,148.5c-40.712,0-73.833-33.196-73.833-74c0-40.804,33.121-74,73.833-74
		s73.833,33.196,73.833,74C103.333,115.304,70.212,148.5,29.5,148.5z"/>
	<path clip-path="url(#SVGID_2_)" fill="none" stroke="#000000" stroke-miterlimit="10" d="M190.5,47.591
		c-14.804,0-26.848,12.071-26.848,26.909c0,14.838,12.044,26.909,26.848,26.909c14.804,0,26.849-12.071,26.849-26.909
		C217.349,59.662,205.304,47.591,190.5,47.591z M190.5,148.5c-40.712,0-73.833-33.196-73.833-74c0-40.804,33.121-74,73.833-74
		s73.833,33.196,73.833,74C264.333,115.304,231.212,148.5,190.5,148.5z"/>
	<path clip-path="url(#SVGID_2_)" fill="none" stroke="#000000" stroke-miterlimit="10" d="M351.167,47.591
		c-14.804,0-26.849,12.071-26.849,26.909c0,14.838,12.045,26.909,26.849,26.909c14.804,0,26.848-12.071,26.848-26.909
		C378.014,59.662,365.97,47.591,351.167,47.591z M351.167,148.5c-40.712,0-73.833-33.196-73.833-74c0-40.804,33.121-74,73.833-74
		s73.833,33.196,73.833,74C424.999,115.304,391.878,148.5,351.167,148.5z"/>
	<path clip-path="url(#SVGID_2_)" fill="none" stroke="#000000" stroke-miterlimit="10" d="M511.5,47.591
		c-14.804,0-26.848,12.071-26.848,26.909c0,14.838,12.044,26.909,26.848,26.909c14.804,0,26.849-12.071,26.849-26.909
		C538.349,59.662,526.304,47.591,511.5,47.591z M511.5,148.5c-40.712,0-73.833-33.196-73.833-74c0-40.804,33.121-74,73.833-74
		c40.712,0,73.833,33.196,73.833,74C585.333,115.304,552.212,148.5,511.5,148.5z"/>
	<path clip-path="url(#SVGID_2_)" fill="none" stroke="#000000" stroke-miterlimit="10" d="M672.5,47.591
		c-14.804,0-26.848,12.071-26.848,26.909c0,14.838,12.044,26.909,26.848,26.909c14.804,0,26.849-12.071,26.849-26.909
		C699.349,59.662,687.304,47.591,672.5,47.591z M672.5,148.5c-40.712,0-73.833-33.196-73.833-74c0-40.804,33.121-74,73.833-74
		c40.712,0,73.833,33.196,73.833,74C746.333,115.304,713.212,148.5,672.5,148.5z"/>
	<path clip-path="url(#SVGID_2_)" fill="none" stroke="#000000" stroke-miterlimit="10" d="M833.167,47.591
		c-14.804,0-26.848,12.071-26.848,26.909c0,14.838,12.044,26.909,26.848,26.909c14.804,0,26.849-12.071,26.849-26.909
		C860.016,59.662,847.97,47.591,833.167,47.591z M833.167,148.5c-40.712,0-73.833-33.196-73.833-74c0-40.804,33.121-74,73.833-74
		c40.712,0,73.833,33.196,73.833,74C906.999,115.304,873.878,148.5,833.167,148.5z"/>
	<path clip-path="url(#SVGID_2_)" fill="none" stroke="#000000" stroke-miterlimit="10" d="M913.5,47.591
		c-14.804,0-26.849,12.071-26.849,26.909c0,14.838,12.045,26.909,26.849,26.909c14.804,0,26.849-12.071,26.849-26.909
		C940.349,59.662,928.304,47.591,913.5,47.591z M913.5,148.5c-40.712,0-73.833-33.196-73.833-74c0-40.804,33.121-74,73.833-74
		c40.712,0,73.833,33.196,73.833,74C987.333,115.304,954.212,148.5,913.5,148.5z"/>
	<path clip-path="url(#SVGID_2_)" fill="none" stroke="#000000" stroke-miterlimit="10" d="M993.833,47.591
		c-14.804,0-26.849,12.071-26.849,26.909c0,14.838,12.045,26.909,26.849,26.909c14.804,0,26.848-12.071,26.848-26.909
		C1020.681,59.662,1008.637,47.591,993.833,47.591z M993.833,148.5c-40.712,0-73.833-33.196-73.833-74c0-40.804,33.121-74,73.833-74
		c40.712,0,73.833,33.196,73.833,74C1067.666,115.304,1034.545,148.5,993.833,148.5z"/>
	<path clip-path="url(#SVGID_2_)" fill="none" stroke="#000000" stroke-miterlimit="10" d="M1073.833,47.591
		c-14.804,0-26.849,12.071-26.849,26.909c0,14.838,12.045,26.909,26.849,26.909c14.804,0,26.848-12.071,26.848-26.909
		C1100.681,59.662,1088.637,47.591,1073.833,47.591z M1073.833,148.5c-40.712,0-73.833-33.196-73.833-74
		c0-40.804,33.121-74,73.833-74c40.712,0,73.833,33.196,73.833,74C1147.666,115.304,1114.545,148.5,1073.833,148.5z"/>
	<path clip-path="url(#SVGID_2_)" fill="none" stroke="#000000" stroke-miterlimit="10" d="M-10,174.136
		c-6.817,0-12.364,5.547-12.364,12.364c0,6.818,5.547,12.364,12.364,12.364c6.817,0,12.364-5.546,12.364-12.364
		C2.364,179.683-3.183,174.136-10,174.136z M-10,220.5c-18.748,0-34-15.252-34-34c0-18.748,15.252-34,34-34s34,15.252,34,34
		C24,205.248,8.748,220.5-10,220.5z"/>
	<path clip-path="url(#SVGID_2_)" fill="none" stroke="#000000" stroke-miterlimit="10" d="M151,174.136
		c-6.817,0-12.364,5.547-12.364,12.364c0,6.818,5.547,12.364,12.364,12.364c6.817,0,12.364-5.546,12.364-12.364
		C163.364,179.683,157.817,174.136,151,174.136z M151,220.5c-18.748,0-34-15.252-34-34c0-18.748,15.252-34,34-34
		c18.748,0,34,15.252,34,34C185,205.248,169.748,220.5,151,220.5z"/>
	<path clip-path="url(#SVGID_2_)" fill="none" stroke="#000000" stroke-miterlimit="10" d="M311.667,174.136
		c-6.817,0-12.364,5.547-12.364,12.364c0,6.818,5.547,12.364,12.364,12.364c6.817,0,12.364-5.546,12.364-12.364
		C324.03,179.683,318.483,174.136,311.667,174.136z M311.667,220.5c-18.748,0-34-15.252-34-34c0-18.748,15.252-34,34-34
		c18.748,0,34,15.252,34,34C345.667,205.248,330.414,220.5,311.667,220.5z"/>
	<path clip-path="url(#SVGID_2_)" fill="none" stroke="#000000" stroke-miterlimit="10" d="M472,174.136
		c-6.817,0-12.364,5.547-12.364,12.364c0,6.818,5.547,12.364,12.364,12.364c6.817,0,12.364-5.546,12.364-12.364
		C484.364,179.683,478.817,174.136,472,174.136z M472,220.5c-18.748,0-34-15.252-34-34c0-18.748,15.252-34,34-34
		c18.748,0,34,15.252,34,34C506,205.248,490.748,220.5,472,220.5z"/>
	<path clip-path="url(#SVGID_2_)" fill="none" stroke="#000000" stroke-miterlimit="10" d="M633,174.136
		c-6.817,0-12.364,5.547-12.364,12.364c0,6.818,5.547,12.364,12.364,12.364c6.817,0,12.364-5.546,12.364-12.364
		C645.364,179.683,639.817,174.136,633,174.136z M633,220.5c-18.748,0-34-15.252-34-34c0-18.748,15.252-34,34-34
		c18.748,0,34,15.252,34,34C667,205.248,651.748,220.5,633,220.5z"/>
	<path clip-path="url(#SVGID_2_)" fill="none" stroke="#000000" stroke-miterlimit="10" d="M793.667,174.136
		c-6.817,0-12.364,5.547-12.364,12.364c0,6.818,5.547,12.364,12.364,12.364c6.817,0,12.364-5.546,12.364-12.364
		C806.03,179.683,800.483,174.136,793.667,174.136z M793.667,220.5c-18.748,0-34-15.252-34-34c0-18.748,15.252-34,34-34
		c18.748,0,34,15.252,34,34C827.667,205.248,812.414,220.5,793.667,220.5z"/>
	<path clip-path="url(#SVGID_2_)" fill="none" stroke="#000000" stroke-miterlimit="10" d="M874,174.136
		c-6.817,0-12.364,5.547-12.364,12.364c0,6.818,5.547,12.364,12.364,12.364c6.817,0,12.364-5.546,12.364-12.364
		C886.364,179.683,880.817,174.136,874,174.136z M874,220.5c-18.748,0-34-15.252-34-34c0-18.748,15.252-34,34-34
		c18.748,0,34,15.252,34,34C908,205.248,892.748,220.5,874,220.5z"/>
	<path clip-path="url(#SVGID_2_)" fill="none" stroke="#000000" stroke-miterlimit="10" d="M954.333,174.136
		c-6.817,0-12.364,5.547-12.364,12.364c0,6.818,5.547,12.364,12.364,12.364c6.817,0,12.364-5.546,12.364-12.364
		C966.697,179.683,961.15,174.136,954.333,174.136z M954.333,220.5c-18.748,0-34-15.252-34-34c0-18.748,15.252-34,34-34
		c18.748,0,34,15.252,34,34C988.333,205.248,973.081,220.5,954.333,220.5z"/>
	<path clip-path="url(#SVGID_2_)" fill="none" stroke="#000000" stroke-miterlimit="10" d="M1034.333,174.136
		c-6.817,0-12.364,5.547-12.364,12.364c0,6.818,5.547,12.364,12.364,12.364c6.817,0,12.364-5.546,12.364-12.364
		C1046.697,179.683,1041.15,174.136,1034.333,174.136z M1034.333,220.5c-18.748,0-34-15.252-34-34c0-18.748,15.252-34,34-34
		c18.748,0,34,15.252,34,34C1068.333,205.248,1053.081,220.5,1034.333,220.5z"/>
	<path clip-path="url(#SVGID_2_)" fill="none" stroke="#000000" stroke-miterlimit="10" d="M70,174.136
		c-6.817,0-12.364,5.547-12.364,12.364c0,6.818,5.547,12.364,12.364,12.364c6.817,0,12.364-5.546,12.364-12.364
		C82.364,179.683,76.817,174.136,70,174.136z M70,220.5c-18.748,0-34-15.252-34-34c0-18.748,15.252-34,34-34s34,15.252,34,34
		C104,205.248,88.748,220.5,70,220.5z"/>
	<path clip-path="url(#SVGID_2_)" fill="none" stroke="#000000" stroke-miterlimit="10" d="M231,174.136
		c-6.817,0-12.364,5.547-12.364,12.364c0,6.818,5.547,12.364,12.364,12.364c6.817,0,12.364-5.546,12.364-12.364
		C243.364,179.683,237.817,174.136,231,174.136z M231,220.5c-18.748,0-34-15.252-34-34c0-18.748,15.252-34,34-34
		c18.748,0,34,15.252,34,34C265,205.248,249.748,220.5,231,220.5z"/>
	<path clip-path="url(#SVGID_2_)" fill="none" stroke="#000000" stroke-miterlimit="10" d="M391.667,174.136
		c-6.817,0-12.364,5.547-12.364,12.364c0,6.818,5.547,12.364,12.364,12.364c6.817,0,12.364-5.546,12.364-12.364
		C404.03,179.683,398.483,174.136,391.667,174.136z M391.667,220.5c-18.748,0-34-15.252-34-34c0-18.748,15.252-34,34-34
		c18.748,0,34,15.252,34,34C425.667,205.248,410.414,220.5,391.667,220.5z"/>
	<path clip-path="url(#SVGID_2_)" fill="none" stroke="#000000" stroke-miterlimit="10" d="M552,174.136
		c-6.817,0-12.364,5.547-12.364,12.364c0,6.818,5.547,12.364,12.364,12.364c6.817,0,12.364-5.546,12.364-12.364
		C564.364,179.683,558.817,174.136,552,174.136z M552,220.5c-18.748,0-34-15.252-34-34c0-18.748,15.252-34,34-34
		c18.748,0,34,15.252,34,34C586,205.248,570.748,220.5,552,220.5z"/>
	<path clip-path="url(#SVGID_2_)" fill="none" stroke="#000000" stroke-miterlimit="10" d="M713,174.136
		c-6.817,0-12.364,5.547-12.364,12.364c0,6.818,5.547,12.364,12.364,12.364c6.817,0,12.364-5.546,12.364-12.364
		C725.364,179.683,719.817,174.136,713,174.136z M713,220.5c-18.748,0-34-15.252-34-34c0-18.748,15.252-34,34-34
		c18.748,0,34,15.252,34,34C747,205.248,731.748,220.5,713,220.5z"/>
	<path clip-path="url(#SVGID_2_)" fill="none" stroke="#000000" stroke-miterlimit="10" d="M873.667,174.136
		c-6.817,0-12.364,5.547-12.364,12.364c0,6.818,5.547,12.364,12.364,12.364c6.817,0,12.364-5.546,12.364-12.364
		C886.03,179.683,880.483,174.136,873.667,174.136z M873.667,220.5c-18.748,0-34-15.252-34-34c0-18.748,15.252-34,34-34
		c18.748,0,34,15.252,34,34C907.667,205.248,892.414,220.5,873.667,220.5z"/>
	<path clip-path="url(#SVGID_2_)" fill="none" stroke="#000000" stroke-miterlimit="10" d="M954,174.136
		c-6.817,0-12.364,5.547-12.364,12.364c0,6.818,5.547,12.364,12.364,12.364c6.817,0,12.364-5.546,12.364-12.364
		C966.364,179.683,960.817,174.136,954,174.136z M954,220.5c-18.748,0-34-15.252-34-34c0-18.748,15.252-34,34-34
		c18.748,0,34,15.252,34,34C988,205.248,972.748,220.5,954,220.5z"/>
	<path clip-path="url(#SVGID_2_)" fill="none" stroke="#000000" stroke-miterlimit="10" d="M1034.333,174.136
		c-6.817,0-12.364,5.547-12.364,12.364c0,6.818,5.547,12.364,12.364,12.364c6.817,0,12.364-5.546,12.364-12.364
		C1046.697,179.683,1041.15,174.136,1034.333,174.136z M1034.333,220.5c-18.748,0-34-15.252-34-34c0-18.748,15.252-34,34-34
		c18.748,0,34,15.252,34,34C1068.333,205.248,1053.081,220.5,1034.333,220.5z"/>
	<path clip-path="url(#SVGID_2_)" fill="none" stroke="#000000" stroke-miterlimit="10" d="M70.667,174.136
		c-6.817,0-12.364,5.547-12.364,12.364c0,6.818,5.547,12.364,12.364,12.364c6.817,0,12.364-5.546,12.364-12.364
		C83.031,179.683,77.483,174.136,70.667,174.136z M70.667,220.5c-18.748,0-34-15.252-34-34c0-18.748,15.252-34,34-34
		s34,15.252,34,34C104.667,205.248,89.414,220.5,70.667,220.5z"/>
	<path clip-path="url(#SVGID_2_)" fill="none" stroke="#000000" stroke-miterlimit="10" d="M231.333,174.136
		c-6.817,0-12.364,5.547-12.364,12.364c0,6.818,5.547,12.364,12.364,12.364c6.817,0,12.364-5.546,12.364-12.364
		C243.697,179.683,238.15,174.136,231.333,174.136z M231.333,220.5c-18.748,0-34-15.252-34-34c0-18.748,15.252-34,34-34
		c18.748,0,34,15.252,34,34C265.333,205.248,250.081,220.5,231.333,220.5z"/>
	<path clip-path="url(#SVGID_2_)" fill="none" stroke="#000000" stroke-miterlimit="10" d="M391.667,174.136
		c-6.817,0-12.364,5.547-12.364,12.364c0,6.818,5.547,12.364,12.364,12.364c6.817,0,12.364-5.546,12.364-12.364
		C404.03,179.683,398.483,174.136,391.667,174.136z M391.667,220.5c-18.748,0-34-15.252-34-34c0-18.748,15.252-34,34-34
		c18.748,0,34,15.252,34,34C425.667,205.248,410.414,220.5,391.667,220.5z"/>
	<path clip-path="url(#SVGID_2_)" fill="none" stroke="#000000" stroke-miterlimit="10" d="M552.667,174.136
		c-6.817,0-12.364,5.547-12.364,12.364c0,6.818,5.547,12.364,12.364,12.364c6.817,0,12.364-5.546,12.364-12.364
		C565.03,179.683,559.483,174.136,552.667,174.136z M552.667,220.5c-18.748,0-34-15.252-34-34c0-18.748,15.252-34,34-34
		c18.748,0,34,15.252,34,34C586.667,205.248,571.414,220.5,552.667,220.5z"/>
	<path clip-path="url(#SVGID_2_)" fill="none" stroke="#000000" stroke-miterlimit="10" d="M713.333,174.136
		c-6.817,0-12.364,5.547-12.364,12.364c0,6.818,5.547,12.364,12.364,12.364c6.817,0,12.364-5.546,12.364-12.364
		C725.697,179.683,720.15,174.136,713.333,174.136z M713.333,220.5c-18.748,0-34-15.252-34-34c0-18.748,15.252-34,34-34
		c18.748,0,34,15.252,34,34C747.333,205.248,732.081,220.5,713.333,220.5z"/>
	<path clip-path="url(#SVGID_2_)" fill="none" stroke="#000000" stroke-miterlimit="10" d="M-10.333,174.136
		c-6.817,0-12.364,5.547-12.364,12.364c0,6.818,5.547,12.364,12.364,12.364c6.817,0,12.364-5.546,12.364-12.364
		C2.031,179.683-3.517,174.136-10.333,174.136z M-10.333,220.5c-18.748,0-34-15.252-34-34c0-18.748,15.252-34,34-34s34,15.252,34,34
		C23.667,205.248,8.414,220.5-10.333,220.5z"/>
	<path clip-path="url(#SVGID_2_)" fill="none" stroke="#000000" stroke-miterlimit="10" d="M150.667,174.136
		c-6.817,0-12.364,5.547-12.364,12.364c0,6.818,5.547,12.364,12.364,12.364c6.817,0,12.364-5.546,12.364-12.364
		C163.03,179.683,157.483,174.136,150.667,174.136z M150.667,220.5c-18.748,0-34-15.252-34-34c0-18.748,15.252-34,34-34
		c18.748,0,34,15.252,34,34C184.667,205.248,169.414,220.5,150.667,220.5z"/>
	<path clip-path="url(#SVGID_2_)" fill="none" stroke="#000000" stroke-miterlimit="10" d="M311.333,174.136
		c-6.817,0-12.364,5.547-12.364,12.364c0,6.818,5.547,12.364,12.364,12.364c6.817,0,12.364-5.546,12.364-12.364
		C323.697,179.683,318.15,174.136,311.333,174.136z M311.333,220.5c-18.748,0-34-15.252-34-34c0-18.748,15.252-34,34-34
		c18.748,0,34,15.252,34,34C345.333,205.248,330.081,220.5,311.333,220.5z"/>
	<path clip-path="url(#SVGID_2_)" fill="none" stroke="#000000" stroke-miterlimit="10" d="M471.667,174.136
		c-6.817,0-12.364,5.547-12.364,12.364c0,6.818,5.547,12.364,12.364,12.364c6.817,0,12.364-5.546,12.364-12.364
		C484.03,179.683,478.483,174.136,471.667,174.136z M471.667,220.5c-18.748,0-34-15.252-34-34c0-18.748,15.252-34,34-34
		c18.748,0,34,15.252,34,34C505.667,205.248,490.414,220.5,471.667,220.5z"/>
	<path clip-path="url(#SVGID_2_)" fill="none" stroke="#000000" stroke-miterlimit="10" d="M632.667,174.136
		c-6.817,0-12.364,5.547-12.364,12.364c0,6.818,5.547,12.364,12.364,12.364c6.817,0,12.364-5.546,12.364-12.364
		C645.03,179.683,639.483,174.136,632.667,174.136z M632.667,220.5c-18.748,0-34-15.252-34-34c0-18.748,15.252-34,34-34
		c18.748,0,34,15.252,34,34C666.667,205.248,651.414,220.5,632.667,220.5z"/>
	<path clip-path="url(#SVGID_2_)" fill="none" stroke="#000000" stroke-miterlimit="10" d="M793.333,174.136
		c-6.817,0-12.364,5.547-12.364,12.364c0,6.818,5.547,12.364,12.364,12.364c6.817,0,12.364-5.546,12.364-12.364
		C805.697,179.683,800.15,174.136,793.333,174.136z M793.333,220.5c-18.748,0-34-15.252-34-34c0-18.748,15.252-34,34-34
		c18.748,0,34,15.252,34,34C827.333,205.248,812.081,220.5,793.333,220.5z"/>
	<path clip-path="url(#SVGID_2_)" fill="none" stroke="#000000" stroke-miterlimit="10" d="M873.667,174.136
		c-6.817,0-12.364,5.547-12.364,12.364c0,6.818,5.547,12.364,12.364,12.364c6.817,0,12.364-5.546,12.364-12.364
		C886.03,179.683,880.483,174.136,873.667,174.136z M873.667,220.5c-18.748,0-34-15.252-34-34c0-18.748,15.252-34,34-34
		c18.748,0,34,15.252,34,34C907.667,205.248,892.414,220.5,873.667,220.5z"/>
	<path clip-path="url(#SVGID_2_)" fill="none" stroke="#000000" stroke-miterlimit="10" d="M954,174.136
		c-6.817,0-12.364,5.547-12.364,12.364c0,6.818,5.547,12.364,12.364,12.364c6.817,0,12.364-5.546,12.364-12.364
		C966.364,179.683,960.817,174.136,954,174.136z M954,220.5c-18.748,0-34-15.252-34-34c0-18.748,15.252-34,34-34
		c18.748,0,34,15.252,34,34C988,205.248,972.748,220.5,954,220.5z"/>
	<path clip-path="url(#SVGID_2_)" fill="none" stroke="#000000" stroke-miterlimit="10" d="M1034,174.136
		c-6.817,0-12.364,5.547-12.364,12.364c0,6.818,5.547,12.364,12.364,12.364c6.817,0,12.364-5.546,12.364-12.364
		C1046.364,179.683,1040.817,174.136,1034,174.136z M1034,220.5c-18.748,0-34-15.252-34-34c0-18.748,15.252-34,34-34
		c18.748,0,34,15.252,34,34C1068,205.248,1052.748,220.5,1034,220.5z"/>
	<path clip-path="url(#SVGID_2_)" fill="none" stroke="#000000" stroke-miterlimit="10" d="M-50.5,321.091
		c-14.804,0-26.848,12.071-26.848,26.909c0,14.838,12.044,26.909,26.848,26.909S-23.652,362.838-23.652,348
		C-23.652,333.162-35.696,321.091-50.5,321.091z M-50.5,422c-40.712,0-73.833-33.196-73.833-74s33.121-74,73.833-74
		s73.833,33.196,73.833,74S-9.788,422-50.5,422z"/>
	<path clip-path="url(#SVGID_2_)" fill="none" stroke="#000000" stroke-miterlimit="10" d="M110.5,321.091
		c-14.804,0-26.848,12.071-26.848,26.909c0,14.838,12.044,26.909,26.848,26.909c14.804,0,26.848-12.071,26.848-26.909
		C137.348,333.162,125.304,321.091,110.5,321.091z M110.5,422c-40.712,0-73.833-33.196-73.833-74s33.121-74,73.833-74
		s73.833,33.196,73.833,74S151.212,422,110.5,422z"/>
	<path clip-path="url(#SVGID_2_)" fill="none" stroke="#000000" stroke-miterlimit="10" d="M271.167,321.091
		c-14.804,0-26.849,12.071-26.849,26.909c0,14.838,12.045,26.909,26.849,26.909c14.804,0,26.848-12.071,26.848-26.909
		C298.014,333.162,285.97,321.091,271.167,321.091z M271.167,422c-40.712,0-73.833-33.196-73.833-74s33.121-74,73.833-74
		s73.833,33.196,73.833,74S311.878,422,271.167,422z"/>
	<path clip-path="url(#SVGID_2_)" fill="none" stroke="#000000" stroke-miterlimit="10" d="M431.5,321.091
		c-14.804,0-26.848,12.071-26.848,26.909c0,14.838,12.044,26.909,26.848,26.909c14.804,0,26.849-12.071,26.849-26.909
		C458.349,333.162,446.304,321.091,431.5,321.091z M431.5,422c-40.712,0-73.833-33.196-73.833-74s33.121-74,73.833-74
		c40.712,0,73.833,33.196,73.833,74S472.212,422,431.5,422z"/>
	<path clip-path="url(#SVGID_2_)" fill="none" stroke="#000000" stroke-miterlimit="10" d="M592.5,321.091
		c-14.804,0-26.848,12.071-26.848,26.909c0,14.838,12.044,26.909,26.848,26.909c14.804,0,26.849-12.071,26.849-26.909
		C619.349,333.162,607.304,321.091,592.5,321.091z M592.5,422c-40.712,0-73.833-33.196-73.833-74s33.121-74,73.833-74
		c40.712,0,73.833,33.196,73.833,74S633.212,422,592.5,422z"/>
	<path clip-path="url(#SVGID_2_)" fill="none" stroke="#000000" stroke-miterlimit="10" d="M753.167,321.091
		c-14.804,0-26.848,12.071-26.848,26.909c0,14.838,12.044,26.909,26.848,26.909c14.804,0,26.849-12.071,26.849-26.909
		C780.016,333.162,767.97,321.091,753.167,321.091z M753.167,422c-40.712,0-73.833-33.196-73.833-74s33.121-74,73.833-74
		c40.712,0,73.833,33.196,73.833,74S793.878,422,753.167,422z"/>
	<path clip-path="url(#SVGID_2_)" fill="none" stroke="#000000" stroke-miterlimit="10" d="M29.5,321.091
		c-14.804,0-26.848,12.071-26.848,26.909c0,14.838,12.044,26.909,26.848,26.909c14.804,0,26.848-12.071,26.848-26.909
		C56.348,333.162,44.304,321.091,29.5,321.091z M29.5,422c-40.712,0-73.833-33.196-73.833-74s33.121-74,73.833-74
		s73.833,33.196,73.833,74S70.212,422,29.5,422z"/>
	<path clip-path="url(#SVGID_2_)" fill="none" stroke="#000000" stroke-miterlimit="10" d="M190.5,321.091
		c-14.804,0-26.848,12.071-26.848,26.909c0,14.838,12.044,26.909,26.848,26.909c14.804,0,26.849-12.071,26.849-26.909
		C217.349,333.162,205.304,321.091,190.5,321.091z M190.5,422c-40.712,0-73.833-33.196-73.833-74s33.121-74,73.833-74
		s73.833,33.196,73.833,74S231.212,422,190.5,422z"/>
	<path clip-path="url(#SVGID_2_)" fill="none" stroke="#000000" stroke-miterlimit="10" d="M351.167,321.091
		c-14.804,0-26.849,12.071-26.849,26.909c0,14.838,12.045,26.909,26.849,26.909c14.804,0,26.848-12.071,26.848-26.909
		C378.014,333.162,365.97,321.091,351.167,321.091z M351.167,422c-40.712,0-73.833-33.196-73.833-74s33.121-74,73.833-74
		s73.833,33.196,73.833,74S391.878,422,351.167,422z"/>
	<path clip-path="url(#SVGID_2_)" fill="none" stroke="#000000" stroke-miterlimit="10" d="M511.5,321.091
		c-14.804,0-26.848,12.071-26.848,26.909c0,14.838,12.044,26.909,26.848,26.909c14.804,0,26.849-12.071,26.849-26.909
		C538.349,333.162,526.304,321.091,511.5,321.091z M511.5,422c-40.712,0-73.833-33.196-73.833-74s33.121-74,73.833-74
		c40.712,0,73.833,33.196,73.833,74S552.212,422,511.5,422z"/>
	<path clip-path="url(#SVGID_2_)" fill="none" stroke="#000000" stroke-miterlimit="10" d="M672.5,321.091
		c-14.804,0-26.848,12.071-26.848,26.909c0,14.838,12.044,26.909,26.848,26.909c14.804,0,26.849-12.071,26.849-26.909
		C699.349,333.162,687.304,321.091,672.5,321.091z M672.5,422c-40.712,0-73.833-33.196-73.833-74s33.121-74,73.833-74
		c40.712,0,73.833,33.196,73.833,74S713.212,422,672.5,422z"/>
	<path clip-path="url(#SVGID_2_)" fill="none" stroke="#000000" stroke-miterlimit="10" d="M833.167,321.091
		c-14.804,0-26.848,12.071-26.848,26.909c0,14.838,12.044,26.909,26.848,26.909c14.804,0,26.849-12.071,26.849-26.909
		C860.016,333.162,847.97,321.091,833.167,321.091z M833.167,422c-40.712,0-73.833-33.196-73.833-74s33.121-74,73.833-74
		c40.712,0,73.833,33.196,73.833,74S873.878,422,833.167,422z"/>
	<path clip-path="url(#SVGID_2_)" fill="none" stroke="#000000" stroke-miterlimit="10" d="M913.5,321.091
		c-14.804,0-26.849,12.071-26.849,26.909c0,14.838,12.045,26.909,26.849,26.909c14.804,0,26.849-12.071,26.849-26.909
		C940.349,333.162,928.304,321.091,913.5,321.091z M913.5,422c-40.712,0-73.833-33.196-73.833-74s33.121-74,73.833-74
		c40.712,0,73.833,33.196,73.833,74S954.212,422,913.5,422z"/>
	<path clip-path="url(#SVGID_2_)" fill="none" stroke="#000000" stroke-miterlimit="10" d="M993.833,321.091
		c-14.804,0-26.849,12.071-26.849,26.909c0,14.838,12.045,26.909,26.849,26.909c14.804,0,26.848-12.071,26.848-26.909
		C1020.681,333.162,1008.637,321.091,993.833,321.091z M993.833,422C953.121,422,920,388.804,920,348s33.121-74,73.833-74
		c40.712,0,73.833,33.196,73.833,74S1034.545,422,993.833,422z"/>
	<path clip-path="url(#SVGID_2_)" fill="none" stroke="#000000" stroke-miterlimit="10" d="M1073.833,321.091
		c-14.804,0-26.849,12.071-26.849,26.909c0,14.838,12.045,26.909,26.849,26.909c14.804,0,26.848-12.071,26.848-26.909
		C1100.681,333.162,1088.637,321.091,1073.833,321.091z M1073.833,422c-40.712,0-73.833-33.196-73.833-74s33.121-74,73.833-74
		c40.712,0,73.833,33.196,73.833,74S1114.545,422,1073.833,422z"/>
	<path clip-path="url(#SVGID_2_)" fill="none" stroke="#000000" stroke-miterlimit="10" d="M-10,447.636
		c-6.817,0-12.364,5.547-12.364,12.364c0,6.818,5.547,12.364,12.364,12.364c6.817,0,12.364-5.546,12.364-12.364
		C2.364,453.183-3.183,447.636-10,447.636z M-10,494c-18.748,0-34-15.252-34-34c0-18.748,15.252-34,34-34s34,15.252,34,34
		C24,478.748,8.748,494-10,494z"/>
	<path clip-path="url(#SVGID_2_)" fill="none" stroke="#000000" stroke-miterlimit="10" d="M151,447.636
		c-6.817,0-12.364,5.547-12.364,12.364c0,6.818,5.547,12.364,12.364,12.364c6.817,0,12.364-5.546,12.364-12.364
		C163.364,453.183,157.817,447.636,151,447.636z M151,494c-18.748,0-34-15.252-34-34c0-18.748,15.252-34,34-34
		c18.748,0,34,15.252,34,34C185,478.748,169.748,494,151,494z"/>
	<path clip-path="url(#SVGID_2_)" fill="none" stroke="#000000" stroke-miterlimit="10" d="M311.667,447.636
		c-6.817,0-12.364,5.547-12.364,12.364c0,6.818,5.547,12.364,12.364,12.364c6.817,0,12.364-5.546,12.364-12.364
		C324.03,453.183,318.483,447.636,311.667,447.636z M311.667,494c-18.748,0-34-15.252-34-34c0-18.748,15.252-34,34-34
		c18.748,0,34,15.252,34,34C345.667,478.748,330.414,494,311.667,494z"/>
	<path clip-path="url(#SVGID_2_)" fill="none" stroke="#000000" stroke-miterlimit="10" d="M472,447.636
		c-6.817,0-12.364,5.547-12.364,12.364c0,6.818,5.547,12.364,12.364,12.364c6.817,0,12.364-5.546,12.364-12.364
		C484.364,453.183,478.817,447.636,472,447.636z M472,494c-18.748,0-34-15.252-34-34c0-18.748,15.252-34,34-34
		c18.748,0,34,15.252,34,34C506,478.748,490.748,494,472,494z"/>
	<path clip-path="url(#SVGID_2_)" fill="none" stroke="#000000" stroke-miterlimit="10" d="M633,447.636
		c-6.817,0-12.364,5.547-12.364,12.364c0,6.818,5.547,12.364,12.364,12.364c6.817,0,12.364-5.546,12.364-12.364
		C645.364,453.183,639.817,447.636,633,447.636z M633,494c-18.748,0-34-15.252-34-34c0-18.748,15.252-34,34-34
		c18.748,0,34,15.252,34,34C667,478.748,651.748,494,633,494z"/>
	<path clip-path="url(#SVGID_2_)" fill="none" stroke="#000000" stroke-miterlimit="10" d="M793.667,447.636
		c-6.817,0-12.364,5.547-12.364,12.364c0,6.818,5.547,12.364,12.364,12.364c6.817,0,12.364-5.546,12.364-12.364
		C806.03,453.183,800.483,447.636,793.667,447.636z M793.667,494c-18.748,0-34-15.252-34-34c0-18.748,15.252-34,34-34
		c18.748,0,34,15.252,34,34C827.667,478.748,812.414,494,793.667,494z"/>
	<path clip-path="url(#SVGID_2_)" fill="none" stroke="#000000" stroke-miterlimit="10" d="M874,447.636
		c-6.817,0-12.364,5.547-12.364,12.364c0,6.818,5.547,12.364,12.364,12.364c6.817,0,12.364-5.546,12.364-12.364
		C886.364,453.183,880.817,447.636,874,447.636z M874,494c-18.748,0-34-15.252-34-34c0-18.748,15.252-34,34-34
		c18.748,0,34,15.252,34,34C908,478.748,892.748,494,874,494z"/>
	<path clip-path="url(#SVGID_2_)" fill="none" stroke="#000000" stroke-miterlimit="10" d="M954.333,447.636
		c-6.817,0-12.364,5.547-12.364,12.364c0,6.818,5.547,12.364,12.364,12.364c6.817,0,12.364-5.546,12.364-12.364
		C966.697,453.183,961.15,447.636,954.333,447.636z M954.333,494c-18.748,0-34-15.252-34-34c0-18.748,15.252-34,34-34
		c18.748,0,34,15.252,34,34C988.333,478.748,973.081,494,954.333,494z"/>
	<path clip-path="url(#SVGID_2_)" fill="none" stroke="#000000" stroke-miterlimit="10" d="M1034.333,447.636
		c-6.817,0-12.364,5.547-12.364,12.364c0,6.818,5.547,12.364,12.364,12.364c6.817,0,12.364-5.546,12.364-12.364
		C1046.697,453.183,1041.15,447.636,1034.333,447.636z M1034.333,494c-18.748,0-34-15.252-34-34c0-18.748,15.252-34,34-34
		c18.748,0,34,15.252,34,34C1068.333,478.748,1053.081,494,1034.333,494z"/>
	<path clip-path="url(#SVGID_2_)" fill="none" stroke="#000000" stroke-miterlimit="10" d="M70,447.636
		c-6.817,0-12.364,5.547-12.364,12.364c0,6.818,5.547,12.364,12.364,12.364c6.817,0,12.364-5.546,12.364-12.364
		C82.364,453.183,76.817,447.636,70,447.636z M70,494c-18.748,0-34-15.252-34-34c0-18.748,15.252-34,34-34s34,15.252,34,34
		C104,478.748,88.748,494,70,494z"/>
	<path clip-path="url(#SVGID_2_)" fill="none" stroke="#000000" stroke-miterlimit="10" d="M231,447.636
		c-6.817,0-12.364,5.547-12.364,12.364c0,6.818,5.547,12.364,12.364,12.364c6.817,0,12.364-5.546,12.364-12.364
		C243.364,453.183,237.817,447.636,231,447.636z M231,494c-18.748,0-34-15.252-34-34c0-18.748,15.252-34,34-34
		c18.748,0,34,15.252,34,34C265,478.748,249.748,494,231,494z"/>
	<path clip-path="url(#SVGID_2_)" fill="none" stroke="#000000" stroke-miterlimit="10" d="M391.667,447.636
		c-6.817,0-12.364,5.547-12.364,12.364c0,6.818,5.547,12.364,12.364,12.364c6.817,0,12.364-5.546,12.364-12.364
		C404.03,453.183,398.483,447.636,391.667,447.636z M391.667,494c-18.748,0-34-15.252-34-34c0-18.748,15.252-34,34-34
		c18.748,0,34,15.252,34,34C425.667,478.748,410.414,494,391.667,494z"/>
	<path clip-path="url(#SVGID_2_)" fill="none" stroke="#000000" stroke-miterlimit="10" d="M552,447.636
		c-6.817,0-12.364,5.547-12.364,12.364c0,6.818,5.547,12.364,12.364,12.364c6.817,0,12.364-5.546,12.364-12.364
		C564.364,453.183,558.817,447.636,552,447.636z M552,494c-18.748,0-34-15.252-34-34c0-18.748,15.252-34,34-34
		c18.748,0,34,15.252,34,34C586,478.748,570.748,494,552,494z"/>
	<path clip-path="url(#SVGID_2_)" fill="none" stroke="#000000" stroke-miterlimit="10" d="M713,447.636
		c-6.817,0-12.364,5.547-12.364,12.364c0,6.818,5.547,12.364,12.364,12.364c6.817,0,12.364-5.546,12.364-12.364
		C725.364,453.183,719.817,447.636,713,447.636z M713,494c-18.748,0-34-15.252-34-34c0-18.748,15.252-34,34-34
		c18.748,0,34,15.252,34,34C747,478.748,731.748,494,713,494z"/>
	<path clip-path="url(#SVGID_2_)" fill="none" stroke="#000000" stroke-miterlimit="10" d="M873.667,447.636
		c-6.817,0-12.364,5.547-12.364,12.364c0,6.818,5.547,12.364,12.364,12.364c6.817,0,12.364-5.546,12.364-12.364
		C886.03,453.183,880.483,447.636,873.667,447.636z M873.667,494c-18.748,0-34-15.252-34-34c0-18.748,15.252-34,34-34
		c18.748,0,34,15.252,34,34C907.667,478.748,892.414,494,873.667,494z"/>
	<path clip-path="url(#SVGID_2_)" fill="none" stroke="#000000" stroke-miterlimit="10" d="M954,447.636
		c-6.817,0-12.364,5.547-12.364,12.364c0,6.818,5.547,12.364,12.364,12.364c6.817,0,12.364-5.546,12.364-12.364
		C966.364,453.183,960.817,447.636,954,447.636z M954,494c-18.748,0-34-15.252-34-34c0-18.748,15.252-34,34-34
		c18.748,0,34,15.252,34,34C988,478.748,972.748,494,954,494z"/>
	<path clip-path="url(#SVGID_2_)" fill="none" stroke="#000000" stroke-miterlimit="10" d="M1034.333,447.636
		c-6.817,0-12.364,5.547-12.364,12.364c0,6.818,5.547,12.364,12.364,12.364c6.817,0,12.364-5.546,12.364-12.364
		C1046.697,453.183,1041.15,447.636,1034.333,447.636z M1034.333,494c-18.748,0-34-15.252-34-34c0-18.748,15.252-34,34-34
		c18.748,0,34,15.252,34,34C1068.333,478.748,1053.081,494,1034.333,494z"/>
	<path clip-path="url(#SVGID_2_)" fill="none" stroke="#000000" stroke-miterlimit="10" d="M70.667,447.636
		c-6.817,0-12.364,5.547-12.364,12.364c0,6.818,5.547,12.364,12.364,12.364c6.817,0,12.364-5.546,12.364-12.364
		C83.031,453.183,77.483,447.636,70.667,447.636z M70.667,494c-18.748,0-34-15.252-34-34c0-18.748,15.252-34,34-34s34,15.252,34,34
		C104.667,478.748,89.414,494,70.667,494z"/>
	<path clip-path="url(#SVGID_2_)" fill="none" stroke="#000000" stroke-miterlimit="10" d="M231.333,447.636
		c-6.817,0-12.364,5.547-12.364,12.364c0,6.818,5.547,12.364,12.364,12.364c6.817,0,12.364-5.546,12.364-12.364
		C243.697,453.183,238.15,447.636,231.333,447.636z M231.333,494c-18.748,0-34-15.252-34-34c0-18.748,15.252-34,34-34
		c18.748,0,34,15.252,34,34C265.333,478.748,250.081,494,231.333,494z"/>
	<path clip-path="url(#SVGID_2_)" fill="none" stroke="#000000" stroke-miterlimit="10" d="M391.667,447.636
		c-6.817,0-12.364,5.547-12.364,12.364c0,6.818,5.547,12.364,12.364,12.364c6.817,0,12.364-5.546,12.364-12.364
		C404.03,453.183,398.483,447.636,391.667,447.636z M391.667,494c-18.748,0-34-15.252-34-34c0-18.748,15.252-34,34-34
		c18.748,0,34,15.252,34,34C425.667,478.748,410.414,494,391.667,494z"/>
	<path clip-path="url(#SVGID_2_)" fill="none" stroke="#000000" stroke-miterlimit="10" d="M552.667,447.636
		c-6.817,0-12.364,5.547-12.364,12.364c0,6.818,5.547,12.364,12.364,12.364c6.817,0,12.364-5.546,12.364-12.364
		C565.03,453.183,559.483,447.636,552.667,447.636z M552.667,494c-18.748,0-34-15.252-34-34c0-18.748,15.252-34,34-34
		c18.748,0,34,15.252,34,34C586.667,478.748,571.414,494,552.667,494z"/>
	<path clip-path="url(#SVGID_2_)" fill="none" stroke="#000000" stroke-miterlimit="10" d="M713.333,447.636
		c-6.817,0-12.364,5.547-12.364,12.364c0,6.818,5.547,12.364,12.364,12.364c6.817,0,12.364-5.546,12.364-12.364
		C725.697,453.183,720.15,447.636,713.333,447.636z M713.333,494c-18.748,0-34-15.252-34-34c0-18.748,15.252-34,34-34
		c18.748,0,34,15.252,34,34C747.333,478.748,732.081,494,713.333,494z"/>
	<path clip-path="url(#SVGID_2_)" fill="none" stroke="#000000" stroke-miterlimit="10" d="M-10.333,447.636
		c-6.817,0-12.364,5.547-12.364,12.364c0,6.818,5.547,12.364,12.364,12.364c6.817,0,12.364-5.546,12.364-12.364
		C2.031,453.183-3.517,447.636-10.333,447.636z M-10.333,494c-18.748,0-34-15.252-34-34c0-18.748,15.252-34,34-34s34,15.252,34,34
		C23.667,478.748,8.414,494-10.333,494z"/>
	<path clip-path="url(#SVGID_2_)" fill="none" stroke="#000000" stroke-miterlimit="10" d="M150.667,447.636
		c-6.817,0-12.364,5.547-12.364,12.364c0,6.818,5.547,12.364,12.364,12.364c6.817,0,12.364-5.546,12.364-12.364
		C163.03,453.183,157.483,447.636,150.667,447.636z M150.667,494c-18.748,0-34-15.252-34-34c0-18.748,15.252-34,34-34
		c18.748,0,34,15.252,34,34C184.667,478.748,169.414,494,150.667,494z"/>
	<path clip-path="url(#SVGID_2_)" fill="none" stroke="#000000" stroke-miterlimit="10" d="M311.333,447.636
		c-6.817,0-12.364,5.547-12.364,12.364c0,6.818,5.547,12.364,12.364,12.364c6.817,0,12.364-5.546,12.364-12.364
		C323.697,453.183,318.15,447.636,311.333,447.636z M311.333,494c-18.748,0-34-15.252-34-34c0-18.748,15.252-34,34-34
		c18.748,0,34,15.252,34,34C345.333,478.748,330.081,494,311.333,494z"/>
	<path clip-path="url(#SVGID_2_)" fill="none" stroke="#000000" stroke-miterlimit="10" d="M471.667,447.636
		c-6.817,0-12.364,5.547-12.364,12.364c0,6.818,5.547,12.364,12.364,12.364c6.817,0,12.364-5.546,12.364-12.364
		C484.03,453.183,478.483,447.636,471.667,447.636z M471.667,494c-18.748,0-34-15.252-34-34c0-18.748,15.252-34,34-34
		c18.748,0,34,15.252,34,34C505.667,478.748,490.414,494,471.667,494z"/>
	<path clip-path="url(#SVGID_2_)" fill="none" stroke="#000000" stroke-miterlimit="10" d="M632.667,447.636
		c-6.817,0-12.364,5.547-12.364,12.364c0,6.818,5.547,12.364,12.364,12.364c6.817,0,12.364-5.546,12.364-12.364
		C645.03,453.183,639.483,447.636,632.667,447.636z M632.667,494c-18.748,0-34-15.252-34-34c0-18.748,15.252-34,34-34
		c18.748,0,34,15.252,34,34C666.667,478.748,651.414,494,632.667,494z"/>
	<path clip-path="url(#SVGID_2_)" fill="none" stroke="#000000" stroke-miterlimit="10" d="M793.333,447.636
		c-6.817,0-12.364,5.547-12.364,12.364c0,6.818,5.547,12.364,12.364,12.364c6.817,0,12.364-5.546,12.364-12.364
		C805.697,453.183,800.15,447.636,793.333,447.636z M793.333,494c-18.748,0-34-15.252-34-34c0-18.748,15.252-34,34-34
		c18.748,0,34,15.252,34,34C827.333,478.748,812.081,494,793.333,494z"/>
	<path clip-path="url(#SVGID_2_)" fill="none" stroke="#000000" stroke-miterlimit="10" d="M873.667,447.636
		c-6.817,0-12.364,5.547-12.364,12.364c0,6.818,5.547,12.364,12.364,12.364c6.817,0,12.364-5.546,12.364-12.364
		C886.03,453.183,880.483,447.636,873.667,447.636z M873.667,494c-18.748,0-34-15.252-34-34c0-18.748,15.252-34,34-34
		c18.748,0,34,15.252,34,34C907.667,478.748,892.414,494,873.667,494z"/>
	<path clip-path="url(#SVGID_2_)" fill="none" stroke="#000000" stroke-miterlimit="10" d="M954,447.636
		c-6.817,0-12.364,5.547-12.364,12.364c0,6.818,5.547,12.364,12.364,12.364c6.817,0,12.364-5.546,12.364-12.364
		C966.364,453.183,960.817,447.636,954,447.636z M954,494c-18.748,0-34-15.252-34-34c0-18.748,15.252-34,34-34
		c18.748,0,34,15.252,34,34C988,478.748,972.748,494,954,494z"/>
	<path clip-path="url(#SVGID_2_)" fill="none" stroke="#000000" stroke-miterlimit="10" d="M1034,447.636
		c-6.817,0-12.364,5.547-12.364,12.364c0,6.818,5.547,12.364,12.364,12.364c6.817,0,12.364-5.546,12.364-12.364
		C1046.364,453.183,1040.817,447.636,1034,447.636z M1034,494c-18.748,0-34-15.252-34-34c0-18.748,15.252-34,34-34
		c18.748,0,34,15.252,34,34C1068,478.748,1052.748,494,1034,494z"/>
	<path clip-path="url(#SVGID_2_)" fill="none" stroke="#000000" stroke-miterlimit="10" d="M-50.5,594.591
		c-14.804,0-26.848,12.071-26.848,26.909s12.044,26.909,26.848,26.909s26.848-12.071,26.848-26.909S-35.696,594.591-50.5,594.591z
		 M-50.5,695.5c-40.712,0-73.833-33.196-73.833-74s33.121-74,73.833-74s73.833,33.196,73.833,74S-9.788,695.5-50.5,695.5z"/>
	<path clip-path="url(#SVGID_2_)" fill="none" stroke="#000000" stroke-miterlimit="10" d="M110.5,594.591
		c-14.804,0-26.848,12.071-26.848,26.909s12.044,26.909,26.848,26.909c14.804,0,26.848-12.071,26.848-26.909
		S125.304,594.591,110.5,594.591z M110.5,695.5c-40.712,0-73.833-33.196-73.833-74s33.121-74,73.833-74s73.833,33.196,73.833,74
		S151.212,695.5,110.5,695.5z"/>
	<path clip-path="url(#SVGID_2_)" fill="none" stroke="#000000" stroke-miterlimit="10" d="M271.167,594.591
		c-14.804,0-26.849,12.071-26.849,26.909s12.045,26.909,26.849,26.909c14.804,0,26.848-12.071,26.848-26.909
		S285.97,594.591,271.167,594.591z M271.167,695.5c-40.712,0-73.833-33.196-73.833-74s33.121-74,73.833-74s73.833,33.196,73.833,74
		S311.878,695.5,271.167,695.5z"/>
	<path clip-path="url(#SVGID_2_)" fill="none" stroke="#000000" stroke-miterlimit="10" d="M431.5,594.591
		c-14.804,0-26.848,12.071-26.848,26.909s12.044,26.909,26.848,26.909c14.804,0,26.849-12.071,26.849-26.909
		S446.304,594.591,431.5,594.591z M431.5,695.5c-40.712,0-73.833-33.196-73.833-74s33.121-74,73.833-74
		c40.712,0,73.833,33.196,73.833,74S472.212,695.5,431.5,695.5z"/>
	<path clip-path="url(#SVGID_2_)" fill="none" stroke="#000000" stroke-miterlimit="10" d="M592.5,594.591
		c-14.804,0-26.848,12.071-26.848,26.909s12.044,26.909,26.848,26.909c14.804,0,26.849-12.071,26.849-26.909
		S607.304,594.591,592.5,594.591z M592.5,695.5c-40.712,0-73.833-33.196-73.833-74s33.121-74,73.833-74
		c40.712,0,73.833,33.196,73.833,74S633.212,695.5,592.5,695.5z"/>
	<path clip-path="url(#SVGID_2_)" fill="none" stroke="#000000" stroke-miterlimit="10" d="M753.167,594.591
		c-14.804,0-26.848,12.071-26.848,26.909s12.044,26.909,26.848,26.909c14.804,0,26.849-12.071,26.849-26.909
		S767.97,594.591,753.167,594.591z M753.167,695.5c-40.712,0-73.833-33.196-73.833-74s33.121-74,73.833-74
		c40.712,0,73.833,33.196,73.833,74S793.878,695.5,753.167,695.5z"/>
	<path clip-path="url(#SVGID_2_)" fill="none" stroke="#000000" stroke-miterlimit="10" d="M29.5,594.591
		c-14.804,0-26.848,12.071-26.848,26.909s12.044,26.909,26.848,26.909c14.804,0,26.848-12.071,26.848-26.909
		S44.304,594.591,29.5,594.591z M29.5,695.5c-40.712,0-73.833-33.196-73.833-74s33.121-74,73.833-74s73.833,33.196,73.833,74
		S70.212,695.5,29.5,695.5z"/>
	<path clip-path="url(#SVGID_2_)" fill="none" stroke="#000000" stroke-miterlimit="10" d="M190.5,594.591
		c-14.804,0-26.848,12.071-26.848,26.909s12.044,26.909,26.848,26.909c14.804,0,26.849-12.071,26.849-26.909
		S205.304,594.591,190.5,594.591z M190.5,695.5c-40.712,0-73.833-33.196-73.833-74s33.121-74,73.833-74s73.833,33.196,73.833,74
		S231.212,695.5,190.5,695.5z"/>
	<path clip-path="url(#SVGID_2_)" fill="none" stroke="#000000" stroke-miterlimit="10" d="M351.167,594.591
		c-14.804,0-26.849,12.071-26.849,26.909s12.045,26.909,26.849,26.909c14.804,0,26.848-12.071,26.848-26.909
		S365.97,594.591,351.167,594.591z M351.167,695.5c-40.712,0-73.833-33.196-73.833-74s33.121-74,73.833-74s73.833,33.196,73.833,74
		S391.878,695.5,351.167,695.5z"/>
	<path clip-path="url(#SVGID_2_)" fill="none" stroke="#000000" stroke-miterlimit="10" d="M511.5,594.591
		c-14.804,0-26.848,12.071-26.848,26.909s12.044,26.909,26.848,26.909c14.804,0,26.849-12.071,26.849-26.909
		S526.304,594.591,511.5,594.591z M511.5,695.5c-40.712,0-73.833-33.196-73.833-74s33.121-74,73.833-74
		c40.712,0,73.833,33.196,73.833,74S552.212,695.5,511.5,695.5z"/>
	<path clip-path="url(#SVGID_2_)" fill="none" stroke="#000000" stroke-miterlimit="10" d="M672.5,594.591
		c-14.804,0-26.848,12.071-26.848,26.909s12.044,26.909,26.848,26.909c14.804,0,26.849-12.071,26.849-26.909
		S687.304,594.591,672.5,594.591z M672.5,695.5c-40.712,0-73.833-33.196-73.833-74s33.121-74,73.833-74
		c40.712,0,73.833,33.196,73.833,74S713.212,695.5,672.5,695.5z"/>
	<path clip-path="url(#SVGID_2_)" fill="none" stroke="#000000" stroke-miterlimit="10" d="M833.167,594.591
		c-14.804,0-26.848,12.071-26.848,26.909s12.044,26.909,26.848,26.909c14.804,0,26.849-12.071,26.849-26.909
		S847.97,594.591,833.167,594.591z M833.167,695.5c-40.712,0-73.833-33.196-73.833-74s33.121-74,73.833-74
		c40.712,0,73.833,33.196,73.833,74S873.878,695.5,833.167,695.5z"/>
	<path clip-path="url(#SVGID_2_)" fill="none" stroke="#000000" stroke-miterlimit="10" d="M913.5,594.591
		c-14.804,0-26.849,12.071-26.849,26.909s12.045,26.909,26.849,26.909c14.804,0,26.849-12.071,26.849-26.909
		S928.304,594.591,913.5,594.591z M913.5,695.5c-40.712,0-73.833-33.196-73.833-74s33.121-74,73.833-74
		c40.712,0,73.833,33.196,73.833,74S954.212,695.5,913.5,695.5z"/>
	<path clip-path="url(#SVGID_2_)" fill="none" stroke="#000000" stroke-miterlimit="10" d="M993.833,594.591
		c-14.804,0-26.849,12.071-26.849,26.909s12.045,26.909,26.849,26.909c14.804,0,26.848-12.071,26.848-26.909
		S1008.637,594.591,993.833,594.591z M993.833,695.5c-40.712,0-73.833-33.196-73.833-74s33.121-74,73.833-74
		c40.712,0,73.833,33.196,73.833,74S1034.545,695.5,993.833,695.5z"/>
	<path clip-path="url(#SVGID_2_)" fill="none" stroke="#000000" stroke-miterlimit="10" d="M1073.833,594.591
		c-14.804,0-26.849,12.071-26.849,26.909s12.045,26.909,26.849,26.909c14.804,0,26.848-12.071,26.848-26.909
		S1088.637,594.591,1073.833,594.591z M1073.833,695.5c-40.712,0-73.833-33.196-73.833-74s33.121-74,73.833-74
		c40.712,0,73.833,33.196,73.833,74S1114.545,695.5,1073.833,695.5z"/>
	<path clip-path="url(#SVGID_2_)" fill="none" stroke="#000000" stroke-miterlimit="10" d="M-10,721.136
		c-6.817,0-12.364,5.547-12.364,12.364c0,6.818,5.547,12.364,12.364,12.364c6.817,0,12.364-5.546,12.364-12.364
		C2.364,726.683-3.183,721.136-10,721.136z M-10,767.5c-18.748,0-34-15.252-34-34s15.252-34,34-34s34,15.252,34,34
		S8.748,767.5-10,767.5z"/>
	<path clip-path="url(#SVGID_2_)" fill="none" stroke="#000000" stroke-miterlimit="10" d="M151,721.136
		c-6.817,0-12.364,5.547-12.364,12.364c0,6.818,5.547,12.364,12.364,12.364c6.817,0,12.364-5.546,12.364-12.364
		C163.364,726.683,157.817,721.136,151,721.136z M151,767.5c-18.748,0-34-15.252-34-34s15.252-34,34-34c18.748,0,34,15.252,34,34
		S169.748,767.5,151,767.5z"/>
	<path clip-path="url(#SVGID_2_)" fill="none" stroke="#000000" stroke-miterlimit="10" d="M311.667,721.136
		c-6.817,0-12.364,5.547-12.364,12.364c0,6.818,5.547,12.364,12.364,12.364c6.817,0,12.364-5.546,12.364-12.364
		C324.03,726.683,318.483,721.136,311.667,721.136z M311.667,767.5c-18.748,0-34-15.252-34-34s15.252-34,34-34
		c18.748,0,34,15.252,34,34S330.414,767.5,311.667,767.5z"/>
	<path clip-path="url(#SVGID_2_)" fill="none" stroke="#000000" stroke-miterlimit="10" d="M472,721.136
		c-6.817,0-12.364,5.547-12.364,12.364c0,6.818,5.547,12.364,12.364,12.364c6.817,0,12.364-5.546,12.364-12.364
		C484.364,726.683,478.817,721.136,472,721.136z M472,767.5c-18.748,0-34-15.252-34-34s15.252-34,34-34c18.748,0,34,15.252,34,34
		S490.748,767.5,472,767.5z"/>
	<path clip-path="url(#SVGID_2_)" fill="none" stroke="#000000" stroke-miterlimit="10" d="M633,721.136
		c-6.817,0-12.364,5.547-12.364,12.364c0,6.818,5.547,12.364,12.364,12.364c6.817,0,12.364-5.546,12.364-12.364
		C645.364,726.683,639.817,721.136,633,721.136z M633,767.5c-18.748,0-34-15.252-34-34s15.252-34,34-34c18.748,0,34,15.252,34,34
		S651.748,767.5,633,767.5z"/>
	<path clip-path="url(#SVGID_2_)" fill="none" stroke="#000000" stroke-miterlimit="10" d="M793.667,721.136
		c-6.817,0-12.364,5.547-12.364,12.364c0,6.818,5.547,12.364,12.364,12.364c6.817,0,12.364-5.546,12.364-12.364
		C806.03,726.683,800.483,721.136,793.667,721.136z M793.667,767.5c-18.748,0-34-15.252-34-34s15.252-34,34-34
		c18.748,0,34,15.252,34,34S812.414,767.5,793.667,767.5z"/>
	<path clip-path="url(#SVGID_2_)" fill="none" stroke="#000000" stroke-miterlimit="10" d="M874,721.136
		c-6.817,0-12.364,5.547-12.364,12.364c0,6.818,5.547,12.364,12.364,12.364c6.817,0,12.364-5.546,12.364-12.364
		C886.364,726.683,880.817,721.136,874,721.136z M874,767.5c-18.748,0-34-15.252-34-34s15.252-34,34-34c18.748,0,34,15.252,34,34
		S892.748,767.5,874,767.5z"/>
	<path clip-path="url(#SVGID_2_)" fill="none" stroke="#000000" stroke-miterlimit="10" d="M954.333,721.136
		c-6.817,0-12.364,5.547-12.364,12.364c0,6.818,5.547,12.364,12.364,12.364c6.817,0,12.364-5.546,12.364-12.364
		C966.697,726.683,961.15,721.136,954.333,721.136z M954.333,767.5c-18.748,0-34-15.252-34-34s15.252-34,34-34
		c18.748,0,34,15.252,34,34S973.081,767.5,954.333,767.5z"/>
	<path clip-path="url(#SVGID_2_)" fill="none" stroke="#000000" stroke-miterlimit="10" d="M1034.333,721.136
		c-6.817,0-12.364,5.547-12.364,12.364c0,6.818,5.547,12.364,12.364,12.364c6.817,0,12.364-5.546,12.364-12.364
		C1046.697,726.683,1041.15,721.136,1034.333,721.136z M1034.333,767.5c-18.748,0-34-15.252-34-34s15.252-34,34-34
		c18.748,0,34,15.252,34,34S1053.081,767.5,1034.333,767.5z"/>
	<path clip-path="url(#SVGID_2_)" fill="none" stroke="#000000" stroke-miterlimit="10" d="M70,721.136
		c-6.817,0-12.364,5.547-12.364,12.364c0,6.818,5.547,12.364,12.364,12.364c6.817,0,12.364-5.546,12.364-12.364
		C82.364,726.683,76.817,721.136,70,721.136z M70,767.5c-18.748,0-34-15.252-34-34s15.252-34,34-34s34,15.252,34,34
		S88.748,767.5,70,767.5z"/>
	<path clip-path="url(#SVGID_2_)" fill="none" stroke="#000000" stroke-miterlimit="10" d="M231,721.136
		c-6.817,0-12.364,5.547-12.364,12.364c0,6.818,5.547,12.364,12.364,12.364c6.817,0,12.364-5.546,12.364-12.364
		C243.364,726.683,237.817,721.136,231,721.136z M231,767.5c-18.748,0-34-15.252-34-34s15.252-34,34-34c18.748,0,34,15.252,34,34
		S249.748,767.5,231,767.5z"/>
	<path clip-path="url(#SVGID_2_)" fill="none" stroke="#000000" stroke-miterlimit="10" d="M391.667,721.136
		c-6.817,0-12.364,5.547-12.364,12.364c0,6.818,5.547,12.364,12.364,12.364c6.817,0,12.364-5.546,12.364-12.364
		C404.03,726.683,398.483,721.136,391.667,721.136z M391.667,767.5c-18.748,0-34-15.252-34-34s15.252-34,34-34
		c18.748,0,34,15.252,34,34S410.414,767.5,391.667,767.5z"/>
	<path clip-path="url(#SVGID_2_)" fill="none" stroke="#000000" stroke-miterlimit="10" d="M552,721.136
		c-6.817,0-12.364,5.547-12.364,12.364c0,6.818,5.547,12.364,12.364,12.364c6.817,0,12.364-5.546,12.364-12.364
		C564.364,726.683,558.817,721.136,552,721.136z M552,767.5c-18.748,0-34-15.252-34-34s15.252-34,34-34c18.748,0,34,15.252,34,34
		S570.748,767.5,552,767.5z"/>
	<path clip-path="url(#SVGID_2_)" fill="none" stroke="#000000" stroke-miterlimit="10" d="M713,721.136
		c-6.817,0-12.364,5.547-12.364,12.364c0,6.818,5.547,12.364,12.364,12.364c6.817,0,12.364-5.546,12.364-12.364
		C725.364,726.683,719.817,721.136,713,721.136z M713,767.5c-18.748,0-34-15.252-34-34s15.252-34,34-34c18.748,0,34,15.252,34,34
		S731.748,767.5,713,767.5z"/>
	<path clip-path="url(#SVGID_2_)" fill="none" stroke="#000000" stroke-miterlimit="10" d="M873.667,721.136
		c-6.817,0-12.364,5.547-12.364,12.364c0,6.818,5.547,12.364,12.364,12.364c6.817,0,12.364-5.546,12.364-12.364
		C886.03,726.683,880.483,721.136,873.667,721.136z M873.667,767.5c-18.748,0-34-15.252-34-34s15.252-34,34-34
		c18.748,0,34,15.252,34,34S892.414,767.5,873.667,767.5z"/>
	<path clip-path="url(#SVGID_2_)" fill="none" stroke="#000000" stroke-miterlimit="10" d="M954,721.136
		c-6.817,0-12.364,5.547-12.364,12.364c0,6.818,5.547,12.364,12.364,12.364c6.817,0,12.364-5.546,12.364-12.364
		C966.364,726.683,960.817,721.136,954,721.136z M954,767.5c-18.748,0-34-15.252-34-34s15.252-34,34-34c18.748,0,34,15.252,34,34
		S972.748,767.5,954,767.5z"/>
	<path clip-path="url(#SVGID_2_)" fill="none" stroke="#000000" stroke-miterlimit="10" d="M1034.333,721.136
		c-6.817,0-12.364,5.547-12.364,12.364c0,6.818,5.547,12.364,12.364,12.364c6.817,0,12.364-5.546,12.364-12.364
		C1046.697,726.683,1041.15,721.136,1034.333,721.136z M1034.333,767.5c-18.748,0-34-15.252-34-34s15.252-34,34-34
		c18.748,0,34,15.252,34,34S1053.081,767.5,1034.333,767.5z"/>
	<path clip-path="url(#SVGID_2_)" fill="none" stroke="#000000" stroke-miterlimit="10" d="M70.667,721.136
		c-6.817,0-12.364,5.547-12.364,12.364c0,6.818,5.547,12.364,12.364,12.364c6.817,0,12.364-5.546,12.364-12.364
		C83.031,726.683,77.483,721.136,70.667,721.136z M70.667,767.5c-18.748,0-34-15.252-34-34s15.252-34,34-34s34,15.252,34,34
		S89.414,767.5,70.667,767.5z"/>
	<path clip-path="url(#SVGID_2_)" fill="none" stroke="#000000" stroke-miterlimit="10" d="M231.333,721.136
		c-6.817,0-12.364,5.547-12.364,12.364c0,6.818,5.547,12.364,12.364,12.364c6.817,0,12.364-5.546,12.364-12.364
		C243.697,726.683,238.15,721.136,231.333,721.136z M231.333,767.5c-18.748,0-34-15.252-34-34s15.252-34,34-34
		c18.748,0,34,15.252,34,34S250.081,767.5,231.333,767.5z"/>
	<path clip-path="url(#SVGID_2_)" fill="none" stroke="#000000" stroke-miterlimit="10" d="M391.667,721.136
		c-6.817,0-12.364,5.547-12.364,12.364c0,6.818,5.547,12.364,12.364,12.364c6.817,0,12.364-5.546,12.364-12.364
		C404.03,726.683,398.483,721.136,391.667,721.136z M391.667,767.5c-18.748,0-34-15.252-34-34s15.252-34,34-34
		c18.748,0,34,15.252,34,34S410.414,767.5,391.667,767.5z"/>
	<path clip-path="url(#SVGID_2_)" fill="none" stroke="#000000" stroke-miterlimit="10" d="M552.667,721.136
		c-6.817,0-12.364,5.547-12.364,12.364c0,6.818,5.547,12.364,12.364,12.364c6.817,0,12.364-5.546,12.364-12.364
		C565.03,726.683,559.483,721.136,552.667,721.136z M552.667,767.5c-18.748,0-34-15.252-34-34s15.252-34,34-34
		c18.748,0,34,15.252,34,34S571.414,767.5,552.667,767.5z"/>
	<path clip-path="url(#SVGID_2_)" fill="none" stroke="#000000" stroke-miterlimit="10" d="M713.333,721.136
		c-6.817,0-12.364,5.547-12.364,12.364c0,6.818,5.547,12.364,12.364,12.364c6.817,0,12.364-5.546,12.364-12.364
		C725.697,726.683,720.15,721.136,713.333,721.136z M713.333,767.5c-18.748,0-34-15.252-34-34s15.252-34,34-34
		c18.748,0,34,15.252,34,34S732.081,767.5,713.333,767.5z"/>
	<path clip-path="url(#SVGID_2_)" fill="none" stroke="#000000" stroke-miterlimit="10" d="M-10.333,721.136
		c-6.817,0-12.364,5.547-12.364,12.364c0,6.818,5.547,12.364,12.364,12.364c6.817,0,12.364-5.546,12.364-12.364
		C2.031,726.683-3.517,721.136-10.333,721.136z M-10.333,767.5c-18.748,0-34-15.252-34-34s15.252-34,34-34s34,15.252,34,34
		S8.414,767.5-10.333,767.5z"/>
	<path clip-path="url(#SVGID_2_)" fill="none" stroke="#000000" stroke-miterlimit="10" d="M150.667,721.136
		c-6.817,0-12.364,5.547-12.364,12.364c0,6.818,5.547,12.364,12.364,12.364c6.817,0,12.364-5.546,12.364-12.364
		C163.03,726.683,157.483,721.136,150.667,721.136z M150.667,767.5c-18.748,0-34-15.252-34-34s15.252-34,34-34
		c18.748,0,34,15.252,34,34S169.414,767.5,150.667,767.5z"/>
	<path clip-path="url(#SVGID_2_)" fill="none" stroke="#000000" stroke-miterlimit="10" d="M311.333,721.136
		c-6.817,0-12.364,5.547-12.364,12.364c0,6.818,5.547,12.364,12.364,12.364c6.817,0,12.364-5.546,12.364-12.364
		C323.697,726.683,318.15,721.136,311.333,721.136z M311.333,767.5c-18.748,0-34-15.252-34-34s15.252-34,34-34
		c18.748,0,34,15.252,34,34S330.081,767.5,311.333,767.5z"/>
	<path clip-path="url(#SVGID_2_)" fill="none" stroke="#000000" stroke-miterlimit="10" d="M471.667,721.136
		c-6.817,0-12.364,5.547-12.364,12.364c0,6.818,5.547,12.364,12.364,12.364c6.817,0,12.364-5.546,12.364-12.364
		C484.03,726.683,478.483,721.136,471.667,721.136z M471.667,767.5c-18.748,0-34-15.252-34-34s15.252-34,34-34
		c18.748,0,34,15.252,34,34S490.414,767.5,471.667,767.5z"/>
	<path clip-path="url(#SVGID_2_)" fill="none" stroke="#000000" stroke-miterlimit="10" d="M632.667,721.136
		c-6.817,0-12.364,5.547-12.364,12.364c0,6.818,5.547,12.364,12.364,12.364c6.817,0,12.364-5.546,12.364-12.364
		C645.03,726.683,639.483,721.136,632.667,721.136z M632.667,767.5c-18.748,0-34-15.252-34-34s15.252-34,34-34
		c18.748,0,34,15.252,34,34S651.414,767.5,632.667,767.5z"/>
	<path clip-path="url(#SVGID_2_)" fill="none" stroke="#000000" stroke-miterlimit="10" d="M793.333,721.136
		c-6.817,0-12.364,5.547-12.364,12.364c0,6.818,5.547,12.364,12.364,12.364c6.817,0,12.364-5.546,12.364-12.364
		C805.697,726.683,800.15,721.136,793.333,721.136z M793.333,767.5c-18.748,0-34-15.252-34-34s15.252-34,34-34
		c18.748,0,34,15.252,34,34S812.081,767.5,793.333,767.5z"/>
	<path clip-path="url(#SVGID_2_)" fill="none" stroke="#000000" stroke-miterlimit="10" d="M873.667,721.136
		c-6.817,0-12.364,5.547-12.364,12.364c0,6.818,5.547,12.364,12.364,12.364c6.817,0,12.364-5.546,12.364-12.364
		C886.03,726.683,880.483,721.136,873.667,721.136z M873.667,767.5c-18.748,0-34-15.252-34-34s15.252-34,34-34
		c18.748,0,34,15.252,34,34S892.414,767.5,873.667,767.5z"/>
	<path clip-path="url(#SVGID_2_)" fill="none" stroke="#000000" stroke-miterlimit="10" d="M954,721.136
		c-6.817,0-12.364,5.547-12.364,12.364c0,6.818,5.547,12.364,12.364,12.364c6.817,0,12.364-5.546,12.364-12.364
		C966.364,726.683,960.817,721.136,954,721.136z M954,767.5c-18.748,0-34-15.252-34-34s15.252-34,34-34c18.748,0,34,15.252,34,34
		S972.748,767.5,954,767.5z"/>
	<path clip-path="url(#SVGID_2_)" fill="none" stroke="#000000" stroke-miterlimit="10" d="M1034,721.136
		c-6.817,0-12.364,5.547-12.364,12.364c0,6.818,5.547,12.364,12.364,12.364c6.817,0,12.364-5.546,12.364-12.364
		C1046.364,726.683,1040.817,721.136,1034,721.136z M1034,767.5c-18.748,0-34-15.252-34-34s15.252-34,34-34
		c18.748,0,34,15.252,34,34S1052.748,767.5,1034,767.5z"/>
</g>
</svg>
