<?xml version="1.0" encoding="utf-8"?>
<!-- Generator: Adobe Illustrator 17.0.0, SVG Export Plug-In . SVG Version: 6.00 Build 0)  -->
<!DOCTYPE svg PUBLIC "-//W3C//DTD SVG 1.1//EN" "http://www.w3.org/Graphics/SVG/1.1/DTD/svg11.dtd">
<svg version="1.1" id="Layer_1" xmlns="http://www.w3.org/2000/svg" xmlns:xlink="http://www.w3.org/1999/xlink" x="0px" y="0px"
	 width="1024px" height="768px" viewBox="0 0 1024 768" enable-background="new 0 0 1024 768" xml:space="preserve">
<g>
	<defs>
		<rect id="SVGID_1_" x="35.099" y="35.75" width="1193.167" height="696.5"/>
	</defs>
	<clipPath id="SVGID_2_">
		<use xlink:href="#SVGID_1_"  overflow="visible"/>
	</clipPath>
	<path clip-path="url(#SVGID_2_)" fill="none" stroke="#000000" stroke-miterlimit="10" d="M149.599,109.295
		c-22.858,0-41.455,18.597-41.455,41.455c0,22.859,18.597,41.455,41.455,41.455s41.455-18.596,41.455-41.455
		C191.054,127.892,172.457,109.295,149.599,109.295z M149.599,264.75c-62.86,0-114-51.14-114-114s51.14-114,114-114
		s114,51.14,114,114S212.459,264.75,149.599,264.75z"/>
	<path clip-path="url(#SVGID_2_)" fill="none" stroke="#000000" stroke-miterlimit="10" d="M149.599,342.962
		c-22.858,0-41.455,18.597-41.455,41.455c0,22.859,18.597,41.455,41.455,41.455s41.455-18.596,41.455-41.455
		C191.054,361.559,172.457,342.962,149.599,342.962z M149.599,498.417c-62.86,0-114-51.14-114-114s51.14-114,114-114
		s114,51.14,114,114S212.459,498.417,149.599,498.417z"/>
	<path clip-path="url(#SVGID_2_)" fill="none" stroke="#000000" stroke-miterlimit="10" d="M149.599,576.295
		c-22.858,0-41.455,18.597-41.455,41.455c0,22.859,18.597,41.455,41.455,41.455s41.455-18.596,41.455-41.455
		C191.054,594.892,172.457,576.295,149.599,576.295z M149.599,731.75c-62.86,0-114-51.14-114-114s51.14-114,114-114
		s114,51.14,114,114S212.459,731.75,149.599,731.75z"/>
	<path clip-path="url(#SVGID_2_)" fill="none" stroke="#000000" stroke-miterlimit="10" d="M390.599,109.295
		c-22.858,0-41.455,18.597-41.455,41.455c0,22.859,18.597,41.455,41.455,41.455c22.858,0,41.455-18.596,41.455-41.455
		C432.054,127.892,413.457,109.295,390.599,109.295z M390.599,264.75c-62.86,0-114-51.14-114-114s51.14-114,114-114
		s114,51.14,114,114S453.459,264.75,390.599,264.75z"/>
	<path clip-path="url(#SVGID_2_)" fill="none" stroke="#000000" stroke-miterlimit="10" d="M390.599,342.962
		c-22.858,0-41.455,18.597-41.455,41.455c0,22.859,18.597,41.455,41.455,41.455c22.858,0,41.455-18.596,41.455-41.455
		C432.054,361.559,413.457,342.962,390.599,342.962z M390.599,498.417c-62.86,0-114-51.14-114-114s51.14-114,114-114
		s114,51.14,114,114S453.459,498.417,390.599,498.417z"/>
	<path clip-path="url(#SVGID_2_)" fill="none" stroke="#000000" stroke-miterlimit="10" d="M390.599,576.295
		c-22.858,0-41.455,18.597-41.455,41.455c0,22.859,18.597,41.455,41.455,41.455c22.858,0,41.455-18.596,41.455-41.455
		C432.054,594.892,413.457,576.295,390.599,576.295z M390.599,731.75c-62.86,0-114-51.14-114-114s51.14-114,114-114
		s114,51.14,114,114S453.459,731.75,390.599,731.75z"/>
	<path clip-path="url(#SVGID_2_)" fill="none" stroke="#000000" stroke-miterlimit="10" d="M631.766,109.295
		c-22.858,0-41.455,18.597-41.455,41.455c0,22.859,18.597,41.455,41.455,41.455c22.858,0,41.455-18.596,41.455-41.455
		C673.221,127.892,654.624,109.295,631.766,109.295z M631.766,264.75c-62.86,0-114-51.14-114-114s51.14-114,114-114
		s114,51.14,114,114S694.626,264.75,631.766,264.75z"/>
	<path clip-path="url(#SVGID_2_)" fill="none" stroke="#000000" stroke-miterlimit="10" d="M631.766,342.962
		c-22.858,0-41.455,18.597-41.455,41.455c0,22.859,18.597,41.455,41.455,41.455c22.858,0,41.455-18.596,41.455-41.455
		C673.221,361.559,654.624,342.962,631.766,342.962z M631.766,498.417c-62.86,0-114-51.14-114-114s51.14-114,114-114
		s114,51.14,114,114S694.626,498.417,631.766,498.417z"/>
	<path clip-path="url(#SVGID_2_)" fill="none" stroke="#000000" stroke-miterlimit="10" d="M631.766,576.295
		c-22.858,0-41.455,18.597-41.455,41.455c0,22.859,18.597,41.455,41.455,41.455c22.858,0,41.455-18.596,41.455-41.455
		C673.221,594.892,654.624,576.295,631.766,576.295z M631.766,731.75c-62.86,0-114-51.14-114-114s51.14-114,114-114
		s114,51.14,114,114S694.626,731.75,631.766,731.75z"/>
	<path clip-path="url(#SVGID_2_)" fill="none" stroke="#000000" stroke-miterlimit="10" d="M872.932,109.295
		c-22.858,0-41.455,18.597-41.455,41.455c0,22.859,18.597,41.455,41.455,41.455c22.858,0,41.455-18.596,41.455-41.455
		C914.387,127.892,895.79,109.295,872.932,109.295z M872.932,264.75c-62.86,0-114-51.14-114-114s51.14-114,114-114
		s114,51.14,114,114S935.792,264.75,872.932,264.75z"/>
	<path clip-path="url(#SVGID_2_)" fill="none" stroke="#000000" stroke-miterlimit="10" d="M872.932,342.962
		c-22.858,0-41.455,18.597-41.455,41.455c0,22.859,18.597,41.455,41.455,41.455c22.858,0,41.455-18.596,41.455-41.455
		C914.387,361.559,895.79,342.962,872.932,342.962z M872.932,498.417c-62.86,0-114-51.14-114-114s51.14-114,114-114
		s114,51.14,114,114S935.792,498.417,872.932,498.417z"/>
	<path clip-path="url(#SVGID_2_)" fill="none" stroke="#000000" stroke-miterlimit="10" d="M872.932,576.295
		c-22.858,0-41.455,18.597-41.455,41.455c0,22.859,18.597,41.455,41.455,41.455c22.858,0,41.455-18.596,41.455-41.455
		C914.387,594.892,895.79,576.295,872.932,576.295z M872.932,731.75c-62.86,0-114-51.14-114-114s51.14-114,114-114
		s114,51.14,114,114S935.792,731.75,872.932,731.75z"/>
	<path clip-path="url(#SVGID_2_)" fill="none" stroke="#000000" stroke-miterlimit="10" d="M1113.766,109.295
		c-22.858,0-41.455,18.597-41.455,41.455c0,22.859,18.597,41.455,41.455,41.455c22.858,0,41.455-18.596,41.455-41.455
		C1155.22,127.892,1136.624,109.295,1113.766,109.295z M1113.766,264.75c-62.86,0-114-51.14-114-114s51.14-114,114-114
		c62.86,0,114,51.14,114,114S1176.625,264.75,1113.766,264.75z"/>
	<path clip-path="url(#SVGID_2_)" fill="none" stroke="#000000" stroke-miterlimit="10" d="M1113.766,342.962
		c-22.858,0-41.455,18.597-41.455,41.455c0,22.859,18.597,41.455,41.455,41.455c22.858,0,41.455-18.596,41.455-41.455
		C1155.22,361.559,1136.624,342.962,1113.766,342.962z M1113.766,498.417c-62.86,0-114-51.14-114-114s51.14-114,114-114
		c62.86,0,114,51.14,114,114S1176.625,498.417,1113.766,498.417z"/>
	<path clip-path="url(#SVGID_2_)" fill="none" stroke="#000000" stroke-miterlimit="10" d="M1113.766,576.295
		c-22.858,0-41.455,18.597-41.455,41.455c0,22.859,18.597,41.455,41.455,41.455c22.858,0,41.455-18.596,41.455-41.455
		C1155.22,594.892,1136.624,576.295,1113.766,576.295z M1113.766,731.75c-62.86,0-114-51.14-114-114s51.14-114,114-114
		c62.86,0,114,51.14,114,114S1176.625,731.75,1113.766,731.75z"/>
	<path clip-path="url(#SVGID_2_)" fill="none" stroke="#000000" stroke-miterlimit="10" d="M350.432,83.235
		c-14.804,0-26.848,12.044-26.848,26.849c0,14.804,12.044,26.848,26.848,26.848c14.804,0,26.848-12.044,26.848-26.848
		C377.28,95.279,365.236,83.235,350.432,83.235z M350.432,183.917c-40.712,0-73.833-33.121-73.833-73.833
		c0-40.712,33.121-73.834,73.833-73.834s73.833,33.122,73.833,73.834C424.265,150.796,391.144,183.917,350.432,183.917z"/>
	<path clip-path="url(#SVGID_2_)" fill="none" stroke="#000000" stroke-miterlimit="10" d="M350.432,316.901
		c-14.804,0-26.848,12.044-26.848,26.849c0,14.804,12.044,26.848,26.848,26.848c14.804,0,26.848-12.044,26.848-26.848
		C377.28,328.945,365.236,316.901,350.432,316.901z M350.432,417.583c-40.712,0-73.833-33.121-73.833-73.833
		s33.121-73.834,73.833-73.834s73.833,33.122,73.833,73.834S391.144,417.583,350.432,417.583z"/>
	<path clip-path="url(#SVGID_2_)" fill="none" stroke="#000000" stroke-miterlimit="10" d="M350.432,550.235
		c-14.804,0-26.848,12.044-26.848,26.849c0,14.804,12.044,26.848,26.848,26.848c14.804,0,26.848-12.044,26.848-26.848
		C377.28,562.279,365.236,550.235,350.432,550.235z M350.432,650.917c-40.712,0-73.833-33.121-73.833-73.833
		c0-40.712,33.121-73.834,73.833-73.834s73.833,33.122,73.833,73.834C424.265,617.796,391.144,650.917,350.432,650.917z"/>
	<path clip-path="url(#SVGID_2_)" fill="none" stroke="#000000" stroke-miterlimit="10" d="M511.099,83.235
		c-14.804,0-26.849,12.044-26.849,26.849c0,14.804,12.045,26.848,26.849,26.848s26.848-12.044,26.848-26.848
		C537.947,95.279,525.903,83.235,511.099,83.235z M511.099,183.917c-40.712,0-73.833-33.121-73.833-73.833
		c0-40.712,33.121-73.834,73.833-73.834s73.833,33.122,73.833,73.834C584.932,150.796,551.811,183.917,511.099,183.917z"/>
	<path clip-path="url(#SVGID_2_)" fill="none" stroke="#000000" stroke-miterlimit="10" d="M511.099,316.901
		c-14.804,0-26.849,12.044-26.849,26.849c0,14.804,12.045,26.848,26.849,26.848s26.848-12.044,26.848-26.848
		C537.947,328.945,525.903,316.901,511.099,316.901z M511.099,417.583c-40.712,0-73.833-33.121-73.833-73.833
		s33.121-73.834,73.833-73.834s73.833,33.122,73.833,73.834S551.811,417.583,511.099,417.583z"/>
	<path clip-path="url(#SVGID_2_)" fill="none" stroke="#000000" stroke-miterlimit="10" d="M511.099,550.235
		c-14.804,0-26.849,12.044-26.849,26.849c0,14.804,12.045,26.848,26.849,26.848s26.848-12.044,26.848-26.848
		C537.947,562.279,525.903,550.235,511.099,550.235z M511.099,650.917c-40.712,0-73.833-33.121-73.833-73.833
		c0-40.712,33.121-73.834,73.833-73.834s73.833,33.122,73.833,73.834C584.932,617.796,551.811,650.917,511.099,650.917z"/>
	<path clip-path="url(#SVGID_2_)" fill="none" stroke="#000000" stroke-miterlimit="10" d="M671.766,83.235
		c-14.804,0-26.849,12.044-26.849,26.849c0,14.804,12.045,26.848,26.849,26.848c14.804,0,26.848-12.044,26.848-26.848
		C698.614,95.279,686.57,83.235,671.766,83.235z M671.766,183.917c-40.712,0-73.833-33.121-73.833-73.833
		c0-40.712,33.121-73.834,73.833-73.834c40.712,0,73.833,33.122,73.833,73.834C745.599,150.796,712.478,183.917,671.766,183.917z"/>
	<path clip-path="url(#SVGID_2_)" fill="none" stroke="#000000" stroke-miterlimit="10" d="M671.766,316.901
		c-14.804,0-26.849,12.044-26.849,26.849c0,14.804,12.045,26.848,26.849,26.848c14.804,0,26.848-12.044,26.848-26.848
		C698.614,328.945,686.57,316.901,671.766,316.901z M671.766,417.583c-40.712,0-73.833-33.121-73.833-73.833
		s33.121-73.834,73.833-73.834c40.712,0,73.833,33.122,73.833,73.834S712.478,417.583,671.766,417.583z"/>
	<path clip-path="url(#SVGID_2_)" fill="none" stroke="#000000" stroke-miterlimit="10" d="M671.766,550.235
		c-14.804,0-26.849,12.044-26.849,26.849c0,14.804,12.045,26.848,26.849,26.848c14.804,0,26.848-12.044,26.848-26.848
		C698.614,562.279,686.57,550.235,671.766,550.235z M671.766,650.917c-40.712,0-73.833-33.121-73.833-73.833
		c0-40.712,33.121-73.834,73.833-73.834c40.712,0,73.833,33.122,73.833,73.834C745.599,617.796,712.478,650.917,671.766,650.917z"/>
	<path clip-path="url(#SVGID_2_)" fill="none" stroke="#000000" stroke-miterlimit="10" d="M832.432,83.235
		c-14.804,0-26.849,12.044-26.849,26.849c0,14.804,12.045,26.848,26.849,26.848c14.804,0,26.848-12.044,26.848-26.848
		C859.28,95.279,847.236,83.235,832.432,83.235z M832.432,183.917c-40.712,0-73.833-33.121-73.833-73.833
		c0-40.712,33.121-73.834,73.833-73.834c40.712,0,73.833,33.122,73.833,73.834C906.265,150.796,873.144,183.917,832.432,183.917z"/>
	<path clip-path="url(#SVGID_2_)" fill="none" stroke="#000000" stroke-miterlimit="10" d="M832.432,316.901
		c-14.804,0-26.849,12.044-26.849,26.849c0,14.804,12.045,26.848,26.849,26.848c14.804,0,26.848-12.044,26.848-26.848
		C859.28,328.945,847.236,316.901,832.432,316.901z M832.432,417.583c-40.712,0-73.833-33.121-73.833-73.833
		s33.121-73.834,73.833-73.834c40.712,0,73.833,33.122,73.833,73.834S873.144,417.583,832.432,417.583z"/>
	<path clip-path="url(#SVGID_2_)" fill="none" stroke="#000000" stroke-miterlimit="10" d="M832.432,550.235
		c-14.804,0-26.849,12.044-26.849,26.849c0,14.804,12.045,26.848,26.849,26.848c14.804,0,26.848-12.044,26.848-26.848
		C859.28,562.279,847.236,550.235,832.432,550.235z M832.432,650.917c-40.712,0-73.833-33.121-73.833-73.833
		c0-40.712,33.121-73.834,73.833-73.834c40.712,0,73.833,33.122,73.833,73.834C906.265,617.796,873.144,650.917,832.432,650.917z"/>
	<path clip-path="url(#SVGID_2_)" fill="none" stroke="#000000" stroke-miterlimit="10" d="M993.266,83.235
		c-14.804,0-26.848,12.044-26.848,26.849c0,14.804,12.044,26.848,26.848,26.848c14.804,0,26.849-12.044,26.849-26.848
		C1020.115,95.279,1008.07,83.235,993.266,83.235z M993.266,183.917c-40.712,0-73.833-33.121-73.833-73.833
		c0-40.712,33.121-73.834,73.833-73.834c40.712,0,73.833,33.122,73.833,73.834C1067.098,150.796,1033.978,183.917,993.266,183.917z"
		/>
	<path clip-path="url(#SVGID_2_)" fill="none" stroke="#000000" stroke-miterlimit="10" d="M993.266,316.901
		c-14.804,0-26.848,12.044-26.848,26.849c0,14.804,12.044,26.848,26.848,26.848c14.804,0,26.849-12.044,26.849-26.848
		C1020.115,328.945,1008.07,316.901,993.266,316.901z M993.266,417.583c-40.712,0-73.833-33.121-73.833-73.833
		s33.121-73.834,73.833-73.834c40.712,0,73.833,33.122,73.833,73.834S1033.978,417.583,993.266,417.583z"/>
	<path clip-path="url(#SVGID_2_)" fill="none" stroke="#000000" stroke-miterlimit="10" d="M993.266,550.235
		c-14.804,0-26.848,12.044-26.848,26.849c0,14.804,12.044,26.848,26.848,26.848c14.804,0,26.849-12.044,26.849-26.848
		C1020.115,562.279,1008.07,550.235,993.266,550.235z M993.266,650.917c-40.712,0-73.833-33.121-73.833-73.833
		c0-40.712,33.121-73.834,73.833-73.834c40.712,0,73.833,33.122,73.833,73.834C1067.098,617.796,1033.978,650.917,993.266,650.917z"
		/>
	<path clip-path="url(#SVGID_2_)" fill="none" stroke="#000000" stroke-miterlimit="10" d="M310.432,217.614
		c-6.784,0-12.303,5.519-12.303,12.303s5.519,12.303,12.303,12.303c6.784,0,12.303-5.519,12.303-12.303
		S317.216,217.614,310.432,217.614z M310.432,263.75c-18.656,0-33.833-15.178-33.833-33.833c0-18.656,15.177-33.834,33.833-33.834
		c18.656,0,33.833,15.178,33.833,33.834C344.265,248.572,329.088,263.75,310.432,263.75z"/>
	<path clip-path="url(#SVGID_2_)" fill="none" stroke="#000000" stroke-miterlimit="10" d="M310.432,451.281
		c-6.784,0-12.303,5.519-12.303,12.303s5.519,12.303,12.303,12.303c6.784,0,12.303-5.519,12.303-12.303
		S317.216,451.281,310.432,451.281z M310.432,497.417c-18.656,0-33.833-15.178-33.833-33.833c0-18.656,15.177-33.834,33.833-33.834
		c18.656,0,33.833,15.178,33.833,33.834C344.265,482.239,329.088,497.417,310.432,497.417z"/>
	<path clip-path="url(#SVGID_2_)" fill="none" stroke="#000000" stroke-miterlimit="10" d="M310.432,684.614
		c-6.784,0-12.303,5.519-12.303,12.303s5.519,12.303,12.303,12.303c6.784,0,12.303-5.519,12.303-12.303
		S317.216,684.614,310.432,684.614z M310.432,730.75c-18.656,0-33.833-15.178-33.833-33.833c0-18.656,15.177-33.834,33.833-33.834
		c18.656,0,33.833,15.178,33.833,33.834C344.265,715.572,329.088,730.75,310.432,730.75z"/>
	<path clip-path="url(#SVGID_2_)" fill="none" stroke="#000000" stroke-miterlimit="10" d="M390.432,217.614
		c-6.784,0-12.303,5.519-12.303,12.303s5.519,12.303,12.303,12.303c6.784,0,12.303-5.519,12.303-12.303
		S397.216,217.614,390.432,217.614z M390.432,263.75c-18.656,0-33.833-15.178-33.833-33.833c0-18.656,15.177-33.834,33.833-33.834
		c18.656,0,33.833,15.178,33.833,33.834C424.265,248.572,409.088,263.75,390.432,263.75z"/>
	<path clip-path="url(#SVGID_2_)" fill="none" stroke="#000000" stroke-miterlimit="10" d="M390.432,451.281
		c-6.784,0-12.303,5.519-12.303,12.303s5.519,12.303,12.303,12.303c6.784,0,12.303-5.519,12.303-12.303
		S397.216,451.281,390.432,451.281z M390.432,497.417c-18.656,0-33.833-15.178-33.833-33.833c0-18.656,15.177-33.834,33.833-33.834
		c18.656,0,33.833,15.178,33.833,33.834C424.265,482.239,409.088,497.417,390.432,497.417z"/>
	<path clip-path="url(#SVGID_2_)" fill="none" stroke="#000000" stroke-miterlimit="10" d="M390.432,684.614
		c-6.784,0-12.303,5.519-12.303,12.303s5.519,12.303,12.303,12.303c6.784,0,12.303-5.519,12.303-12.303
		S397.216,684.614,390.432,684.614z M390.432,730.75c-18.656,0-33.833-15.178-33.833-33.833c0-18.656,15.177-33.834,33.833-33.834
		c18.656,0,33.833,15.178,33.833,33.834C424.265,715.572,409.088,730.75,390.432,730.75z"/>
	<path clip-path="url(#SVGID_2_)" fill="none" stroke="#000000" stroke-miterlimit="10" d="M470.766,217.614
		c-6.784,0-12.303,5.519-12.303,12.303s5.519,12.303,12.303,12.303c6.784,0,12.303-5.519,12.303-12.303
		S477.55,217.614,470.766,217.614z M470.766,263.75c-18.656,0-33.833-15.178-33.833-33.833c0-18.656,15.177-33.834,33.833-33.834
		c18.656,0,33.833,15.178,33.833,33.834C504.599,248.572,489.422,263.75,470.766,263.75z"/>
	<path clip-path="url(#SVGID_2_)" fill="none" stroke="#000000" stroke-miterlimit="10" d="M470.766,451.281
		c-6.784,0-12.303,5.519-12.303,12.303s5.519,12.303,12.303,12.303c6.784,0,12.303-5.519,12.303-12.303
		S477.55,451.281,470.766,451.281z M470.766,497.417c-18.656,0-33.833-15.178-33.833-33.833c0-18.656,15.177-33.834,33.833-33.834
		c18.656,0,33.833,15.178,33.833,33.834C504.599,482.239,489.422,497.417,470.766,497.417z"/>
	<path clip-path="url(#SVGID_2_)" fill="none" stroke="#000000" stroke-miterlimit="10" d="M470.766,684.614
		c-6.784,0-12.303,5.519-12.303,12.303s5.519,12.303,12.303,12.303c6.784,0,12.303-5.519,12.303-12.303
		S477.55,684.614,470.766,684.614z M470.766,730.75c-18.656,0-33.833-15.178-33.833-33.833c0-18.656,15.177-33.834,33.833-33.834
		c18.656,0,33.833,15.178,33.833,33.834C504.599,715.572,489.422,730.75,470.766,730.75z"/>
	<path clip-path="url(#SVGID_2_)" fill="none" stroke="#000000" stroke-miterlimit="10" d="M551.432,217.614
		c-6.784,0-12.303,5.519-12.303,12.303s5.519,12.303,12.303,12.303c6.784,0,12.303-5.519,12.303-12.303
		S558.216,217.614,551.432,217.614z M551.432,263.75c-18.656,0-33.833-15.178-33.833-33.833c0-18.656,15.177-33.834,33.833-33.834
		c18.656,0,33.833,15.178,33.833,33.834C585.265,248.572,570.088,263.75,551.432,263.75z"/>
	<path clip-path="url(#SVGID_2_)" fill="none" stroke="#000000" stroke-miterlimit="10" d="M551.432,451.281
		c-6.784,0-12.303,5.519-12.303,12.303s5.519,12.303,12.303,12.303c6.784,0,12.303-5.519,12.303-12.303
		S558.216,451.281,551.432,451.281z M551.432,497.417c-18.656,0-33.833-15.178-33.833-33.833c0-18.656,15.177-33.834,33.833-33.834
		c18.656,0,33.833,15.178,33.833,33.834C585.265,482.239,570.088,497.417,551.432,497.417z"/>
	<path clip-path="url(#SVGID_2_)" fill="none" stroke="#000000" stroke-miterlimit="10" d="M551.432,684.614
		c-6.784,0-12.303,5.519-12.303,12.303s5.519,12.303,12.303,12.303c6.784,0,12.303-5.519,12.303-12.303
		S558.216,684.614,551.432,684.614z M551.432,730.75c-18.656,0-33.833-15.178-33.833-33.833c0-18.656,15.177-33.834,33.833-33.834
		c18.656,0,33.833,15.178,33.833,33.834C585.265,715.572,570.088,730.75,551.432,730.75z"/>
	<path clip-path="url(#SVGID_2_)" fill="none" stroke="#000000" stroke-miterlimit="10" d="M631.766,217.614
		c-6.784,0-12.303,5.519-12.303,12.303s5.519,12.303,12.303,12.303c6.784,0,12.303-5.519,12.303-12.303
		S638.55,217.614,631.766,217.614z M631.766,263.75c-18.656,0-33.833-15.178-33.833-33.833c0-18.656,15.177-33.834,33.833-33.834
		c18.656,0,33.833,15.178,33.833,33.834C665.599,248.572,650.422,263.75,631.766,263.75z"/>
	<path clip-path="url(#SVGID_2_)" fill="none" stroke="#000000" stroke-miterlimit="10" d="M631.766,451.281
		c-6.784,0-12.303,5.519-12.303,12.303s5.519,12.303,12.303,12.303c6.784,0,12.303-5.519,12.303-12.303
		S638.55,451.281,631.766,451.281z M631.766,497.417c-18.656,0-33.833-15.178-33.833-33.833c0-18.656,15.177-33.834,33.833-33.834
		c18.656,0,33.833,15.178,33.833,33.834C665.599,482.239,650.422,497.417,631.766,497.417z"/>
	<path clip-path="url(#SVGID_2_)" fill="none" stroke="#000000" stroke-miterlimit="10" d="M631.766,684.614
		c-6.784,0-12.303,5.519-12.303,12.303s5.519,12.303,12.303,12.303c6.784,0,12.303-5.519,12.303-12.303
		S638.55,684.614,631.766,684.614z M631.766,730.75c-18.656,0-33.833-15.178-33.833-33.833c0-18.656,15.177-33.834,33.833-33.834
		c18.656,0,33.833,15.178,33.833,33.834C665.599,715.572,650.422,730.75,631.766,730.75z"/>
	<path clip-path="url(#SVGID_2_)" fill="none" stroke="#000000" stroke-miterlimit="10" d="M711.766,217.614
		c-6.784,0-12.303,5.519-12.303,12.303s5.519,12.303,12.303,12.303c6.784,0,12.303-5.519,12.303-12.303
		S718.55,217.614,711.766,217.614z M711.766,263.75c-18.656,0-33.833-15.178-33.833-33.833c0-18.656,15.177-33.834,33.833-33.834
		c18.656,0,33.833,15.178,33.833,33.834C745.599,248.572,730.422,263.75,711.766,263.75z"/>
	<path clip-path="url(#SVGID_2_)" fill="none" stroke="#000000" stroke-miterlimit="10" d="M711.766,451.281
		c-6.784,0-12.303,5.519-12.303,12.303s5.519,12.303,12.303,12.303c6.784,0,12.303-5.519,12.303-12.303
		S718.55,451.281,711.766,451.281z M711.766,497.417c-18.656,0-33.833-15.178-33.833-33.833c0-18.656,15.177-33.834,33.833-33.834
		c18.656,0,33.833,15.178,33.833,33.834C745.599,482.239,730.422,497.417,711.766,497.417z"/>
	<path clip-path="url(#SVGID_2_)" fill="none" stroke="#000000" stroke-miterlimit="10" d="M711.766,684.614
		c-6.784,0-12.303,5.519-12.303,12.303s5.519,12.303,12.303,12.303c6.784,0,12.303-5.519,12.303-12.303
		S718.55,684.614,711.766,684.614z M711.766,730.75c-18.656,0-33.833-15.178-33.833-33.833c0-18.656,15.177-33.834,33.833-33.834
		c18.656,0,33.833,15.178,33.833,33.834C745.599,715.572,730.422,730.75,711.766,730.75z"/>
	<path clip-path="url(#SVGID_2_)" fill="none" stroke="#000000" stroke-miterlimit="10" d="M792.266,217.614
		c-6.784,0-12.303,5.519-12.303,12.303s5.519,12.303,12.303,12.303c6.784,0,12.303-5.519,12.303-12.303
		S799.05,217.614,792.266,217.614z M792.266,263.75c-18.656,0-33.833-15.178-33.833-33.833c0-18.656,15.177-33.834,33.833-33.834
		c18.656,0,33.833,15.178,33.833,33.834C826.099,248.572,810.922,263.75,792.266,263.75z"/>
	<path clip-path="url(#SVGID_2_)" fill="none" stroke="#000000" stroke-miterlimit="10" d="M792.266,451.281
		c-6.784,0-12.303,5.519-12.303,12.303s5.519,12.303,12.303,12.303c6.784,0,12.303-5.519,12.303-12.303
		S799.05,451.281,792.266,451.281z M792.266,497.417c-18.656,0-33.833-15.178-33.833-33.833c0-18.656,15.177-33.834,33.833-33.834
		c18.656,0,33.833,15.178,33.833,33.834C826.099,482.239,810.922,497.417,792.266,497.417z"/>
	<path clip-path="url(#SVGID_2_)" fill="none" stroke="#000000" stroke-miterlimit="10" d="M792.266,684.614
		c-6.784,0-12.303,5.519-12.303,12.303s5.519,12.303,12.303,12.303c6.784,0,12.303-5.519,12.303-12.303
		S799.05,684.614,792.266,684.614z M792.266,730.75c-18.656,0-33.833-15.178-33.833-33.833c0-18.656,15.177-33.834,33.833-33.834
		c18.656,0,33.833,15.178,33.833,33.834C826.099,715.572,810.922,730.75,792.266,730.75z"/>
	<path clip-path="url(#SVGID_2_)" fill="none" stroke="#000000" stroke-miterlimit="10" d="M953.099,217.614
		c-6.784,0-12.303,5.519-12.303,12.303s5.519,12.303,12.303,12.303c6.784,0,12.303-5.519,12.303-12.303
		S959.883,217.614,953.099,217.614z M953.099,263.75c-18.656,0-33.833-15.178-33.833-33.833c0-18.656,15.177-33.834,33.833-33.834
		c18.656,0,33.833,15.178,33.833,33.834C986.932,248.572,971.755,263.75,953.099,263.75z"/>
	<path clip-path="url(#SVGID_2_)" fill="none" stroke="#000000" stroke-miterlimit="10" d="M953.099,451.281
		c-6.784,0-12.303,5.519-12.303,12.303s5.519,12.303,12.303,12.303c6.784,0,12.303-5.519,12.303-12.303
		S959.883,451.281,953.099,451.281z M953.099,497.417c-18.656,0-33.833-15.178-33.833-33.833c0-18.656,15.177-33.834,33.833-33.834
		c18.656,0,33.833,15.178,33.833,33.834C986.932,482.239,971.755,497.417,953.099,497.417z"/>
	<path clip-path="url(#SVGID_2_)" fill="none" stroke="#000000" stroke-miterlimit="10" d="M953.099,684.614
		c-6.784,0-12.303,5.519-12.303,12.303s5.519,12.303,12.303,12.303c6.784,0,12.303-5.519,12.303-12.303
		S959.883,684.614,953.099,684.614z M953.099,730.75c-18.656,0-33.833-15.178-33.833-33.833c0-18.656,15.177-33.834,33.833-33.834
		c18.656,0,33.833,15.178,33.833,33.834C986.932,715.572,971.755,730.75,953.099,730.75z"/>
	<path clip-path="url(#SVGID_2_)" fill="none" stroke="#000000" stroke-miterlimit="10" d="M872.766,217.614
		c-6.784,0-12.303,5.519-12.303,12.303s5.519,12.303,12.303,12.303c6.784,0,12.303-5.519,12.303-12.303
		S879.55,217.614,872.766,217.614z M872.766,263.75c-18.656,0-33.833-15.178-33.833-33.833c0-18.656,15.177-33.834,33.833-33.834
		c18.656,0,33.833,15.178,33.833,33.834C906.599,248.572,891.422,263.75,872.766,263.75z"/>
	<path clip-path="url(#SVGID_2_)" fill="none" stroke="#000000" stroke-miterlimit="10" d="M872.766,451.281
		c-6.784,0-12.303,5.519-12.303,12.303s5.519,12.303,12.303,12.303c6.784,0,12.303-5.519,12.303-12.303
		S879.55,451.281,872.766,451.281z M872.766,497.417c-18.656,0-33.833-15.178-33.833-33.833c0-18.656,15.177-33.834,33.833-33.834
		c18.656,0,33.833,15.178,33.833,33.834C906.599,482.239,891.422,497.417,872.766,497.417z"/>
	<path clip-path="url(#SVGID_2_)" fill="none" stroke="#000000" stroke-miterlimit="10" d="M872.766,684.614
		c-6.784,0-12.303,5.519-12.303,12.303s5.519,12.303,12.303,12.303c6.784,0,12.303-5.519,12.303-12.303
		S879.55,684.614,872.766,684.614z M872.766,730.75c-18.656,0-33.833-15.178-33.833-33.833c0-18.656,15.177-33.834,33.833-33.834
		c18.656,0,33.833,15.178,33.833,33.834C906.599,715.572,891.422,730.75,872.766,730.75z"/>
	<path clip-path="url(#SVGID_2_)" fill="none" stroke="#000000" stroke-miterlimit="10" d="M1033.599,217.614
		c-6.784,0-12.303,5.519-12.303,12.303s5.519,12.303,12.303,12.303c6.784,0,12.303-5.519,12.303-12.303
		S1040.383,217.614,1033.599,217.614z M1033.599,263.75c-18.656,0-33.833-15.178-33.833-33.833
		c0-18.656,15.177-33.834,33.833-33.834c18.656,0,33.833,15.178,33.833,33.834C1067.432,248.572,1052.255,263.75,1033.599,263.75z"
		/>
	<path clip-path="url(#SVGID_2_)" fill="none" stroke="#000000" stroke-miterlimit="10" d="M1033.599,451.281
		c-6.784,0-12.303,5.519-12.303,12.303s5.519,12.303,12.303,12.303c6.784,0,12.303-5.519,12.303-12.303
		S1040.383,451.281,1033.599,451.281z M1033.599,497.417c-18.656,0-33.833-15.178-33.833-33.833
		c0-18.656,15.177-33.834,33.833-33.834c18.656,0,33.833,15.178,33.833,33.834C1067.432,482.239,1052.255,497.417,1033.599,497.417z
		"/>
	<path clip-path="url(#SVGID_2_)" fill="none" stroke="#000000" stroke-miterlimit="10" d="M1033.599,684.614
		c-6.784,0-12.303,5.519-12.303,12.303s5.519,12.303,12.303,12.303c6.784,0,12.303-5.519,12.303-12.303
		S1040.383,684.614,1033.599,684.614z M1033.599,730.75c-18.656,0-33.833-15.178-33.833-33.833
		c0-18.656,15.177-33.834,33.833-33.834c18.656,0,33.833,15.178,33.833,33.834C1067.432,715.572,1052.255,730.75,1033.599,730.75z"
		/>
</g>
</svg>
