<?xml version="1.0" encoding="utf-8"?>
<!-- Generator: Adobe Illustrator 17.0.0, SVG Export Plug-In . SVG Version: 6.00 Build 0)  -->
<!DOCTYPE svg PUBLIC "-//W3C//DTD SVG 1.1//EN" "http://www.w3.org/Graphics/SVG/1.1/DTD/svg11.dtd">
<svg version="1.1" id="Layer_1" xmlns="http://www.w3.org/2000/svg" xmlns:xlink="http://www.w3.org/1999/xlink" x="0px" y="0px"
	 width="1024px" height="768px" viewBox="0 0 1024 768" enable-background="new 0 0 1024 768" xml:space="preserve">
<g>
	<defs>
		<rect id="SVGID_1_" x="35.333" y="35.5" width="953.333" height="697"/>
	</defs>
	<clipPath id="SVGID_2_">
		<use xlink:href="#SVGID_1_"  overflow="visible"/>
	</clipPath>
	<path clip-path="url(#SVGID_2_)" fill="none" stroke="#000000" stroke-miterlimit="10" d="M110.333,83.409
		c-14.938,0-27.091,12.153-27.091,27.091c0,14.938,12.153,27.091,27.091,27.091s27.091-12.153,27.091-27.091
		C137.424,95.562,125.271,83.409,110.333,83.409z M110.333,185c-41.079,0-74.5-33.421-74.5-74.5c0-41.079,33.421-74.5,74.5-74.5
		s74.5,33.421,74.5,74.5C184.833,151.579,151.412,185,110.333,185z"/>
	<path clip-path="url(#SVGID_2_)" fill="none" stroke="#000000" stroke-miterlimit="10" d="M110.333,469.409
		c-14.938,0-27.091,12.153-27.091,27.091s12.153,27.091,27.091,27.091s27.091-12.153,27.091-27.091S125.271,469.409,110.333,469.409
		z M110.333,571c-41.079,0-74.5-33.421-74.5-74.5s33.421-74.5,74.5-74.5s74.5,33.421,74.5,74.5S151.412,571,110.333,571z"/>
	<path clip-path="url(#SVGID_2_)" fill="none" stroke="#000000" stroke-miterlimit="10" d="M110.333,244.409
		c-14.938,0-27.091,12.153-27.091,27.091c0,14.938,12.153,27.091,27.091,27.091s27.091-12.153,27.091-27.091
		C137.424,256.562,125.271,244.409,110.333,244.409z M110.333,346c-41.079,0-74.5-33.421-74.5-74.5s33.421-74.5,74.5-74.5
		s74.5,33.421,74.5,74.5S151.412,346,110.333,346z"/>
	<path clip-path="url(#SVGID_2_)" fill="none" stroke="#000000" stroke-miterlimit="10" d="M110.333,630.409
		c-14.938,0-27.091,12.153-27.091,27.091s12.153,27.091,27.091,27.091s27.091-12.153,27.091-27.091S125.271,630.409,110.333,630.409
		z M110.333,732c-41.079,0-74.5-33.421-74.5-74.5s33.421-74.5,74.5-74.5s74.5,33.421,74.5,74.5S151.412,732,110.333,732z"/>
	<path clip-path="url(#SVGID_2_)" fill="none" stroke="#000000" stroke-miterlimit="10" d="M431.667,83.409
		c-14.938,0-27.091,12.153-27.091,27.091c0,14.938,12.153,27.091,27.091,27.091c14.938,0,27.091-12.153,27.091-27.091
		C458.758,95.562,446.605,83.409,431.667,83.409z M431.667,185c-41.079,0-74.5-33.421-74.5-74.5c0-41.079,33.421-74.5,74.5-74.5
		c41.08,0,74.5,33.421,74.5,74.5C506.167,151.579,472.747,185,431.667,185z"/>
	<path clip-path="url(#SVGID_2_)" fill="none" stroke="#000000" stroke-miterlimit="10" d="M431.667,469.409
		c-14.938,0-27.091,12.153-27.091,27.091s12.153,27.091,27.091,27.091c14.938,0,27.091-12.153,27.091-27.091
		S446.605,469.409,431.667,469.409z M431.667,571c-41.079,0-74.5-33.421-74.5-74.5s33.421-74.5,74.5-74.5
		c41.08,0,74.5,33.421,74.5,74.5S472.747,571,431.667,571z"/>
	<path clip-path="url(#SVGID_2_)" fill="none" stroke="#000000" stroke-miterlimit="10" d="M431.667,244.409
		c-14.938,0-27.091,12.153-27.091,27.091c0,14.938,12.153,27.091,27.091,27.091c14.938,0,27.091-12.153,27.091-27.091
		C458.758,256.562,446.605,244.409,431.667,244.409z M431.667,346c-41.079,0-74.5-33.421-74.5-74.5s33.421-74.5,74.5-74.5
		c41.08,0,74.5,33.421,74.5,74.5S472.747,346,431.667,346z"/>
	<path clip-path="url(#SVGID_2_)" fill="none" stroke="#000000" stroke-miterlimit="10" d="M431.667,630.409
		c-14.938,0-27.091,12.153-27.091,27.091s12.153,27.091,27.091,27.091c14.938,0,27.091-12.153,27.091-27.091
		S446.605,630.409,431.667,630.409z M431.667,732c-41.079,0-74.5-33.421-74.5-74.5s33.421-74.5,74.5-74.5
		c41.08,0,74.5,33.421,74.5,74.5S472.747,732,431.667,732z"/>
	<path clip-path="url(#SVGID_2_)" fill="none" stroke="#000000" stroke-miterlimit="10" d="M270.667,83.409
		c-14.938,0-27.091,12.153-27.091,27.091c0,14.938,12.153,27.091,27.091,27.091c14.938,0,27.091-12.153,27.091-27.091
		C297.758,95.562,285.605,83.409,270.667,83.409z M270.667,185c-41.079,0-74.5-33.421-74.5-74.5c0-41.079,33.421-74.5,74.5-74.5
		c41.079,0,74.5,33.421,74.5,74.5C345.167,151.579,311.746,185,270.667,185z"/>
	<path clip-path="url(#SVGID_2_)" fill="none" stroke="#000000" stroke-miterlimit="10" d="M270.667,469.409
		c-14.938,0-27.091,12.153-27.091,27.091s12.153,27.091,27.091,27.091c14.938,0,27.091-12.153,27.091-27.091
		S285.605,469.409,270.667,469.409z M270.667,571c-41.079,0-74.5-33.421-74.5-74.5s33.421-74.5,74.5-74.5
		c41.079,0,74.5,33.421,74.5,74.5S311.746,571,270.667,571z"/>
	<path clip-path="url(#SVGID_2_)" fill="none" stroke="#000000" stroke-miterlimit="10" d="M270.667,244.409
		c-14.938,0-27.091,12.153-27.091,27.091c0,14.938,12.153,27.091,27.091,27.091c14.938,0,27.091-12.153,27.091-27.091
		C297.758,256.562,285.605,244.409,270.667,244.409z M270.667,346c-41.079,0-74.5-33.421-74.5-74.5s33.421-74.5,74.5-74.5
		c41.079,0,74.5,33.421,74.5,74.5S311.746,346,270.667,346z"/>
	<path clip-path="url(#SVGID_2_)" fill="none" stroke="#000000" stroke-miterlimit="10" d="M270.667,630.409
		c-14.938,0-27.091,12.153-27.091,27.091s12.153,27.091,27.091,27.091c14.938,0,27.091-12.153,27.091-27.091
		S285.605,630.409,270.667,630.409z M270.667,732c-41.079,0-74.5-33.421-74.5-74.5s33.421-74.5,74.5-74.5
		c41.079,0,74.5,33.421,74.5,74.5S311.746,732,270.667,732z"/>
	<path clip-path="url(#SVGID_2_)" fill="none" stroke="#000000" stroke-miterlimit="10" d="M592,83.409
		c-14.938,0-27.091,12.153-27.091,27.091c0,14.938,12.153,27.091,27.091,27.091c14.938,0,27.091-12.153,27.091-27.091
		C619.091,95.562,606.938,83.409,592,83.409z M592,185c-41.079,0-74.5-33.421-74.5-74.5c0-41.079,33.421-74.5,74.5-74.5
		c41.08,0,74.5,33.421,74.5,74.5C666.5,151.579,633.08,185,592,185z"/>
	<path clip-path="url(#SVGID_2_)" fill="none" stroke="#000000" stroke-miterlimit="10" d="M592,469.409
		c-14.938,0-27.091,12.153-27.091,27.091s12.153,27.091,27.091,27.091c14.938,0,27.091-12.153,27.091-27.091
		S606.938,469.409,592,469.409z M592,571c-41.079,0-74.5-33.421-74.5-74.5S550.921,422,592,422c41.08,0,74.5,33.421,74.5,74.5
		S633.08,571,592,571z"/>
	<path clip-path="url(#SVGID_2_)" fill="none" stroke="#000000" stroke-miterlimit="10" d="M592,244.409
		c-14.938,0-27.091,12.153-27.091,27.091c0,14.938,12.153,27.091,27.091,27.091c14.938,0,27.091-12.153,27.091-27.091
		C619.091,256.562,606.938,244.409,592,244.409z M592,346c-41.079,0-74.5-33.421-74.5-74.5S550.921,197,592,197
		c41.08,0,74.5,33.421,74.5,74.5S633.08,346,592,346z"/>
	<path clip-path="url(#SVGID_2_)" fill="none" stroke="#000000" stroke-miterlimit="10" d="M592,630.409
		c-14.938,0-27.091,12.153-27.091,27.091s12.153,27.091,27.091,27.091c14.938,0,27.091-12.153,27.091-27.091
		S606.938,630.409,592,630.409z M592,732c-41.079,0-74.5-33.421-74.5-74.5S550.921,583,592,583c41.08,0,74.5,33.421,74.5,74.5
		S633.08,732,592,732z"/>
	<path clip-path="url(#SVGID_2_)" fill="none" stroke="#000000" stroke-miterlimit="10" d="M833.167,134.636
		c-31.079,0-56.364,25.285-56.364,56.364c0,31.08,25.285,56.364,56.364,56.364c31.079,0,56.364-25.284,56.364-56.364
		C889.531,159.921,864.246,134.636,833.167,134.636z M833.167,346c-85.467,0-155-69.533-155-155s69.533-155,155-155
		s155,69.533,155,155S918.634,346,833.167,346z"/>
	<path clip-path="url(#SVGID_2_)" fill="none" stroke="#000000" stroke-miterlimit="10" d="M833.167,328.136
		c-31.079,0-56.364,25.285-56.364,56.364c0,31.08,25.285,56.364,56.364,56.364c31.079,0,56.364-25.284,56.364-56.364
		C889.531,353.421,864.246,328.136,833.167,328.136z M833.167,539.5c-85.467,0-155-69.533-155-155s69.533-155,155-155
		s155,69.533,155,155S918.634,539.5,833.167,539.5z"/>
	<path clip-path="url(#SVGID_2_)" fill="none" stroke="#000000" stroke-miterlimit="10" d="M833.167,520.136
		c-31.079,0-56.364,25.285-56.364,56.364c0,31.08,25.285,56.364,56.364,56.364c31.079,0,56.364-25.284,56.364-56.364
		C889.531,545.421,864.246,520.136,833.167,520.136z M833.167,731.5c-85.467,0-155-69.533-155-155s69.533-155,155-155
		s155,69.533,155,155S918.634,731.5,833.167,731.5z"/>
	<path clip-path="url(#SVGID_2_)" fill="none" stroke="#000000" stroke-miterlimit="10" d="M511,134.636
		c-31.079,0-56.364,25.285-56.364,56.364c0,31.08,25.285,56.364,56.364,56.364S567.364,222.08,567.364,191
		C567.364,159.921,542.079,134.636,511,134.636z M511,346c-85.467,0-155-69.533-155-155S425.533,36,511,36s155,69.533,155,155
		S596.467,346,511,346z"/>
	<path clip-path="url(#SVGID_2_)" fill="none" stroke="#000000" stroke-miterlimit="10" d="M511,328.136
		c-31.079,0-56.364,25.285-56.364,56.364c0,31.08,25.285,56.364,56.364,56.364s56.364-25.284,56.364-56.364
		C567.364,353.421,542.079,328.136,511,328.136z M511,539.5c-85.467,0-155-69.533-155-155s69.533-155,155-155s155,69.533,155,155
		S596.467,539.5,511,539.5z"/>
	<path clip-path="url(#SVGID_2_)" fill="none" stroke="#000000" stroke-miterlimit="10" d="M511,520.136
		c-31.079,0-56.364,25.285-56.364,56.364c0,31.08,25.285,56.364,56.364,56.364s56.364-25.284,56.364-56.364
		C567.364,545.421,542.079,520.136,511,520.136z M511,731.5c-85.467,0-155-69.533-155-155s69.533-155,155-155s155,69.533,155,155
		S596.467,731.5,511,731.5z"/>
	<path clip-path="url(#SVGID_2_)" fill="none" stroke="#000000" stroke-miterlimit="10" d="M191.333,134.636
		c-31.079,0-56.364,25.285-56.364,56.364c0,31.08,25.285,56.364,56.364,56.364S247.697,222.08,247.697,191
		C247.697,159.921,222.412,134.636,191.333,134.636z M191.333,346c-85.467,0-155-69.533-155-155s69.533-155,155-155
		s155,69.533,155,155S276.8,346,191.333,346z"/>
	<path clip-path="url(#SVGID_2_)" fill="none" stroke="#000000" stroke-miterlimit="10" d="M191.333,328.136
		c-31.079,0-56.364,25.285-56.364,56.364c0,31.08,25.285,56.364,56.364,56.364s56.364-25.284,56.364-56.364
		C247.697,353.421,222.412,328.136,191.333,328.136z M191.333,539.5c-85.467,0-155-69.533-155-155s69.533-155,155-155
		s155,69.533,155,155S276.8,539.5,191.333,539.5z"/>
	<path clip-path="url(#SVGID_2_)" fill="none" stroke="#000000" stroke-miterlimit="10" d="M191.333,520.136
		c-31.079,0-56.364,25.285-56.364,56.364c0,31.08,25.285,56.364,56.364,56.364s56.364-25.284,56.364-56.364
		C247.697,545.421,222.412,520.136,191.333,520.136z M191.333,731.5c-85.467,0-155-69.533-155-155s69.533-155,155-155
		s155,69.533,155,155S276.8,731.5,191.333,731.5z"/>
	<path clip-path="url(#SVGID_2_)" fill="none" stroke="#000000" stroke-miterlimit="10" d="M833.167,520.636
		c-31.079,0-56.364,25.285-56.364,56.364c0,31.08,25.285,56.364,56.364,56.364c31.079,0,56.364-25.284,56.364-56.364
		C889.531,545.921,864.246,520.636,833.167,520.636z M833.167,732c-85.467,0-155-69.533-155-155s69.533-155,155-155
		s155,69.533,155,155S918.634,732,833.167,732z"/>
</g>
</svg>
