<?xml version="1.0" encoding="utf-8"?>
<!-- Generator: Adobe Illustrator 17.0.0, SVG Export Plug-In . SVG Version: 6.00 Build 0)  -->
<!DOCTYPE svg PUBLIC "-//W3C//DTD SVG 1.1//EN" "http://www.w3.org/Graphics/SVG/1.1/DTD/svg11.dtd">
<svg version="1.1" id="Layer_1" xmlns="http://www.w3.org/2000/svg" xmlns:xlink="http://www.w3.org/1999/xlink" x="0px" y="0px"
	 width="1024px" height="768px" viewBox="0 0 1024 768" enable-background="new 0 0 1024 768" xml:space="preserve">
<g>
	<defs>
		<rect id="SVGID_1_" x="36" y="36" width="952" height="696"/>
	</defs>
	<clipPath id="SVGID_2_">
		<use xlink:href="#SVGID_1_"  overflow="visible"/>
	</clipPath>
	<path clip-path="url(#SVGID_2_)" fill="none" stroke="#000000" stroke-miterlimit="10" d="M150.5,109.045
		c-22.858,0-41.455,18.597-41.455,41.455c0,22.859,18.597,41.455,41.455,41.455s41.455-18.596,41.455-41.455
		C191.955,127.642,173.358,109.045,150.5,109.045z M150.5,264.5c-62.86,0-114-51.14-114-114s51.14-114,114-114s114,51.14,114,114
		S213.36,264.5,150.5,264.5z"/>
	<path clip-path="url(#SVGID_2_)" fill="none" stroke="#000000" stroke-miterlimit="10" d="M150.5,297.5c-6.617,0-12,5.383-12,12
		c0,6.617,5.383,12,12,12s12-5.383,12-12C162.5,302.883,157.117,297.5,150.5,297.5z M150.5,342.5c-18.196,0-33-14.804-33-33
		c0-18.196,14.804-33,33-33s33,14.804,33,33C183.5,327.696,168.696,342.5,150.5,342.5z"/>
	<path clip-path="url(#SVGID_2_)" fill="none" stroke="#000000" stroke-miterlimit="10" d="M150.5,374.5c-6.617,0-12,5.383-12,12
		c0,6.617,5.383,12,12,12s12-5.383,12-12C162.5,379.883,157.117,374.5,150.5,374.5z M150.5,419.5c-18.196,0-33-14.804-33-33
		c0-18.196,14.804-33,33-33s33,14.804,33,33C183.5,404.696,168.696,419.5,150.5,419.5z"/>
	<path clip-path="url(#SVGID_2_)" fill="none" stroke="#000000" stroke-miterlimit="10" d="M150.5,451.5c-6.617,0-12,5.383-12,12
		c0,6.617,5.383,12,12,12s12-5.383,12-12C162.5,456.883,157.117,451.5,150.5,451.5z M150.5,496.5c-18.196,0-33-14.804-33-33
		c0-18.196,14.804-33,33-33s33,14.804,33,33C183.5,481.696,168.696,496.5,150.5,496.5z"/>
	<path clip-path="url(#SVGID_2_)" fill="none" stroke="#000000" stroke-miterlimit="10" d="M150.5,528.5c-6.617,0-12,5.383-12,12
		s5.383,12,12,12s12-5.383,12-12S157.117,528.5,150.5,528.5z M150.5,573.5c-18.196,0-33-14.804-33-33c0-18.196,14.804-33,33-33
		s33,14.804,33,33C183.5,558.696,168.696,573.5,150.5,573.5z"/>
	<path clip-path="url(#SVGID_2_)" fill="none" stroke="#000000" stroke-miterlimit="10" d="M391.5,297.5c-6.617,0-12,5.383-12,12
		c0,6.617,5.383,12,12,12c6.617,0,12-5.383,12-12C403.5,302.883,398.117,297.5,391.5,297.5z M391.5,342.5c-18.196,0-33-14.804-33-33
		c0-18.196,14.804-33,33-33c18.196,0,33,14.804,33,33C424.5,327.696,409.696,342.5,391.5,342.5z"/>
	<path clip-path="url(#SVGID_2_)" fill="none" stroke="#000000" stroke-miterlimit="10" d="M391.5,374.5c-6.617,0-12,5.383-12,12
		c0,6.617,5.383,12,12,12c6.617,0,12-5.383,12-12C403.5,379.883,398.117,374.5,391.5,374.5z M391.5,419.5c-18.196,0-33-14.804-33-33
		c0-18.196,14.804-33,33-33c18.196,0,33,14.804,33,33C424.5,404.696,409.696,419.5,391.5,419.5z"/>
	<path clip-path="url(#SVGID_2_)" fill="none" stroke="#000000" stroke-miterlimit="10" d="M391.5,451.5c-6.617,0-12,5.383-12,12
		c0,6.617,5.383,12,12,12c6.617,0,12-5.383,12-12C403.5,456.883,398.117,451.5,391.5,451.5z M391.5,496.5c-18.196,0-33-14.804-33-33
		c0-18.196,14.804-33,33-33c18.196,0,33,14.804,33,33C424.5,481.696,409.696,496.5,391.5,496.5z"/>
	<path clip-path="url(#SVGID_2_)" fill="none" stroke="#000000" stroke-miterlimit="10" d="M391.5,528.5c-6.617,0-12,5.383-12,12
		s5.383,12,12,12c6.617,0,12-5.383,12-12S398.117,528.5,391.5,528.5z M391.5,573.5c-18.196,0-33-14.804-33-33
		c0-18.196,14.804-33,33-33c18.196,0,33,14.804,33,33C424.5,558.696,409.696,573.5,391.5,573.5z"/>
	<path clip-path="url(#SVGID_2_)" fill="none" stroke="#000000" stroke-miterlimit="10" d="M632.167,297.5c-6.617,0-12,5.383-12,12
		c0,6.617,5.383,12,12,12c6.617,0,12-5.383,12-12C644.167,302.883,638.784,297.5,632.167,297.5z M632.167,342.5
		c-18.196,0-33-14.804-33-33c0-18.196,14.804-33,33-33c18.196,0,33,14.804,33,33C665.167,327.696,650.363,342.5,632.167,342.5z"/>
	<path clip-path="url(#SVGID_2_)" fill="none" stroke="#000000" stroke-miterlimit="10" d="M632.167,374.5c-6.617,0-12,5.383-12,12
		c0,6.617,5.383,12,12,12c6.617,0,12-5.383,12-12C644.167,379.883,638.784,374.5,632.167,374.5z M632.167,419.5
		c-18.196,0-33-14.804-33-33c0-18.196,14.804-33,33-33c18.196,0,33,14.804,33,33C665.167,404.696,650.363,419.5,632.167,419.5z"/>
	<path clip-path="url(#SVGID_2_)" fill="none" stroke="#000000" stroke-miterlimit="10" d="M632.167,451.5c-6.617,0-12,5.383-12,12
		c0,6.617,5.383,12,12,12c6.617,0,12-5.383,12-12C644.167,456.883,638.784,451.5,632.167,451.5z M632.167,496.5
		c-18.196,0-33-14.804-33-33c0-18.196,14.804-33,33-33c18.196,0,33,14.804,33,33C665.167,481.696,650.363,496.5,632.167,496.5z"/>
	<path clip-path="url(#SVGID_2_)" fill="none" stroke="#000000" stroke-miterlimit="10" d="M632.167,528.5c-6.617,0-12,5.383-12,12
		s5.383,12,12,12c6.617,0,12-5.383,12-12S638.784,528.5,632.167,528.5z M632.167,573.5c-18.196,0-33-14.804-33-33
		c0-18.196,14.804-33,33-33c18.196,0,33,14.804,33,33C665.167,558.696,650.363,573.5,632.167,573.5z"/>
	<path clip-path="url(#SVGID_2_)" fill="none" stroke="#000000" stroke-miterlimit="10" d="M873.167,297.5c-6.617,0-12,5.383-12,12
		c0,6.617,5.383,12,12,12c6.617,0,12-5.383,12-12C885.167,302.883,879.784,297.5,873.167,297.5z M873.167,342.5
		c-18.196,0-33-14.804-33-33c0-18.196,14.804-33,33-33c18.196,0,33,14.804,33,33C906.167,327.696,891.363,342.5,873.167,342.5z"/>
	<path clip-path="url(#SVGID_2_)" fill="none" stroke="#000000" stroke-miterlimit="10" d="M873.167,374.5c-6.617,0-12,5.383-12,12
		c0,6.617,5.383,12,12,12c6.617,0,12-5.383,12-12C885.167,379.883,879.784,374.5,873.167,374.5z M873.167,419.5
		c-18.196,0-33-14.804-33-33c0-18.196,14.804-33,33-33c18.196,0,33,14.804,33,33C906.167,404.696,891.363,419.5,873.167,419.5z"/>
	<path clip-path="url(#SVGID_2_)" fill="none" stroke="#000000" stroke-miterlimit="10" d="M873.167,451.5c-6.617,0-12,5.383-12,12
		c0,6.617,5.383,12,12,12c6.617,0,12-5.383,12-12C885.167,456.883,879.784,451.5,873.167,451.5z M873.167,496.5
		c-18.196,0-33-14.804-33-33c0-18.196,14.804-33,33-33c18.196,0,33,14.804,33,33C906.167,481.696,891.363,496.5,873.167,496.5z"/>
	<path clip-path="url(#SVGID_2_)" fill="none" stroke="#000000" stroke-miterlimit="10" d="M873.167,528.5c-6.617,0-12,5.383-12,12
		s5.383,12,12,12c6.617,0,12-5.383,12-12S879.784,528.5,873.167,528.5z M873.167,573.5c-18.196,0-33-14.804-33-33
		c0-18.196,14.804-33,33-33c18.196,0,33,14.804,33,33C906.167,558.696,891.363,573.5,873.167,573.5z"/>
	<path clip-path="url(#SVGID_2_)" fill="none" stroke="#000000" stroke-miterlimit="10" d="M70.833,297.5c-6.617,0-12,5.383-12,12
		c0,6.617,5.383,12,12,12c6.617,0,12-5.383,12-12C82.833,302.883,77.45,297.5,70.833,297.5z M70.833,342.5
		c-18.196,0-33-14.804-33-33c0-18.196,14.804-33,33-33s33,14.804,33,33C103.833,327.696,89.029,342.5,70.833,342.5z"/>
	<path clip-path="url(#SVGID_2_)" fill="none" stroke="#000000" stroke-miterlimit="10" d="M70.833,374.5c-6.617,0-12,5.383-12,12
		c0,6.617,5.383,12,12,12c6.617,0,12-5.383,12-12C82.833,379.883,77.45,374.5,70.833,374.5z M70.833,419.5
		c-18.196,0-33-14.804-33-33c0-18.196,14.804-33,33-33s33,14.804,33,33C103.833,404.696,89.029,419.5,70.833,419.5z"/>
	<path clip-path="url(#SVGID_2_)" fill="none" stroke="#000000" stroke-miterlimit="10" d="M70.833,451.5c-6.617,0-12,5.383-12,12
		c0,6.617,5.383,12,12,12c6.617,0,12-5.383,12-12C82.833,456.883,77.45,451.5,70.833,451.5z M70.833,496.5
		c-18.196,0-33-14.804-33-33c0-18.196,14.804-33,33-33s33,14.804,33,33C103.833,481.696,89.029,496.5,70.833,496.5z"/>
	<path clip-path="url(#SVGID_2_)" fill="none" stroke="#000000" stroke-miterlimit="10" d="M70.833,528.5c-6.617,0-12,5.383-12,12
		s5.383,12,12,12c6.617,0,12-5.383,12-12S77.45,528.5,70.833,528.5z M70.833,573.5c-18.196,0-33-14.804-33-33
		c0-18.196,14.804-33,33-33s33,14.804,33,33C103.833,558.696,89.029,573.5,70.833,573.5z"/>
	<path clip-path="url(#SVGID_2_)" fill="none" stroke="#000000" stroke-miterlimit="10" d="M110.333,630.818
		c-14.804,0-26.848,12.044-26.848,26.849c0,14.804,12.044,26.848,26.848,26.848s26.848-12.044,26.848-26.848
		C137.181,642.862,125.137,630.818,110.333,630.818z M110.333,731.5c-40.712,0-73.833-33.121-73.833-73.833
		c0-40.712,33.121-73.834,73.833-73.834s73.833,33.122,73.833,73.834C184.166,698.379,151.045,731.5,110.333,731.5z"/>
	<path clip-path="url(#SVGID_2_)" fill="none" stroke="#000000" stroke-miterlimit="10" d="M271,630.818
		c-14.804,0-26.848,12.044-26.848,26.849c0,14.804,12.044,26.848,26.848,26.848c14.804,0,26.848-12.044,26.848-26.848
		C297.848,642.862,285.804,630.818,271,630.818z M271,731.5c-40.712,0-73.833-33.121-73.833-73.833
		c0-40.712,33.121-73.834,73.833-73.834s73.833,33.122,73.833,73.834C344.833,698.379,311.712,731.5,271,731.5z"/>
	<path clip-path="url(#SVGID_2_)" fill="none" stroke="#000000" stroke-miterlimit="10" d="M431.333,630.818
		c-14.804,0-26.848,12.044-26.848,26.849c0,14.804,12.044,26.848,26.848,26.848c14.804,0,26.848-12.044,26.848-26.848
		C458.181,642.862,446.137,630.818,431.333,630.818z M431.333,731.5c-40.712,0-73.833-33.121-73.833-73.833
		c0-40.712,33.121-73.834,73.833-73.834s73.833,33.122,73.833,73.834C505.166,698.379,472.045,731.5,431.333,731.5z"/>
	<path clip-path="url(#SVGID_2_)" fill="none" stroke="#000000" stroke-miterlimit="10" d="M592.333,630.818
		c-14.804,0-26.849,12.044-26.849,26.849c0,14.804,12.045,26.848,26.849,26.848c14.804,0,26.848-12.044,26.848-26.848
		C619.181,642.862,607.137,630.818,592.333,630.818z M592.333,731.5c-40.712,0-73.833-33.121-73.833-73.833
		c0-40.712,33.121-73.834,73.833-73.834c40.712,0,73.833,33.122,73.833,73.834C666.166,698.379,633.045,731.5,592.333,731.5z"/>
	<path clip-path="url(#SVGID_2_)" fill="none" stroke="#000000" stroke-miterlimit="10" d="M753.667,630.818
		c-14.804,0-26.848,12.044-26.848,26.849c0,14.804,12.044,26.848,26.848,26.848c14.804,0,26.848-12.044,26.848-26.848
		C780.515,642.862,768.471,630.818,753.667,630.818z M753.667,731.5c-40.712,0-73.833-33.121-73.833-73.833
		c0-40.712,33.121-73.834,73.833-73.834c40.712,0,73.833,33.122,73.833,73.834C827.5,698.379,794.379,731.5,753.667,731.5z"/>
	<path clip-path="url(#SVGID_2_)" fill="none" stroke="#000000" stroke-miterlimit="10" d="M913.667,630.818
		c-14.804,0-26.848,12.044-26.848,26.849c0,14.804,12.044,26.848,26.848,26.848c14.804,0,26.849-12.044,26.849-26.848
		C940.516,642.862,928.471,630.818,913.667,630.818z M913.667,731.5c-40.712,0-73.833-33.121-73.833-73.833
		c0-40.712,33.121-73.834,73.833-73.834c40.712,0,73.833,33.122,73.833,73.834C987.5,698.379,954.379,731.5,913.667,731.5z"/>
	<path clip-path="url(#SVGID_2_)" fill="none" stroke="#000000" stroke-miterlimit="10" d="M311.833,297.5c-6.617,0-12,5.383-12,12
		c0,6.617,5.383,12,12,12c6.617,0,12-5.383,12-12C323.833,302.883,318.45,297.5,311.833,297.5z M311.833,342.5
		c-18.196,0-33-14.804-33-33c0-18.196,14.804-33,33-33c18.196,0,33,14.804,33,33C344.833,327.696,330.029,342.5,311.833,342.5z"/>
	<path clip-path="url(#SVGID_2_)" fill="none" stroke="#000000" stroke-miterlimit="10" d="M311.833,374.5c-6.617,0-12,5.383-12,12
		c0,6.617,5.383,12,12,12c6.617,0,12-5.383,12-12C323.833,379.883,318.45,374.5,311.833,374.5z M311.833,419.5
		c-18.196,0-33-14.804-33-33c0-18.196,14.804-33,33-33c18.196,0,33,14.804,33,33C344.833,404.696,330.029,419.5,311.833,419.5z"/>
	<path clip-path="url(#SVGID_2_)" fill="none" stroke="#000000" stroke-miterlimit="10" d="M311.833,451.5c-6.617,0-12,5.383-12,12
		c0,6.617,5.383,12,12,12c6.617,0,12-5.383,12-12C323.833,456.883,318.45,451.5,311.833,451.5z M311.833,496.5
		c-18.196,0-33-14.804-33-33c0-18.196,14.804-33,33-33c18.196,0,33,14.804,33,33C344.833,481.696,330.029,496.5,311.833,496.5z"/>
	<path clip-path="url(#SVGID_2_)" fill="none" stroke="#000000" stroke-miterlimit="10" d="M311.833,528.5c-6.617,0-12,5.383-12,12
		s5.383,12,12,12c6.617,0,12-5.383,12-12S318.45,528.5,311.833,528.5z M311.833,573.5c-18.196,0-33-14.804-33-33
		c0-18.196,14.804-33,33-33c18.196,0,33,14.804,33,33C344.833,558.696,330.029,573.5,311.833,573.5z"/>
	<path clip-path="url(#SVGID_2_)" fill="none" stroke="#000000" stroke-miterlimit="10" d="M552.5,297.5c-6.617,0-12,5.383-12,12
		c0,6.617,5.383,12,12,12c6.617,0,12-5.383,12-12C564.5,302.883,559.117,297.5,552.5,297.5z M552.5,342.5c-18.196,0-33-14.804-33-33
		c0-18.196,14.804-33,33-33c18.196,0,33,14.804,33,33C585.5,327.696,570.696,342.5,552.5,342.5z"/>
	<path clip-path="url(#SVGID_2_)" fill="none" stroke="#000000" stroke-miterlimit="10" d="M552.5,374.5c-6.617,0-12,5.383-12,12
		c0,6.617,5.383,12,12,12c6.617,0,12-5.383,12-12C564.5,379.883,559.117,374.5,552.5,374.5z M552.5,419.5c-18.196,0-33-14.804-33-33
		c0-18.196,14.804-33,33-33c18.196,0,33,14.804,33,33C585.5,404.696,570.696,419.5,552.5,419.5z"/>
	<path clip-path="url(#SVGID_2_)" fill="none" stroke="#000000" stroke-miterlimit="10" d="M552.5,451.5c-6.617,0-12,5.383-12,12
		c0,6.617,5.383,12,12,12c6.617,0,12-5.383,12-12C564.5,456.883,559.117,451.5,552.5,451.5z M552.5,496.5c-18.196,0-33-14.804-33-33
		c0-18.196,14.804-33,33-33c18.196,0,33,14.804,33,33C585.5,481.696,570.696,496.5,552.5,496.5z"/>
	<path clip-path="url(#SVGID_2_)" fill="none" stroke="#000000" stroke-miterlimit="10" d="M552.5,528.5c-6.617,0-12,5.383-12,12
		s5.383,12,12,12c6.617,0,12-5.383,12-12S559.117,528.5,552.5,528.5z M552.5,573.5c-18.196,0-33-14.804-33-33
		c0-18.196,14.804-33,33-33c18.196,0,33,14.804,33,33C585.5,558.696,570.696,573.5,552.5,573.5z"/>
	<path clip-path="url(#SVGID_2_)" fill="none" stroke="#000000" stroke-miterlimit="10" d="M793.5,297.5c-6.617,0-12,5.383-12,12
		c0,6.617,5.383,12,12,12c6.617,0,12-5.383,12-12C805.5,302.883,800.117,297.5,793.5,297.5z M793.5,342.5c-18.196,0-33-14.804-33-33
		c0-18.196,14.804-33,33-33c18.196,0,33,14.804,33,33C826.5,327.696,811.696,342.5,793.5,342.5z"/>
	<path clip-path="url(#SVGID_2_)" fill="none" stroke="#000000" stroke-miterlimit="10" d="M793.5,374.5c-6.617,0-12,5.383-12,12
		c0,6.617,5.383,12,12,12c6.617,0,12-5.383,12-12C805.5,379.883,800.117,374.5,793.5,374.5z M793.5,419.5c-18.196,0-33-14.804-33-33
		c0-18.196,14.804-33,33-33c18.196,0,33,14.804,33,33C826.5,404.696,811.696,419.5,793.5,419.5z"/>
	<path clip-path="url(#SVGID_2_)" fill="none" stroke="#000000" stroke-miterlimit="10" d="M793.5,451.5c-6.617,0-12,5.383-12,12
		c0,6.617,5.383,12,12,12c6.617,0,12-5.383,12-12C805.5,456.883,800.117,451.5,793.5,451.5z M793.5,496.5c-18.196,0-33-14.804-33-33
		c0-18.196,14.804-33,33-33c18.196,0,33,14.804,33,33C826.5,481.696,811.696,496.5,793.5,496.5z"/>
	<path clip-path="url(#SVGID_2_)" fill="none" stroke="#000000" stroke-miterlimit="10" d="M793.5,528.5c-6.617,0-12,5.383-12,12
		s5.383,12,12,12c6.617,0,12-5.383,12-12S800.117,528.5,793.5,528.5z M793.5,573.5c-18.196,0-33-14.804-33-33
		c0-18.196,14.804-33,33-33c18.196,0,33,14.804,33,33C826.5,558.696,811.696,573.5,793.5,573.5z"/>
	<path clip-path="url(#SVGID_2_)" fill="none" stroke="#000000" stroke-miterlimit="10" d="M230.167,297.5c-6.617,0-12,5.383-12,12
		c0,6.617,5.383,12,12,12c6.617,0,12-5.383,12-12C242.167,302.883,236.784,297.5,230.167,297.5z M230.167,342.5
		c-18.196,0-33-14.804-33-33c0-18.196,14.804-33,33-33s33,14.804,33,33C263.167,327.696,248.363,342.5,230.167,342.5z"/>
	<path clip-path="url(#SVGID_2_)" fill="none" stroke="#000000" stroke-miterlimit="10" d="M230.167,374.5c-6.617,0-12,5.383-12,12
		c0,6.617,5.383,12,12,12c6.617,0,12-5.383,12-12C242.167,379.883,236.784,374.5,230.167,374.5z M230.167,419.5
		c-18.196,0-33-14.804-33-33c0-18.196,14.804-33,33-33s33,14.804,33,33C263.167,404.696,248.363,419.5,230.167,419.5z"/>
	<path clip-path="url(#SVGID_2_)" fill="none" stroke="#000000" stroke-miterlimit="10" d="M230.167,451.5c-6.617,0-12,5.383-12,12
		c0,6.617,5.383,12,12,12c6.617,0,12-5.383,12-12C242.167,456.883,236.784,451.5,230.167,451.5z M230.167,496.5
		c-18.196,0-33-14.804-33-33c0-18.196,14.804-33,33-33s33,14.804,33,33C263.167,481.696,248.363,496.5,230.167,496.5z"/>
	<path clip-path="url(#SVGID_2_)" fill="none" stroke="#000000" stroke-miterlimit="10" d="M230.167,528.5c-6.617,0-12,5.383-12,12
		s5.383,12,12,12c6.617,0,12-5.383,12-12S236.784,528.5,230.167,528.5z M230.167,573.5c-18.196,0-33-14.804-33-33
		c0-18.196,14.804-33,33-33s33,14.804,33,33C263.167,558.696,248.363,573.5,230.167,573.5z"/>
	<path clip-path="url(#SVGID_2_)" fill="none" stroke="#000000" stroke-miterlimit="10" d="M472.167,297.5c-6.617,0-12,5.383-12,12
		c0,6.617,5.383,12,12,12c6.617,0,12-5.383,12-12C484.167,302.883,478.784,297.5,472.167,297.5z M472.167,342.5
		c-18.196,0-33-14.804-33-33c0-18.196,14.804-33,33-33c18.196,0,33,14.804,33,33C505.167,327.696,490.363,342.5,472.167,342.5z"/>
	<path clip-path="url(#SVGID_2_)" fill="none" stroke="#000000" stroke-miterlimit="10" d="M472.167,374.5c-6.617,0-12,5.383-12,12
		c0,6.617,5.383,12,12,12c6.617,0,12-5.383,12-12C484.167,379.883,478.784,374.5,472.167,374.5z M472.167,419.5
		c-18.196,0-33-14.804-33-33c0-18.196,14.804-33,33-33c18.196,0,33,14.804,33,33C505.167,404.696,490.363,419.5,472.167,419.5z"/>
	<path clip-path="url(#SVGID_2_)" fill="none" stroke="#000000" stroke-miterlimit="10" d="M472.167,451.5c-6.617,0-12,5.383-12,12
		c0,6.617,5.383,12,12,12c6.617,0,12-5.383,12-12C484.167,456.883,478.784,451.5,472.167,451.5z M472.167,496.5
		c-18.196,0-33-14.804-33-33c0-18.196,14.804-33,33-33c18.196,0,33,14.804,33,33C505.167,481.696,490.363,496.5,472.167,496.5z"/>
	<path clip-path="url(#SVGID_2_)" fill="none" stroke="#000000" stroke-miterlimit="10" d="M472.167,528.5c-6.617,0-12,5.383-12,12
		s5.383,12,12,12c6.617,0,12-5.383,12-12S478.784,528.5,472.167,528.5z M472.167,573.5c-18.196,0-33-14.804-33-33
		c0-18.196,14.804-33,33-33c18.196,0,33,14.804,33,33C505.167,558.696,490.363,573.5,472.167,573.5z"/>
	<path clip-path="url(#SVGID_2_)" fill="none" stroke="#000000" stroke-miterlimit="10" d="M712.833,297.5c-6.617,0-12,5.383-12,12
		c0,6.617,5.383,12,12,12c6.617,0,12-5.383,12-12C724.833,302.883,719.45,297.5,712.833,297.5z M712.833,342.5
		c-18.196,0-33-14.804-33-33c0-18.196,14.804-33,33-33c18.196,0,33,14.804,33,33C745.833,327.696,731.029,342.5,712.833,342.5z"/>
	<path clip-path="url(#SVGID_2_)" fill="none" stroke="#000000" stroke-miterlimit="10" d="M712.833,374.5c-6.617,0-12,5.383-12,12
		c0,6.617,5.383,12,12,12c6.617,0,12-5.383,12-12C724.833,379.883,719.45,374.5,712.833,374.5z M712.833,419.5
		c-18.196,0-33-14.804-33-33c0-18.196,14.804-33,33-33c18.196,0,33,14.804,33,33C745.833,404.696,731.029,419.5,712.833,419.5z"/>
	<path clip-path="url(#SVGID_2_)" fill="none" stroke="#000000" stroke-miterlimit="10" d="M712.833,451.5c-6.617,0-12,5.383-12,12
		c0,6.617,5.383,12,12,12c6.617,0,12-5.383,12-12C724.833,456.883,719.45,451.5,712.833,451.5z M712.833,496.5
		c-18.196,0-33-14.804-33-33c0-18.196,14.804-33,33-33c18.196,0,33,14.804,33,33C745.833,481.696,731.029,496.5,712.833,496.5z"/>
	<path clip-path="url(#SVGID_2_)" fill="none" stroke="#000000" stroke-miterlimit="10" d="M712.833,528.5c-6.617,0-12,5.383-12,12
		s5.383,12,12,12c6.617,0,12-5.383,12-12S719.45,528.5,712.833,528.5z M712.833,573.5c-18.196,0-33-14.804-33-33
		c0-18.196,14.804-33,33-33c18.196,0,33,14.804,33,33C745.833,558.696,731.029,573.5,712.833,573.5z"/>
	<path clip-path="url(#SVGID_2_)" fill="none" stroke="#000000" stroke-miterlimit="10" d="M953.833,297.5c-6.617,0-12,5.383-12,12
		c0,6.617,5.383,12,12,12c6.617,0,12-5.383,12-12C965.833,302.883,960.45,297.5,953.833,297.5z M953.833,342.5
		c-18.196,0-33-14.804-33-33c0-18.196,14.804-33,33-33c18.196,0,33,14.804,33,33C986.833,327.696,972.029,342.5,953.833,342.5z"/>
	<path clip-path="url(#SVGID_2_)" fill="none" stroke="#000000" stroke-miterlimit="10" d="M953.833,374.5c-6.617,0-12,5.383-12,12
		c0,6.617,5.383,12,12,12c6.617,0,12-5.383,12-12C965.833,379.883,960.45,374.5,953.833,374.5z M953.833,419.5
		c-18.196,0-33-14.804-33-33c0-18.196,14.804-33,33-33c18.196,0,33,14.804,33,33C986.833,404.696,972.029,419.5,953.833,419.5z"/>
	<path clip-path="url(#SVGID_2_)" fill="none" stroke="#000000" stroke-miterlimit="10" d="M953.833,451.5c-6.617,0-12,5.383-12,12
		c0,6.617,5.383,12,12,12c6.617,0,12-5.383,12-12C965.833,456.883,960.45,451.5,953.833,451.5z M953.833,496.5
		c-18.196,0-33-14.804-33-33c0-18.196,14.804-33,33-33c18.196,0,33,14.804,33,33C986.833,481.696,972.029,496.5,953.833,496.5z"/>
	<path clip-path="url(#SVGID_2_)" fill="none" stroke="#000000" stroke-miterlimit="10" d="M953.833,528.5c-6.617,0-12,5.383-12,12
		s5.383,12,12,12c6.617,0,12-5.383,12-12S960.45,528.5,953.833,528.5z M953.833,573.5c-18.196,0-33-14.804-33-33
		c0-18.196,14.804-33,33-33c18.196,0,33,14.804,33,33C986.833,558.696,972.029,573.5,953.833,573.5z"/>
	<path clip-path="url(#SVGID_2_)" fill="none" stroke="#000000" stroke-miterlimit="10" d="M391.5,109.045
		c-22.858,0-41.455,18.597-41.455,41.455c0,22.859,18.597,41.455,41.455,41.455c22.858,0,41.455-18.596,41.455-41.455
		C432.955,127.642,414.358,109.045,391.5,109.045z M391.5,264.5c-62.86,0-114-51.14-114-114s51.14-114,114-114s114,51.14,114,114
		S454.36,264.5,391.5,264.5z"/>
	<path clip-path="url(#SVGID_2_)" fill="none" stroke="#000000" stroke-miterlimit="10" d="M632.5,109.045
		c-22.858,0-41.455,18.597-41.455,41.455c0,22.859,18.597,41.455,41.455,41.455c22.858,0,41.455-18.596,41.455-41.455
		C673.955,127.642,655.358,109.045,632.5,109.045z M632.5,264.5c-62.86,0-114-51.14-114-114s51.14-114,114-114s114,51.14,114,114
		S695.36,264.5,632.5,264.5z"/>
	<path clip-path="url(#SVGID_2_)" fill="none" stroke="#000000" stroke-miterlimit="10" d="M873.5,109.045
		c-22.858,0-41.455,18.597-41.455,41.455c0,22.859,18.597,41.455,41.455,41.455c22.858,0,41.455-18.596,41.455-41.455
		C914.955,127.642,896.358,109.045,873.5,109.045z M873.5,264.5c-62.86,0-114-51.14-114-114s51.14-114,114-114s114,51.14,114,114
		S936.36,264.5,873.5,264.5z"/>
</g>
</svg>
