<?xml version="1.0" encoding="utf-8"?>
<!-- Generator: Adobe Illustrator 17.0.0, SVG Export Plug-In . SVG Version: 6.00 Build 0)  -->
<!DOCTYPE svg PUBLIC "-//W3C//DTD SVG 1.1//EN" "http://www.w3.org/Graphics/SVG/1.1/DTD/svg11.dtd">
<svg version="1.1" id="Layer_1" xmlns="http://www.w3.org/2000/svg" xmlns:xlink="http://www.w3.org/1999/xlink" x="0px" y="0px"
	 width="1024px" height="768px" viewBox="0 0 1024 768" enable-background="new 0 0 1024 768" xml:space="preserve">
<g>
	<defs>
		<rect id="SVGID_1_" x="36" y="36" width="952" height="696"/>
	</defs>
	<clipPath id="SVGID_2_">
		<use xlink:href="#SVGID_1_"  overflow="visible"/>
	</clipPath>
	<path clip-path="url(#SVGID_2_)" fill="none" stroke="#000000" stroke-miterlimit="10" d="M271,185.727
		c-47.02,0-85.273,38.253-85.273,85.273c0,47.021,38.253,85.273,85.273,85.273s85.273-38.252,85.273-85.273
		C356.273,223.98,318.02,185.727,271,185.727z M271,505.5C141.696,505.5,36.5,400.304,36.5,271S141.696,36.5,271,36.5
		S505.5,141.696,505.5,271S400.304,505.5,271,505.5z"/>
	<path clip-path="url(#SVGID_2_)" fill="none" stroke="#000000" stroke-miterlimit="10" d="M512,185.727
		c-47.02,0-85.273,38.253-85.273,85.273c0,47.021,38.253,85.273,85.273,85.273c47.02,0,85.273-38.252,85.273-85.273
		C597.273,223.98,559.02,185.727,512,185.727z M512,505.5c-129.304,0-234.5-105.196-234.5-234.5S382.696,36.5,512,36.5
		S746.5,141.696,746.5,271S641.304,505.5,512,505.5z"/>
	<path clip-path="url(#SVGID_2_)" fill="none" stroke="#000000" stroke-miterlimit="10" d="M512,411.727
		c-47.02,0-85.273,38.253-85.273,85.273c0,47.021,38.253,85.273,85.273,85.273c47.02,0,85.273-38.252,85.273-85.273
		C597.273,449.98,559.02,411.727,512,411.727z M512,731.5c-129.304,0-234.5-105.196-234.5-234.5S382.696,262.5,512,262.5
		S746.5,367.696,746.5,497S641.304,731.5,512,731.5z"/>
	<path clip-path="url(#SVGID_2_)" fill="none" stroke="#000000" stroke-miterlimit="10" d="M271,411.727
		c-47.02,0-85.273,38.253-85.273,85.273c0,47.021,38.253,85.273,85.273,85.273s85.273-38.252,85.273-85.273
		C356.273,449.98,318.02,411.727,271,411.727z M271,731.5C141.696,731.5,36.5,626.304,36.5,497S141.696,262.5,271,262.5
		S505.5,367.696,505.5,497S400.304,731.5,271,731.5z"/>
	<path clip-path="url(#SVGID_2_)" fill="none" stroke="#000000" stroke-miterlimit="10" d="M753,185.727
		c-47.02,0-85.273,38.253-85.273,85.273c0,47.021,38.253,85.273,85.273,85.273c47.02,0,85.273-38.252,85.273-85.273
		C838.273,223.98,800.02,185.727,753,185.727z M753,505.5c-129.304,0-234.5-105.196-234.5-234.5S623.696,36.5,753,36.5
		S987.5,141.696,987.5,271S882.304,505.5,753,505.5z"/>
	<path clip-path="url(#SVGID_2_)" fill="none" stroke="#000000" stroke-miterlimit="10" d="M753,411.727
		c-47.02,0-85.273,38.253-85.273,85.273c0,47.021,38.253,85.273,85.273,85.273c47.02,0,85.273-38.252,85.273-85.273
		C838.273,449.98,800.02,411.727,753,411.727z M753,731.5c-129.304,0-234.5-105.196-234.5-234.5S623.696,262.5,753,262.5
		S987.5,367.696,987.5,497S882.304,731.5,753,731.5z"/>
</g>
</svg>
